# WaveFront *.obj file (generated by CINEMA 4D)

g Chairlift
mtllib 1379 Chairlift.mtl
usemtl Mat
v 4.082783 64.063763 5.739815
v -4.082783 60.645714 4.570021
v -4.082783 62.647961 2.915682
v -4.082783 65.479565 2.915682
v -4.082783 62.647961 8.563947
v -4.082783 60.645714 6.909609
v -4.082783 65.479565 8.563947
v -4.082783 64.063763 5.739815
v 4.082783 60.645714 4.570021
v 4.082783 62.647961 2.915682
v 4.082783 65.479565 2.915682
v 4.082783 62.647961 8.563947
v 4.082783 60.645714 6.909609
v 4.082783 65.479565 8.563947
v -4.082783 72.333793 2.915682
v -4.082783 72.333793 8.563947
v 4.082783 72.333793 2.915682
v 4.082783 72.333793 8.563947
v 7.191467 72.333793 8.563947
v 7.191467 72.333793 2.915682
v 18.214605 108.745461 8.563947
v 18.214605 108.745461 2.915682
v 9.648014 126.658458 8.563947
v 9.648014 126.658458 2.915682
v -6.910991 129.334977 8.563947
v -6.910991 129.334977 2.915682
v 4.752157 129.334977 8.563947
v 4.752157 129.334977 2.915682
v 7.542012 128.622166 8.563947
v 7.542012 128.622166 2.915682
v 15.75648 117.132574 8.563947
v 15.75648 117.132574 2.915682
v 17.587415 113.115416 8.563947
v 17.587415 113.115416 2.915682
v 18.214605 83.356931 8.563947
v 18.214605 83.356931 2.915682
v 14.986003 75.562395 8.563947
v 14.986003 75.562395 2.915682
v -4.082783 75.124696 2.915682
v -4.082783 75.124696 8.563947
v 4.082783 75.124696 2.915682
v 4.082783 75.124696 8.563947
v 6.636322 75.124696 8.563947
v 6.636322 75.124696 2.915682
v 15.423703 108.546202 8.563947
v 15.423703 108.546202 2.915682
v 7.488067 124.856542 8.563947
v 7.488067 124.856542 2.915682
v -6.910991 126.544074 8.563947
v -6.910991 126.544074 2.915682
v 4.401254 126.544074 8.563947
v 4.401254 126.544074 2.915682
v 6.160243 126.09465 8.563947
v 6.160243 126.09465 2.915682
v 13.299556 115.79378 8.563947
v 13.299556 115.79378 2.915682
v 14.881727 112.322423 8.563947
v 14.881727 112.322423 2.915682
v 15.423703 83.912076 8.563947
v 15.423703 83.912076 2.915682
v 12.849938 77.69846 8.563947
v 12.849938 77.69846 2.915682
v 38.994637 5.241559 17.649045
v 38.994637 15.644816 16.122515
v 38.994637 23.321398 -7.858313
v 38.994637 21.623039 -8.333854
v 38.994637 15.71639 12.040807
v 38.994637 4.435647 14.01655
v 40.588213 5.241559 17.649045
v 40.588213 15.644816 16.122515
v 40.588213 23.321398 -7.858313
v 40.588213 21.623039 -8.333854
v 40.588213 15.71639 12.040807
v 40.588213 4.435647 14.01655
v -38.994637 5.241559 17.649045
v -38.994637 15.644816 16.122515
v -38.994637 23.321398 -7.858313
v -38.994637 21.623039 -8.333854
v -38.994637 15.71639 12.040807
v -38.994637 4.435647 14.01655
v -40.588213 5.241559 17.649045
v -40.588213 15.644816 16.122515
v -40.588213 23.321398 -7.858313
v -40.588213 21.623039 -8.333854
v -40.588213 15.71639 12.040807
v -40.588213 4.435647 14.01655
v 4.61869 69.959251 7.486698
v 25.02586 69.959251 7.486698
v 4.952307 68.723357 7.486698
v 24.692243 68.723357 7.486698
v 4.952307 69.085342 6.612788
v 24.692243 69.085342 6.612788
v 4.952307 69.959251 6.250803
v 24.692243 69.959251 6.250803
v 4.952307 70.833161 6.612788
v 24.692243 70.833161 6.612788
v 4.952307 71.195146 7.486698
v 24.692243 71.195146 7.486698
v 4.952307 70.833161 8.360607
v 24.692243 70.833161 8.360607
v 4.952307 69.959251 8.722592
v 24.692243 69.959251 8.722592
v 4.952307 69.085342 8.360607
v 24.692243 69.085342 8.360607
v 4.61869 69.274415 7.486698
v 4.61869 69.474999 7.002445
v 4.61869 69.959251 6.801862
v 4.61869 70.443503 7.002445
v 4.61869 70.644087 7.486698
v 4.61869 70.443503 7.97095
v 4.61869 69.959251 8.171534
v 4.61869 69.474999 7.97095
v 25.02586 69.274415 7.486698
v 25.02586 69.474999 7.002445
v 25.02586 69.959251 6.801862
v 25.02586 70.443503 7.002445
v 25.02586 70.644087 7.486698
v 25.02586 70.443503 7.97095
v 25.02586 69.959251 8.171534
v 25.02586 69.474999 7.97095
v 13.838088 68.723357 7.486698
v 15.806462 68.723357 7.486698
v 13.838088 69.085342 6.612788
v 15.806462 69.085342 6.612788
v 13.838088 69.959251 6.250803
v 15.806462 69.959251 6.250803
v 13.838088 70.833161 6.612788
v 15.806462 70.833161 6.612788
v 13.838088 71.195146 7.486698
v 15.806462 71.195146 7.486698
v 13.838088 70.833161 8.360607
v 15.806462 70.833161 8.360607
v 13.838088 69.959251 8.722592
v 15.806462 69.959251 8.722592
v 13.838088 69.085342 8.360607
v 15.806462 69.085342 8.360607
v -4.61869 69.959251 7.486698
v -25.02586 69.959251 7.486698
v -4.952307 68.723357 7.486698
v -24.692243 68.723357 7.486698
v -4.952307 69.085342 6.612788
v -24.692243 69.085342 6.612788
v -4.952307 69.959251 6.250803
v -24.692243 69.959251 6.250803
v -4.952307 70.833161 6.612788
v -24.692243 70.833161 6.612788
v -4.952307 71.195146 7.486698
v -24.692243 71.195146 7.486698
v -4.952307 70.833161 8.360607
v -24.692243 70.833161 8.360607
v -4.952307 69.959251 8.722592
v -24.692243 69.959251 8.722592
v -4.952307 69.085342 8.360607
v -24.692243 69.085342 8.360607
v -4.61869 69.274415 7.486698
v -4.61869 69.474999 7.002445
v -4.61869 69.959251 6.801862
v -4.61869 70.443503 7.002445
v -4.61869 70.644087 7.486698
v -4.61869 70.443503 7.97095
v -4.61869 69.959251 8.171534
v -4.61869 69.474999 7.97095
v -25.02586 69.274415 7.486698
v -25.02586 69.474999 7.002445
v -25.02586 69.959251 6.801862
v -25.02586 70.443503 7.002445
v -25.02586 70.644087 7.486698
v -25.02586 70.443503 7.97095
v -25.02586 69.959251 8.171534
v -25.02586 69.474999 7.97095
v -13.838088 68.723357 7.486698
v -15.806462 68.723357 7.486698
v -13.838088 69.085342 6.612788
v -15.806462 69.085342 6.612788
v -13.838088 69.959251 6.250803
v -15.806462 69.959251 6.250803
v -13.838088 70.833161 6.612788
v -15.806462 70.833161 6.612788
v -13.838088 71.195146 7.486698
v -15.806462 71.195146 7.486698
v -13.838088 70.833161 8.360607
v -15.806462 70.833161 8.360607
v -13.838088 69.959251 8.722592
v -15.806462 69.959251 8.722592
v -13.838088 69.085342 8.360607
v -15.806462 69.085342 8.360607
v 14.822298 45.442235 -14.395153
v 14.196508 45.669928 -14.519032
v 13.937298 46.219627 -14.818102
v 14.196508 46.769327 -15.117172
v 14.822298 46.99702 -15.241051
v 15.448087 46.769327 -15.117172
v 15.707298 46.219627 -14.818102
v 15.448087 45.669928 -14.519032
v 14.822298 54.365088 2.005302
v 14.196508 54.58027 1.858428
v 13.937298 55.099765 1.503842
v 14.196508 55.619261 1.149255
v 14.822298 55.834443 1.002381
v 15.448087 55.619261 1.149255
v 15.707298 55.099765 1.503842
v 15.448087 54.58027 1.858428
v 14.822298 57.931055 6.242606
v 14.196508 58.077654 6.014238
v 13.937298 58.431577 5.462907
v 14.196508 58.785499 4.911577
v 14.822298 58.932099 4.683209
v 15.448087 58.785499 4.911577
v 15.707298 58.431577 5.462907
v 15.448087 58.077654 6.014238
v 14.822298 63.268303 7.720657
v 14.196508 63.312254 7.463862
v 13.937298 63.418361 6.843904
v 14.196508 63.524467 6.223946
v 14.822298 63.568418 5.967151
v 15.448087 63.524467 6.223946
v 15.707298 63.418361 6.843904
v 15.448087 63.312254 7.463862
v 14.822298 69.552122 8.154024
v 14.196508 69.569956 7.895428
v 13.937298 69.613012 7.271121
v 14.196508 69.656067 6.646815
v 14.822298 69.673902 6.388219
v -14.822298 54.365088 2.005302
v -14.196508 54.58027 1.858428
v -13.937298 55.099765 1.503842
v -14.196508 55.619261 1.149255
v -14.822298 55.834443 1.002381
v -15.448087 55.619261 1.149255
v -15.707298 55.099765 1.503842
v -15.448087 54.58027 1.858428
v -14.822298 57.931055 6.242606
v -14.196508 58.077654 6.014238
v -13.937298 58.431577 5.462907
v -14.196508 58.785499 4.911577
v -14.822298 58.932099 4.683209
v -15.448087 58.785499 4.911577
v -15.707298 58.431577 5.462907
v -15.448087 58.077654 6.014238
v -14.822298 63.268303 7.720657
v -14.196508 63.312254 7.463862
v -13.937298 63.418361 6.843904
v -14.196508 63.524467 6.223946
v -14.822298 63.568418 5.967151
v -15.448087 63.524467 6.223946
v -15.707298 63.418361 6.843904
v -15.448087 63.312254 7.463862
v -14.822298 45.442235 -14.395153
v -14.196508 45.669928 -14.519032
v -13.937298 46.219627 -14.818102
v -14.196508 46.769327 -15.117172
v -14.822298 46.99702 -15.241051
v -15.448087 46.769327 -15.117172
v -15.707298 46.219627 -14.818102
v -15.448087 45.669928 -14.519032
v 15.448087 69.656067 6.646815
v 15.707298 69.613012 7.271121
v 15.448087 69.569956 7.895428
v -14.822298 69.552122 8.154024
v -14.196508 69.569956 7.895428
v -13.937298 69.613012 7.271121
v -14.196508 69.656067 6.646815
v -14.822298 69.673902 6.388219
v -15.448087 69.656067 6.646815
v -15.707298 69.613012 7.271121
v -15.448087 69.569956 7.895428
v 40.605739 29.305644 -3.962767
v 40.166198 29.118153 -3.477946
v 39.490973 29.098647 -3.427506
v 38.975604 29.258551 -3.840992
v 38.921985 29.504197 -4.476191
v 39.361526 29.691687 -4.961012
v 40.03675 29.711194 -5.011452
v 40.55212 29.551289 -4.597966
v 40.599151 33.216202 -2.993156
v 40.147718 33.225852 -2.471154
v 39.471428 33.226576 -2.43201
v 38.966441 33.217949 -2.898653
v 38.928573 33.205026 -3.59773
v 39.380005 33.195376 -4.119732
v 40.056296 33.194653 -4.158877
v 40.561282 33.203279 -3.692233
v 40.588872 35.623329 -3.643805
v 40.120757 35.847044 -3.198267
v 39.443577 35.853974 -3.184466
v 38.954015 35.640059 -3.610487
v 38.938851 35.330608 -4.226772
v 39.406967 35.106893 -4.67231
v 40.084147 35.099964 -4.686111
v 40.573708 35.313878 -4.26009
v 40.584749 37.755006 -5.269835
v 40.11047 38.080648 -4.910204
v 39.433153 38.085082 -4.905306
v 38.94956 37.765713 -5.258011
v 38.942974 37.309621 -5.761708
v 39.417253 36.983979 -6.121339
v 40.094571 36.979545 -6.126237
v 40.578164 37.298914 -5.773532
v 40.58228 40.208795 -7.870526
v 40.104435 40.511707 -7.491864
v 39.427087 40.446476 -7.420196
v 38.947017 40.051315 -7.697504
v 38.945444 39.557704 -8.161345
v 39.423289 39.254792 -8.540006
v 40.100636 39.320023 -8.611674
v 40.580706 39.715184 -8.334366
v 38.98221 43.967183 -11.902622
v 38.572618 44.154841 -11.381296
v 37.974481 43.919081 -11.099364
v 37.53818 43.398007 -11.221978
v 37.519293 42.896858 -11.677313
v 37.928885 42.7092 -12.198639
v 38.527021 42.944961 -12.480571
v 38.963323 43.466034 -12.357957
v 35.266692 46.345531 -14.485346
v 35.046646 46.446344 -13.842694
v 34.710021 46.065259 -13.362928
v 34.454008 45.42551 -13.327088
v 34.428576 44.901854 -13.75617
v 34.648622 44.801041 -14.398822
v 34.985247 45.182126 -14.878588
v 35.24126 45.821875 -14.914427
v 30.282858 47.219913 -15.441077
v 30.228052 47.305804 -14.769195
v 30.142247 46.891445 -14.233369
v 30.075708 46.219563 -14.147478
v 30.067411 45.683737 -14.561836
v 30.122217 45.597846 -15.233718
v 30.208022 46.012204 -15.769544
v 30.274561 46.684086 -15.855435
v -40.606421 21.826526 -8.049298
v -39.493086 21.552488 -7.547462
v -38.921303 22.086075 -8.5246
v -39.35955 22.333603 -8.97789
v -40.034638 22.360112 -9.026436
v -40.551108 22.150074 -8.641801
v -40.605739 29.305644 -3.962767
v -40.166198 29.118153 -3.477946
v -39.490973 29.098647 -3.427506
v -38.975604 29.258551 -3.840992
v -38.921985 29.504197 -4.476191
v -39.361526 29.691687 -4.961012
v -40.03675 29.711194 -5.011452
v -40.55212 29.551289 -4.597966
v -40.599151 33.216202 -2.993156
v -40.147718 33.225852 -2.471154
v -39.471428 33.226576 -2.43201
v -38.966441 33.217949 -2.898653
v -38.928573 33.205026 -3.59773
v -39.380005 33.195376 -4.119732
v -40.056296 33.194653 -4.158877
v -40.561282 33.203279 -3.692233
v -40.588872 35.623329 -3.643805
v -40.120757 35.847044 -3.198267
v -39.443577 35.853974 -3.184466
v -38.954015 35.640059 -3.610487
v -38.938851 35.330608 -4.226772
v -39.406967 35.106893 -4.67231
v -40.084147 35.099964 -4.686111
v -40.573708 35.313878 -4.26009
v -40.584749 37.755006 -5.269835
v -40.11047 38.080648 -4.910204
v -39.433153 38.085082 -4.905306
v -38.94956 37.765713 -5.258011
v -38.942974 37.309621 -5.761708
v -39.417253 36.983979 -6.121339
v -40.094571 36.979545 -6.126237
v -40.578164 37.298914 -5.773532
v -40.58228 40.208795 -7.870526
v -40.104435 40.511707 -7.491864
v -39.427087 40.446476 -7.420196
v -38.947017 40.051315 -7.697504
v -38.945444 39.557704 -8.161345
v -39.423289 39.254792 -8.540006
v -40.100636 39.320023 -8.611674
v -40.580706 39.715184 -8.334366
v -38.98221 43.967183 -11.902622
v -38.572618 44.154841 -11.381296
v -37.974481 43.919081 -11.099364
v -37.53818 43.398007 -11.221978
v -37.519293 42.896858 -11.677313
v -37.928885 42.7092 -12.198639
v -38.527021 42.944961 -12.480571
v -38.963323 43.466034 -12.357957
v -35.266692 46.345531 -14.485346
v -35.046646 46.446344 -13.842694
v -34.710021 46.065259 -13.362928
v -34.454008 45.42551 -13.327088
v -34.428576 44.901854 -13.75617
v -34.648622 44.801041 -14.398822
v -34.985247 45.182126 -14.878588
v -35.24126 45.821875 -14.914427
v -30.282858 47.219913 -15.441077
v -30.228052 47.305804 -14.769195
v -30.142247 46.891445 -14.233369
v -30.075708 46.219563 -14.147478
v -30.067411 45.683737 -14.561836
v -30.122217 45.597846 -15.233718
v -30.208022 46.012204 -15.769544
v -30.274561 46.684086 -15.855435
v 40.606421 21.826526 -8.049298
v 40.168173 21.578998 -7.596008
v 39.493086 21.552488 -7.547462
v 38.976615 21.762526 -7.932098
v 38.921303 22.086075 -8.5246
v 39.35955 22.333603 -8.97789
v 40.034638 22.360112 -9.026436
v 40.551108 22.150074 -8.641801
v -40.168173 21.578998 -7.596008
v -38.976615 21.762526 -7.932098
v 0 47.218928 -15.442793
v 0 47.306321 -14.771105
v 0 46.893162 -14.234353
v 0 46.221473 -14.146961
v 0 45.684722 -14.56012
v 0 45.597329 -15.231808
v 0 46.010488 -15.768559
v 0 46.682176 -15.855952
v -42.26662 5.136524 15.781198
v 42.26662 5.136524 15.781198
v -40.884668 2.492587 15.781198
v 40.884668 2.492587 15.781198
v -40.884668 3.266978 13.911652
v 40.884668 3.266978 13.911652
v -40.884668 5.136524 13.13726
v 40.884668 5.136524 13.13726
v -40.884668 7.00607 13.911652
v 40.884668 7.00607 13.911652
v -40.884668 7.780462 15.781198
v 40.884668 7.780462 15.781198
v -40.884668 7.00607 17.650744
v 40.884668 7.00607 17.650744
v -40.884668 5.136524 18.425135
v 40.884668 5.136524 18.425135
v -40.884668 3.266978 17.650744
v 40.884668 3.266978 17.650744
v -42.26662 3.671461 15.781198
v -42.26662 4.100568 14.745242
v -42.26662 5.136524 14.316134
v -42.26662 6.17248 14.745242
v -42.26662 6.601587 15.781198
v -42.26662 6.17248 16.817154
v -42.26662 5.136524 17.246261
v -42.26662 4.100568 16.817154
v 42.26662 3.671461 15.781198
v 42.26662 4.100568 14.745242
v 42.26662 5.136524 14.316134
v 42.26662 6.17248 14.745242
v 42.26662 6.601587 15.781198
v 42.26662 6.17248 16.817154
v 42.26662 5.136524 17.246261
v 42.26662 4.100568 16.817154
v 40.449057 2.450454 4.663628
v 41.257335 2.856681 4.657881
v 41.543976 3.720173 4.645666
v 41.141068 4.53511 4.634138
v 40.28463 4.824111 4.63005
v 39.476352 4.417885 4.635796
v 39.189711 3.554392 4.648011
v 39.592619 2.739456 4.659539
v 40.443108 3.021551 -0.303917
v 41.253412 3.405879 -0.155099
v 41.544376 4.229794 0.163933
v 41.145558 5.010657 0.466294
v 40.290579 5.29105 0.574866
v 39.480275 4.906721 0.426049
v 39.189311 4.082806 0.107017
v 39.588129 3.301943 -0.195345
v 40.436567 4.67126 -2.594395
v 41.249074 4.953264 -2.311262
v 41.544782 5.563562 -1.698518
v 41.15047 6.14465 -1.115102
v 40.29712 6.356134 -0.90277
v 39.484613 6.07413 -1.185904
v 39.188905 5.463832 -1.798648
v 39.583217 4.882744 -2.382064
v 40.434774 7.019801 -4.272339
v 41.24788 7.227612 -3.937721
v 41.544887 7.67852 -3.211663
v 41.151811 8.108392 -2.51948
v 40.298913 8.265413 -2.266644
v 39.485807 8.057602 -2.601262
v 39.1888 7.606693 -3.32732
v 39.581876 7.176822 -4.019503
v 40.433518 30.639635 -16.906145
v 41.247043 30.779991 -16.536431
v 41.544958 31.085096 -15.732745
v 41.15275 31.376224 -14.965877
v 40.300169 31.482836 -14.685047
v 39.486644 31.34248 -15.054761
v 39.188729 31.037375 -15.858447
v 39.580937 30.746247 -16.625315
v 40.428702 38.584733 -18.804398
v 41.243823 38.576639 -18.402643
v 41.545221 38.558919 -17.523098
v 41.156342 38.541954 -16.680988
v 40.304985 38.535681 -16.369611
v 39.489864 38.543775 -16.771366
v 39.188466 38.561494 -17.650911
v 39.577345 38.57846 -18.49302
v 40.423403 42.859585 -17.599548
v 41.240264 42.694168 -17.245955
v 41.545487 42.329164 -16.465731
v 41.160277 41.978388 -15.715918
v 40.310284 41.84732 -15.435748
v 39.493423 42.012736 -15.78934
v 39.1882 42.37774 -16.569565
v 39.57341 42.728516 -17.319378
v 40.421953 46.748061 -14.937296
v 41.239288 46.510573 -14.634267
v 41.545556 45.985404 -13.964159
v 41.16135 45.480189 -13.319514
v 40.311734 45.290877 -13.077954
v 39.494399 45.528364 -13.380984
v 39.188131 46.053533 -14.051092
v 39.572337 46.558748 -14.695737
v 40.422374 59.464534 -3.577856
v 41.239571 59.295568 -3.213227
v 41.545536 58.762128 -2.55036
v 41.161039 58.176698 -1.977554
v 40.311313 57.882213 -1.83035
v 39.494116 58.051179 -2.194979
v 39.188151 58.584619 -2.857846
v 39.572648 59.17005 -3.430653
v 38.488777 64.414679 0.844352
v 39.209331 64.485865 1.42811
v 39.476489 64.041146 2.171945
v 39.133755 63.341031 2.640127
v 38.381896 62.795638 2.558403
v 37.661342 62.724451 1.974645
v 37.394183 63.16917 1.230811
v 37.736918 63.869286 0.762628
v 34.125866 67.482583 3.58553
v 34.530841 67.767789 4.368855
v 34.678285 67.398771 5.183395
v 34.481827 66.591696 5.552002
v 34.056549 65.819337 5.258753
v 33.651573 65.534131 4.475428
v 33.504129 65.903149 3.660889
v 33.700588 66.710224 3.292281
v 28.136212 68.642126 4.621761
v 28.239401 68.981799 5.458583
v 28.276568 68.630261 6.290491
v 28.225942 67.793439 6.630164
v 28.117177 66.961532 6.278626
v 28.013988 66.621859 5.441804
v 27.97682 66.973396 4.609896
v 28.027447 67.810218 4.270224
v 0 66.621863 5.441202
v -40.283948 6.662044 17.410431
v -39.475903 6.262776 17.467851
v -39.593135 4.615079 17.704811
v -40.449057 2.450454 4.663628
v -41.257335 2.856681 4.657881
v -41.543976 3.720173 4.645666
v -41.141068 4.53511 4.634138
v -40.28463 4.824111 4.63005
v -39.476352 4.417885 4.635796
v -39.189711 3.554392 4.648011
v -39.592619 2.739456 4.659539
v -40.443108 3.021551 -0.303917
v -41.253412 3.405879 -0.155099
v -41.544376 4.229794 0.163933
v -41.145558 5.010657 0.466294
v -40.290579 5.29105 0.574866
v -39.480275 4.906721 0.426049
v -39.189311 4.082806 0.107017
v -39.588129 3.301943 -0.195345
v -40.436567 4.67126 -2.594395
v -41.249074 4.953264 -2.311262
v -41.544782 5.563562 -1.698518
v -41.15047 6.14465 -1.115102
v -40.29712 6.356134 -0.90277
v -39.484613 6.07413 -1.185904
v -39.188905 5.463832 -1.798648
v -39.583217 4.882744 -2.382064
v -40.434774 7.019801 -4.272339
v -41.24788 7.227612 -3.937721
v -41.544887 7.67852 -3.211663
v -41.151811 8.108392 -2.51948
v -40.298913 8.265413 -2.266644
v -39.485807 8.057602 -2.601262
v -39.1888 7.606693 -3.32732
v -39.581876 7.176822 -4.019503
v -40.433518 30.639635 -16.906145
v -41.247043 30.779991 -16.536431
v -41.544958 31.085096 -15.732745
v -41.15275 31.376224 -14.965877
v -40.300169 31.482836 -14.685047
v -39.486644 31.34248 -15.054761
v -39.188729 31.037375 -15.858447
v -39.580937 30.746247 -16.625315
v -40.428702 38.584733 -18.804398
v -41.243823 38.576639 -18.402643
v -41.545221 38.558919 -17.523098
v -41.156342 38.541954 -16.680988
v -40.304985 38.535681 -16.369611
v -39.489864 38.543775 -16.771366
v -39.188466 38.561494 -17.650911
v -39.577345 38.57846 -18.49302
v -40.423403 42.859585 -17.599548
v -41.240264 42.694168 -17.245955
v -41.545487 42.329164 -16.465731
v -41.160277 41.978388 -15.715918
v -40.310284 41.84732 -15.435748
v -39.493423 42.012736 -15.78934
v -39.1882 42.37774 -16.569565
v -39.57341 42.728516 -17.319378
v -40.421953 46.748061 -14.937296
v -41.239288 46.510573 -14.634267
v -41.545556 45.985404 -13.964159
v -41.16135 45.480189 -13.319514
v -40.311734 45.290877 -13.077954
v -39.494399 45.528364 -13.380984
v -39.188131 46.053533 -14.051092
v -39.572337 46.558748 -14.695737
v -40.422374 59.464534 -3.577856
v -41.239571 59.295568 -3.213227
v -41.545536 58.762128 -2.55036
v -41.161039 58.176698 -1.977554
v -40.311313 57.882213 -1.83035
v -39.494116 58.051179 -2.194979
v -39.188151 58.584619 -2.857846
v -39.572648 59.17005 -3.430653
v -38.488777 64.414679 0.844352
v -39.209331 64.485865 1.42811
v -39.476489 64.041146 2.171945
v -39.133755 63.341031 2.640127
v -38.381896 62.795638 2.558403
v -37.661342 62.724451 1.974645
v -37.394183 63.16917 1.230811
v -37.736918 63.869286 0.762628
v -34.125866 67.482583 3.58553
v -34.530841 67.767789 4.368855
v -34.678285 67.398771 5.183395
v -34.481827 66.591696 5.552002
v -34.056549 65.819337 5.258753
v -33.651573 65.534131 4.475428
v -33.504129 65.903149 3.660889
v -33.700588 66.710224 3.292281
v -28.136212 68.642126 4.621761
v -28.239401 68.981799 5.458583
v -28.276568 68.630261 6.290491
v -28.225942 67.793439 6.630164
v -28.117177 66.961532 6.278626
v -28.013988 66.621859 5.441804
v -27.97682 66.973396 4.609896
v -28.027447 67.810218 4.270224
v 40.449739 4.331848 17.745543
v 41.257784 4.731117 17.688123
v 41.543928 5.578997 17.566187
v 41.140552 6.378814 17.451163
v 40.283948 6.662044 17.410431
v 39.475903 6.262776 17.467851
v 39.189759 5.414895 17.589787
v 39.593135 4.615079 17.704811
v -40.449739 4.331848 17.745543
v -41.257784 4.731117 17.688123
v -41.543928 5.578997 17.566187
v -41.140552 6.378814 17.451163
v -39.189759 5.414895 17.589787
v 0 68.642549 4.62219
v 0 68.981795 5.459185
v 0 68.629833 6.290914
v 0 67.792837 6.630159
v 0 66.961109 6.278197
v 0 66.973825 4.609474
v 0 67.81082 4.270228
v -42.26662 22.361017 -8.068584
v 42.26662 22.361017 -8.068584
v -40.884668 19.717079 -8.068584
v 40.884668 19.717079 -8.068584
v -40.884668 20.491471 -9.93813
v 40.884668 20.491471 -9.93813
v -40.884668 22.361017 -10.712522
v 40.884668 22.361017 -10.712522
v -40.884668 24.230563 -9.93813
v 40.884668 24.230563 -9.93813
v -40.884668 25.004954 -8.068584
v 40.884668 25.004954 -8.068584
v -40.884668 24.230563 -6.199038
v 40.884668 24.230563 -6.199038
v -40.884668 22.361017 -5.424647
v 40.884668 22.361017 -5.424647
v -40.884668 20.491471 -6.199038
v 40.884668 20.491471 -6.199038
v -42.26662 20.895954 -8.068584
v -42.26662 21.325061 -9.104541
v -42.26662 22.361017 -9.533648
v -42.26662 23.396973 -9.104541
v -42.26662 23.82608 -8.068584
v -42.26662 23.396973 -7.032628
v -42.26662 22.361017 -6.603521
v -42.26662 21.325061 -7.032628
v 42.26662 20.895954 -8.068584
v 42.26662 21.325061 -9.104541
v 42.26662 22.361017 -9.533648
v 42.26662 23.396973 -9.104541
v 42.26662 23.82608 -8.068584
v 42.26662 23.396973 -7.032628
v 42.26662 22.361017 -6.603521
v 42.26662 21.325061 -7.032628
v 0 25.325656 -10.14084
v 38.692094 5.715153 0.653132
v 38.692094 8.271799 16.767749
v 38.692094 7.274821 18.181964
v 38.692094 3.955176 18.804398
v 38.692094 2.603376 17.831486
v 38.692094 0.000023 -0.944209
v 0 26.322948 -5.271708
v 38.692094 6.714038 -0.750658
v 38.692094 1.020915 -2.358884
v 38.692094 19.813955 -5.833228
v 0 20.350979 -8.491041
v 0 20.595129 -6.921507
v 38.692094 25.771187 -4.150896
v 38.692094 24.302473 -11.362778
v 38.692094 25.689418 -10.562189
v 38.692094 26.717024 -5.54505
v 38.692094 20.815098 -7.244999
v 38.692094 20.563527 -8.86224
v 38.692094 21.522852 -10.436238
v 0 0.394099 -0.806591
v 0 2.920653 17.415221
v 0 4.232575 18.359432
v 0 7.454291 17.75536
v 0 8.421857 16.382864
v 0 5.940632 0.743628
v 0 6.91005 -0.61875
v 0 25.405013 -3.918681
v 0 19.62352 -5.551384
v 0 1.384874 -2.179534
v 0 23.979627 -10.917812
v 0 21.282005 -10.018605
v -38.692094 5.715153 0.653132
v -38.692094 8.271799 16.767749
v -38.692094 7.274821 18.181964
v -38.692094 3.955176 18.804398
v -38.692094 2.603376 17.831486
v -38.692094 0.000023 -0.944209
v -38.692094 6.714038 -0.750658
v -38.692094 1.020915 -2.358884
v -38.692094 19.813955 -5.833228
v -38.692094 25.771187 -4.150896
v -38.692094 24.302473 -11.362778
v -38.692094 25.689418 -10.562189
v -38.692094 26.717024 -5.54505
v -38.692094 20.815098 -7.244999
v -38.692094 20.563527 -8.86224
v -38.692094 21.522852 -10.436238
v 19.346047 0.394099 -0.806591
v 19.346047 2.920653 17.415221
v 19.346047 4.232575 18.359432
v 19.346047 7.454291 17.75536
v 19.346047 8.421857 16.382864
v 19.346047 5.940632 0.743628
v 19.346047 6.91005 -0.61875
v 19.346047 25.405013 -3.918681
v 19.346047 26.322948 -5.271708
v 19.346047 25.325656 -10.14084
v 19.346047 23.979627 -10.917812
v 19.346047 21.282005 -10.018605
v 19.346047 20.350979 -8.491041
v 19.346047 20.595129 -6.921507
v 19.346047 19.62352 -5.551384
v 19.346047 1.384874 -2.179534
v -19.346047 2.920653 17.415221
v -19.346047 0.394099 -0.806591
v -19.346047 1.384874 -2.179534
v -19.346047 19.62352 -5.551384
v -19.346047 20.595129 -6.921507
v -19.346047 20.350979 -8.491041
v -19.346047 21.282005 -10.018605
v -19.346047 23.979627 -10.917812
v -19.346047 25.325656 -10.14084
v -19.346047 26.322948 -5.271708
v -19.346047 25.405013 -3.918681
v -19.346047 6.91005 -0.61875
v -19.346047 5.940632 0.743628
v -19.346047 8.421857 16.382864
v -19.346047 7.454291 17.75536
v -19.346047 4.232575 18.359432
v 18.701179 0.000023 -0.944209
v 0.644868 0.000023 -0.944209
v 18.701179 2.603376 17.831486
v 0.644868 2.603376 17.831486
v 18.701179 3.955176 18.804398
v 0.644868 3.955176 18.804398
v 18.701179 7.274821 18.181964
v 0.644868 7.274821 18.181964
v 18.701179 8.271799 16.767749
v 0.644868 8.271799 16.767749
v 18.701179 5.715153 0.653132
v 0.644868 5.715153 0.653132
v 18.701179 6.714038 -0.750658
v 0.644868 6.714038 -0.750658
v 18.701179 25.771187 -4.150896
v 0.644868 25.771187 -4.150896
v 18.701179 26.717024 -5.54505
v 0.644868 26.717024 -5.54505
v 18.701179 25.689418 -10.562189
v 0.644868 25.689418 -10.562189
v 18.701179 24.302473 -11.362778
v 0.644868 24.302473 -11.362778
v 18.701179 21.522852 -10.436238
v 0.644868 21.522852 -10.436238
v 18.701179 20.563527 -8.86224
v 0.644868 20.563527 -8.86224
v 18.701179 20.815098 -7.244999
v 0.644868 20.815098 -7.244999
v 18.701179 19.813955 -5.833228
v 0.644868 19.813955 -5.833228
v 18.701179 1.020915 -2.358884
v 0.644868 1.020915 -2.358884
v 19.990915 3.955176 18.804398
v 38.047226 3.955176 18.804398
v 19.990915 2.603376 17.831486
v 38.047226 2.603376 17.831486
v 19.990915 0.000023 -0.944209
v 38.047226 0.000023 -0.944209
v 19.990915 1.020915 -2.358884
v 38.047226 1.020915 -2.358884
v 19.990915 19.813955 -5.833228
v 38.047226 19.813955 -5.833228
v 19.990915 20.815098 -7.244999
v 38.047226 20.815098 -7.244999
v 19.990915 20.563527 -8.86224
v 38.047226 20.563527 -8.86224
v 19.990915 21.522852 -10.436238
v 38.047226 21.522852 -10.436238
v 19.990915 24.302473 -11.362778
v 38.047226 24.302473 -11.362778
v 19.990915 25.689418 -10.562189
v 38.047226 25.689418 -10.562189
v 19.990915 26.717024 -5.54505
v 38.047226 26.717024 -5.54505
v 19.990915 25.771187 -4.150896
v 38.047226 25.771187 -4.150896
v 19.990915 6.714038 -0.750658
v 38.047226 6.714038 -0.750658
v 19.990915 5.715153 0.653132
v 38.047226 5.715153 0.653132
v 19.990915 8.271799 16.767749
v 38.047226 8.271799 16.767749
v 19.990915 7.274821 18.181964
v 38.047226 7.274821 18.181964
v -18.701179 2.603376 17.831486
v -0.644868 2.603376 17.831486
v -18.701179 0.000023 -0.944209
v -0.644868 0.000023 -0.944209
v -18.701179 1.020915 -2.358884
v -0.644868 1.020915 -2.358884
v -18.701179 19.813955 -5.833228
v -0.644868 19.813955 -5.833228
v -18.701179 20.815098 -7.244999
v -0.644868 20.815098 -7.244999
v -18.701179 20.563527 -8.86224
v -0.644868 20.563527 -8.86224
v -18.701179 21.522852 -10.436238
v -0.644868 21.522852 -10.436238
v -18.701179 24.302473 -11.362778
v -0.644868 24.302473 -11.362778
v -18.701179 25.689418 -10.562189
v -0.644868 25.689418 -10.562189
v -18.701179 26.717024 -5.54505
v -0.644868 26.717024 -5.54505
v -18.701179 25.771187 -4.150896
v -0.644868 25.771187 -4.150896
v -18.701179 6.714038 -0.750658
v -0.644868 6.714038 -0.750658
v -18.701179 5.715153 0.653132
v -0.644868 5.715153 0.653132
v -18.701179 8.271799 16.767749
v -0.644868 8.271799 16.767749
v -18.701179 7.274821 18.181964
v -0.644868 7.274821 18.181964
v -18.701179 3.955176 18.804398
v -0.644868 3.955176 18.804398
v -19.990915 2.603376 17.831486
v -38.047226 2.603376 17.831486
v -19.990915 3.955176 18.804398
v -38.047226 3.955176 18.804398
v -19.990915 7.274821 18.181964
v -38.047226 7.274821 18.181964
v -19.990915 8.271799 16.767749
v -38.047226 8.271799 16.767749
v -19.990915 5.715153 0.653132
v -38.047226 5.715153 0.653132
v -19.990915 6.714038 -0.750658
v -38.047226 6.714038 -0.750658
v -19.990915 25.771187 -4.150896
v -38.047226 25.771187 -4.150896
v -19.990915 26.717024 -5.54505
v -38.047226 26.717024 -5.54505
v -19.990915 25.689418 -10.562189
v -38.047226 25.689418 -10.562189
v -19.990915 24.302473 -11.362778
v -38.047226 24.302473 -11.362778
v -19.990915 21.522852 -10.436238
v -38.047226 21.522852 -10.436238
v -19.990915 20.563527 -8.86224
v -38.047226 20.563527 -8.86224
v -19.990915 20.815098 -7.244999
v -38.047226 20.815098 -7.244999
v -19.990915 19.813955 -5.833228
v -38.047226 19.813955 -5.833228
v -19.990915 1.020915 -2.358884
v -38.047226 1.020915 -2.358884
v -19.990915 0.000023 -0.944209
v -38.047226 0.000023 -0.944209

vt 0.582852 0.707554 0
vt 0.574486 0.703833 0
vt 0.576196 0.707133 0
vt 0.576309 0.711435 0
vt 0.570603 0.706238 0
vt 0.572172 0.703455 0
vt 0.570708 0.710563 0
vt 0.573462 0.708842 0
vt 0.583857 0.702507 0
vt 0.585575 0.705835 0
vt 0.585702 0.710171 0
vt 0.579989 0.704925 0
vt 0.581546 0.702123 0
vt 0.580109 0.709284 0
vt 0.576583 0.721901 0
vt 0.570964 0.721085 0
vt 0.586013 0.720719 0
vt 0.580401 0.71989 0
vt 0.584036 0.719429 0
vt 0.589644 0.720264 0
vt 0.599053 0.776236 0
vt 0.604748 0.77676 0
vt 0.589522 0.806387 0
vt 0.595277 0.806732 0
vt 0.569829 0.811748 0
vt 0.575608 0.812056 0
vt 0.58372 0.8111 0
vt 0.589489 0.811416 0
vt 0.58706 0.809763 0
vt 0.592823 0.810087 0
vt 0.596492 0.790226 0
vt 0.602213 0.790668 0
vt 0.598521 0.783463 0
vt 0.604229 0.783944 0
vt 0.597691 0.735231 0
vt 0.603317 0.735987 0
vt 0.593413 0.723338 0
vt 0.599021 0.724157 0
vt 0.576695 0.726183 0
vt 0.571069 0.725391 0
vt 0.58614 0.725035 0
vt 0.580521 0.72423 0
vt 0.583509 0.723863 0
vt 0.589126 0.724672 0
vt 0.595632 0.776171 0
vt 0.60133 0.776693 0
vt 0.586815 0.803547 0
vt 0.592567 0.803908 0
vt 0.569723 0.807201 0
vt 0.575495 0.807535 0
vt 0.58317 0.80652 0
vt 0.588931 0.806862 0
vt 0.585269 0.805671 0
vt 0.591026 0.806019 0
vt 0.593421 0.78822 0
vt 0.599141 0.788671 0
vt 0.595169 0.782395 0
vt 0.600878 0.782881 0
vt 0.594359 0.736488 0
vt 0.59999 0.737235 0
vt 0.590972 0.72701 0
vt 0.596589 0.727807 0
vt 0.60942 0.60813 0
vt 0.611533 0.624292 0
vt 0.635025 0.641589 0
vt 0.63535 0.63915 0
vt 0.615523 0.625411 0
vt 0.612915 0.607875 0
vt 0.611346 0.607708 0
vt 0.61347 0.623895 0
vt 0.636961 0.641229 0
vt 0.637283 0.638786 0
vt 0.617459 0.625018 0
vt 0.614839 0.607454 0
vt 0.522316 0.627208 0
vt 0.523952 0.642233 0
vt 0.547371 0.657925 0
vt 0.547783 0.655644 0
vt 0.527983 0.6432 0
vt 0.525887 0.626899 0
vt 0.520672 0.627568 0
vt 0.522298 0.642572 0
vt 0.545714 0.658234 0
vt 0.546127 0.655956 0
vt 0.52633 0.643536 0
vt 0.524243 0.627258 0
vt 0.623645 0.357998 0
vt 0.664927 0.35531 0
vt 0.624272 0.355551 0
vt 0.664191 0.35293 0
vt 0.624483 0.356728 0
vt 0.66434 0.354122 0
vt 0.624595 0.358619 0
vt 0.664434 0.356032 0
vt 0.624542 0.360122 0
vt 0.664418 0.357547 0
vt 0.624355 0.360359 0
vt 0.664302 0.357781 0
vt 0.624144 0.359185 0
vt 0.664152 0.356592 0
vt 0.624031 0.357286 0
vt 0.664057 0.354674 0
vt 0.624085 0.35578 0
vt 0.664073 0.353156 0
vt 0.623622 0.356666 0
vt 0.62374 0.357318 0
vt 0.623802 0.358367 0
vt 0.623773 0.3592 0
vt 0.623668 0.35933 0
vt 0.62355 0.358679 0
vt 0.623488 0.357628 0
vt 0.623518 0.356794 0
vt 0.664896 0.353967 0
vt 0.664979 0.354627 0
vt 0.665031 0.355686 0
vt 0.665022 0.356526 0
vt 0.664958 0.356655 0
vt 0.664876 0.355995 0
vt 0.664824 0.354934 0
vt 0.664832 0.354093 0
vt 0.642149 0.354378 0
vt 0.592778 0.712954 0
vt 0.64613 0.354116 0
vt 0.595118 0.712646 0
vt 0.642333 0.355561 0
vt 0.593664 0.713654 0
vt 0.646307 0.355301 0
vt 0.596004 0.713348 0
vt 0.642437 0.357461 0
vt 0.594067 0.715073 0
vt 0.646409 0.357203 0
vt 0.596407 0.71477 0
vt 0.642401 0.358969 0
vt 0.593751 0.716382 0
vt 0.646377 0.358712 0
vt 0.596093 0.716082 0
vt 0.642245 0.359204 0
vt 0.592901 0.716815 0
vt 0.646228 0.358947 0
vt 0.595244 0.716515 0
vt 0.642061 0.358024 0
vt 0.592013 0.716115 0
vt 0.64605 0.357765 0
vt 0.594356 0.715814 0
vt 0.641956 0.356116 0
vt 0.591609 0.714692 0
vt 0.645948 0.355856 0
vt 0.593951 0.714388 0
vt 0.641993 0.354605 0
vt 0.591927 0.713383 0
vt 0.645981 0.354344 0
vt 0.594267 0.713076 0
vt 0.605217 0.359198 0
vt 0.565063 0.361812 0
vt 0.604519 0.356849 0
vt 0.565691 0.359398 0
vt 0.604761 0.358018 0
vt 0.565991 0.360553 0
vt 0.604881 0.3599 0
vt 0.566128 0.362416 0
vt 0.604811 0.361397 0
vt 0.566022 0.363902 0
vt 0.604589 0.361634 0
vt 0.565735 0.364142 0
vt 0.604347 0.360468 0
vt 0.565433 0.36299 0
vt 0.604226 0.358579 0
vt 0.565296 0.361119 0
vt 0.604298 0.357079 0
vt 0.565403 0.359631 0
vt 0.605197 0.357872 0
vt 0.605331 0.358519 0
vt 0.605398 0.359563 0
vt 0.605358 0.360393 0
vt 0.605236 0.360524 0
vt 0.605103 0.359877 0
vt 0.605036 0.358831 0
vt 0.605075 0.358 0
vt 0.565051 0.360498 0
vt 0.565218 0.361137 0
vt 0.565294 0.36217 0
vt 0.565235 0.362994 0
vt 0.565075 0.363126 0
vt 0.564907 0.362488 0
vt 0.564831 0.361452 0
vt 0.56489 0.360628 0
vt 0.586953 0.358002 0
vt 0.560855 0.717146 0
vt 0.583081 0.358256 0
vt 0.558652 0.717436 0
vt 0.587221 0.359165 0
vt 0.561738 0.717825 0
vt 0.583356 0.359418 0
vt 0.559534 0.718112 0
vt 0.587349 0.361038 0
vt 0.562127 0.719205 0
vt 0.583485 0.361289 0
vt 0.559922 0.71949 0
vt 0.587263 0.36253 0
vt 0.561794 0.720481 0
vt 0.583395 0.36278 0
vt 0.559589 0.720764 0
vt 0.587011 0.362769 0
vt 0.560934 0.720906 0
vt 0.583137 0.363019 0
vt 0.558727 0.721188 0
vt 0.586742 0.361609 0
vt 0.560048 0.720229 0
vt 0.582862 0.361861 0
vt 0.557842 0.720512 0
vt 0.586613 0.359728 0
vt 0.559659 0.718845 0
vt 0.582731 0.359982 0
vt 0.557454 0.719131 0
vt 0.586701 0.358233 0
vt 0.559993 0.717568 0
vt 0.582823 0.358488 0
vt 0.557789 0.717857 0
vt 0.613819 0.68097 0
vt 0.613218 0.681447 0
vt 0.613229 0.682368 0
vt 0.613845 0.683196 0
vt 0.614706 0.683446 0
vt 0.615308 0.68297 0
vt 0.615298 0.682047 0
vt 0.614681 0.681219 0
vt 0.598608 0.691516 0
vt 0.598026 0.691981 0
vt 0.598094 0.692883 0
vt 0.598771 0.693694 0
vt 0.599663 0.69394 0
vt 0.600246 0.693477 0
vt 0.600179 0.692574 0
vt 0.5995 0.691762 0
vt 0.594635 0.696257 0
vt 0.594129 0.69663 0
vt 0.594384 0.697314 0
vt 0.59525 0.697909 0
vt 0.596221 0.698067 0
vt 0.596729 0.697696 0
vt 0.596475 0.697011 0
vt 0.595607 0.696415 0
vt 0.593441 0.704268 0
vt 0.592957 0.704481 0
vt 0.59327 0.70479 0
vt 0.594195 0.705013 0
vt 0.595192 0.705021 0
vt 0.595678 0.704808 0
vt 0.595367 0.704499 0
vt 0.59444 0.704275 0
vt 0.593325 0.713991 0
vt 0.592839 0.714156 0
vt 0.593154 0.71436 0
vt 0.594084 0.714484 0
vt 0.595085 0.714455 0
vt 0.564711 0.696573 0
vt 0.565557 0.696814 0
vt 0.566211 0.697603 0
vt 0.566287 0.698478 0
vt 0.565743 0.698924 0
vt 0.564897 0.698682 0
vt 0.564245 0.697894 0
vt 0.564168 0.69702 0
vt 0.560651 0.701204 0
vt 0.561578 0.70136 0
vt 0.562424 0.701938 0
vt 0.562692 0.702599 0
vt 0.562225 0.702956 0
vt 0.561299 0.7028 0
vt 0.560454 0.702223 0
vt 0.560186 0.701562 0
vt 0.559349 0.708999 0
vt 0.560305 0.709008 0
vt 0.561215 0.709225 0
vt 0.561545 0.70952 0
vt 0.561102 0.709723 0
vt 0.560148 0.709713 0
vt 0.55924 0.709498 0
vt 0.558908 0.709202 0
vt 0.580174 0.686226 0
vt 0.580991 0.686471 0
vt 0.581582 0.687277 0
vt 0.581601 0.688172 0
vt 0.581037 0.68863 0
vt 0.580221 0.688385 0
vt 0.57963 0.687579 0
vt 0.579611 0.686686 0
vt 0.595572 0.71429 0
vt 0.595259 0.714086 0
vt 0.594328 0.713962 0
vt 0.559111 0.718452 0
vt 0.560072 0.718426 0
vt 0.560987 0.718544 0
vt 0.56132 0.718739 0
vt 0.560877 0.718894 0
vt 0.559919 0.718921 0
vt 0.559005 0.718802 0
vt 0.55867 0.718608 0
vt 0.633742 0.649397 0
vt 0.632733 0.649103 0
vt 0.63186 0.649211 0
vt 0.631635 0.649657 0
vt 0.632188 0.650181 0
vt 0.633195 0.650475 0
vt 0.634068 0.650368 0
vt 0.634295 0.649922 0
vt 0.633092 0.655142 0
vt 0.632043 0.655141 0
vt 0.631179 0.655279 0
vt 0.631005 0.655474 0
vt 0.631622 0.655612 0
vt 0.632668 0.655613 0
vt 0.633532 0.655475 0
vt 0.633708 0.65528 0
vt 0.633868 0.65896 0
vt 0.632887 0.659307 0
vt 0.632045 0.659457 0
vt 0.631836 0.659323 0
vt 0.632381 0.658984 0
vt 0.63336 0.658638 0
vt 0.634201 0.658487 0
vt 0.634413 0.65862 0
vt 0.635559 0.662562 0
vt 0.634659 0.663084 0
vt 0.633824 0.66323 0
vt 0.633544 0.662914 0
vt 0.633981 0.662323 0
vt 0.634878 0.661802 0
vt 0.635712 0.661656 0
vt 0.635995 0.66197 0
vt 0.638194 0.666851 0
vt 0.637271 0.667334 0
vt 0.636368 0.667357 0
vt 0.636013 0.666906 0
vt 0.636413 0.666246 0
vt 0.637333 0.665763 0
vt 0.638236 0.66574 0
vt 0.638593 0.66619 0
vt 0.6403 0.673717 0
vt 0.639323 0.673983 0
vt 0.638308 0.673684 0
vt 0.637851 0.672997 0
vt 0.638219 0.672325 0
vt 0.639195 0.672061 0
vt 0.640208 0.672359 0
vt 0.640667 0.673044 0
vt 0.638353 0.678554 0
vt 0.637491 0.678628 0
vt 0.636604 0.67802 0
vt 0.636213 0.677088 0
vt 0.636546 0.676378 0
vt 0.637408 0.676305 0
vt 0.638293 0.676911 0
vt 0.638685 0.677843 0
vt 0.633268 0.680993 0
vt 0.632579 0.681009 0
vt 0.631945 0.680297 0
vt 0.631738 0.679275 0
vt 0.632079 0.678542 0
vt 0.632768 0.678528 0
vt 0.6334 0.679239 0
vt 0.633608 0.68026 0
vt 0.545842 0.656187 0
vt 0.546516 0.655489 0
vt 0.548051 0.656313 0
vt 0.548031 0.656833 0
vt 0.547376 0.657011 0
vt 0.54647 0.656744 0
vt 0.542103 0.665895 0
vt 0.542091 0.665457 0
vt 0.542747 0.665293 0
vt 0.543686 0.6655 0
vt 0.544357 0.665956 0
vt 0.544367 0.666394 0
vt 0.543711 0.666557 0
vt 0.542773 0.666351 0
vt 0.541258 0.671242 0
vt 0.541226 0.671077 0
vt 0.541895 0.670947 0
vt 0.542874 0.670928 0
vt 0.543587 0.671031 0
vt 0.543616 0.671196 0
vt 0.542947 0.671325 0
vt 0.54197 0.671345 0
vt 0.541946 0.674772 0
vt 0.54201 0.674925 0
vt 0.542706 0.674811 0
vt 0.543625 0.674495 0
vt 0.544228 0.674164 0
vt 0.544161 0.674011 0
vt 0.543466 0.674126 0
vt 0.542549 0.674441 0
vt 0.543561 0.678087 0
vt 0.543719 0.678403 0
vt 0.544424 0.678289 0
vt 0.545263 0.677811 0
vt 0.545744 0.677251 0
vt 0.545585 0.676936 0
vt 0.54488 0.677051 0
vt 0.544042 0.677528 0
vt 0.546115 0.682026 0
vt 0.54626 0.682309 0
vt 0.5469 0.682086 0
vt 0.547661 0.681489 0
vt 0.548095 0.680868 0
vt 0.547949 0.680586 0
vt 0.547309 0.680809 0
vt 0.54655 0.681405 0
vt 0.551739 0.687781 0
vt 0.551678 0.687893 0
vt 0.552033 0.68741 0
vt 0.552597 0.686615 0
vt 0.553037 0.685975 0
vt 0.553097 0.685865 0
vt 0.552741 0.686349 0
vt 0.552179 0.687142 0
vt 0.558183 0.690982 0
vt 0.55781 0.690984 0
vt 0.5577 0.690305 0
vt 0.55792 0.689343 0
vt 0.558339 0.688662 0
vt 0.558712 0.688662 0
vt 0.558821 0.689341 0
vt 0.558602 0.690302 0
vt 0.564428 0.69157 0
vt 0.563853 0.691574 0
vt 0.563424 0.690877 0
vt 0.563392 0.689888 0
vt 0.563777 0.689187 0
vt 0.564352 0.689186 0
vt 0.56478 0.689882 0
vt 0.564812 0.69087 0
vt 0.637054 0.639022 0
vt 0.636079 0.638647 0
vt 0.635213 0.638751 0
vt 0.634962 0.639272 0
vt 0.635472 0.639904 0
vt 0.636445 0.640279 0
vt 0.637311 0.640176 0
vt 0.637564 0.639656 0
vt 0.545861 0.655668 0
vt 0.547423 0.655756 0
vt 0.597828 0.686438 0
vt 0.597199 0.686449 0
vt 0.596672 0.685746 0
vt 0.596557 0.684741 0
vt 0.59692 0.684023 0
vt 0.597549 0.684013 0
vt 0.598074 0.684715 0
vt 0.59819 0.685719 0
vt 0.520788 0.628219 0
vt 0.615199 0.607599 0
vt 0.52218 0.624209 0
vt 0.613363 0.603982 0
vt 0.524027 0.625716 0
vt 0.615227 0.605646 0
vt 0.52481 0.628502 0
vt 0.616094 0.608663 0
vt 0.524072 0.630946 0
vt 0.615458 0.611277 0
vt 0.52224 0.631618 0
vt 0.613684 0.61196 0
vt 0.520383 0.630113 0
vt 0.611809 0.610298 0
vt 0.519597 0.627312 0
vt 0.610939 0.607264 0
vt 0.520344 0.624866 0
vt 0.611585 0.604648 0
vt 0.520773 0.62617 0
vt 0.521797 0.627004 0
vt 0.522231 0.628547 0
vt 0.52182 0.6299 0
vt 0.520804 0.630271 0
vt 0.519776 0.629438 0
vt 0.519342 0.62789 0
vt 0.519755 0.626536 0
vt 0.615109 0.605388 0
vt 0.616143 0.606311 0
vt 0.616625 0.607987 0
vt 0.616272 0.609438 0
vt 0.61529 0.609814 0
vt 0.614252 0.608892 0
vt 0.613769 0.60721 0
vt 0.614125 0.605759 0
vt 0.623537 0.606982 0
vt 0.624544 0.607376 0
vt 0.624959 0.608592 0
vt 0.624536 0.609916 0
vt 0.623525 0.61057 0
vt 0.622519 0.610172 0
vt 0.622107 0.608957 0
vt 0.622528 0.607637 0
vt 0.628272 0.609124 0
vt 0.629135 0.609446 0
vt 0.629241 0.610513 0
vt 0.628527 0.611698 0
vt 0.627412 0.612307 0
vt 0.62655 0.611981 0
vt 0.626447 0.610915 0
vt 0.62716 0.609733 0
vt 0.630531 0.612159 0
vt 0.631264 0.612298 0
vt 0.631087 0.612972 0
vt 0.630102 0.613787 0
vt 0.628886 0.614265 0
vt 0.628155 0.614124 0
vt 0.628335 0.613449 0
vt 0.629319 0.612636 0
vt 0.632264 0.616066 0
vt 0.632946 0.616086 0
vt 0.632656 0.616499 0
vt 0.63156 0.617063 0
vt 0.630303 0.617447 0
vt 0.629623 0.617425 0
vt 0.629917 0.617011 0
vt 0.63101 0.616449 0
vt 0.645726 0.654247 0
vt 0.646388 0.654207 0
vt 0.646033 0.654432 0
vt 0.644866 0.654791 0
vt 0.643573 0.655073 0
vt 0.642914 0.655112 0
vt 0.643272 0.654887 0
vt 0.644436 0.654529 0
vt 0.648082 0.666613 0
vt 0.64871 0.666357 0
vt 0.648266 0.666093 0
vt 0.647008 0.665976 0
vt 0.645676 0.666075 0
vt 0.645052 0.666332 0
vt 0.645499 0.666596 0
vt 0.646754 0.666712 0
vt 0.647294 0.672858 0
vt 0.647957 0.672378 0
vt 0.647581 0.67161 0
vt 0.646384 0.671004 0
vt 0.645069 0.670916 0
vt 0.644409 0.671398 0
vt 0.644788 0.672165 0
vt 0.645982 0.672769 0
vt 0.645118 0.678277 0
vt 0.645824 0.6777 0
vt 0.645535 0.676709 0
vt 0.64442 0.675885 0
vt 0.643134 0.675712 0
vt 0.64243 0.676291 0
vt 0.642721 0.677281 0
vt 0.643833 0.678103 0
vt 0.635318 0.695903 0
vt 0.635973 0.69543 0
vt 0.635678 0.694421 0
vt 0.634605 0.693469 0
vt 0.633385 0.693132 0
vt 0.632733 0.693607 0
vt 0.63303 0.694614 0
vt 0.6341 0.695564 0
vt 0.628994 0.703269 0
vt 0.629328 0.703161 0
vt 0.628906 0.702286 0
vt 0.627974 0.701156 0
vt 0.62708 0.700437 0
vt 0.62675 0.700548 0
vt 0.627173 0.701422 0
vt 0.628101 0.702548 0
vt 0.621118 0.708391 0
vt 0.620869 0.708649 0
vt 0.620227 0.707906 0
vt 0.619569 0.706598 0
vt 0.619282 0.705494 0
vt 0.619533 0.70524 0
vt 0.620174 0.705983 0
vt 0.62083 0.707287 0
vt 0.612817 0.711023 0
vt 0.612139 0.711409 0
vt 0.611342 0.710715 0
vt 0.610894 0.709346 0
vt 0.611059 0.708108 0
vt 0.611737 0.707726 0
vt 0.612532 0.708421 0
vt 0.612979 0.709785 0
vt 0.578539 0.712164 0
vt 0.521237 0.629549 0
vt 0.52201 0.628793 0
vt 0.521636 0.626451 0
vt 0.533459 0.626563 0
vt 0.53264 0.627308 0
vt 0.532371 0.628569 0
vt 0.53281 0.629612 0
vt 0.5337 0.629825 0
vt 0.534521 0.629081 0
vt 0.53479 0.627816 0
vt 0.53435 0.626773 0
vt 0.538243 0.628456 0
vt 0.537275 0.629131 0
vt 0.536686 0.630262 0
vt 0.53682 0.631187 0
vt 0.537602 0.631364 0
vt 0.538572 0.630687 0
vt 0.539162 0.629554 0
vt 0.539025 0.62863 0
vt 0.540466 0.631232 0
vt 0.539366 0.631736 0
vt 0.53849 0.632509 0
vt 0.538349 0.633099 0
vt 0.539029 0.633161 0
vt 0.540132 0.632656 0
vt 0.54101 0.631881 0
vt 0.541147 0.631291 0
vt 0.542111 0.634834 0
vt 0.54096 0.635223 0
vt 0.539973 0.635754 0
vt 0.539726 0.636116 0
vt 0.540367 0.636097 0
vt 0.541521 0.635707 0
vt 0.542511 0.635175 0
vt 0.542754 0.634813 0
vt 0.5546 0.670124 0
vt 0.55341 0.6704 0
vt 0.552352 0.670735 0
vt 0.552046 0.670932 0
vt 0.552673 0.670876 0
vt 0.553866 0.670599 0
vt 0.554925 0.670263 0
vt 0.555228 0.670067 0
vt 0.556602 0.681585 0
vt 0.555372 0.681644 0
vt 0.554231 0.68152 0
vt 0.553844 0.681285 0
vt 0.55444 0.681077 0
vt 0.555673 0.681017 0
vt 0.556816 0.681141 0
vt 0.5572 0.681377 0
vt 0.555592 0.687401 0
vt 0.554399 0.687245 0
vt 0.553334 0.68665 0
vt 0.55302 0.685965 0
vt 0.553641 0.68559 0
vt 0.554837 0.685746 0
vt 0.555904 0.686342 0
vt 0.556216 0.687028 0
vt 0.553181 0.692471 0
vt 0.55203 0.692217 0
vt 0.551059 0.691413 0
vt 0.550837 0.690527 0
vt 0.551494 0.690079 0
vt 0.552647 0.690332 0
vt 0.55362 0.691139 0
vt 0.553841 0.692025 0
vt 0.542562 0.708974 0
vt 0.541339 0.708796 0
vt 0.540358 0.707968 0
vt 0.540192 0.706973 0
vt 0.540941 0.706395 0
vt 0.542166 0.706572 0
vt 0.543149 0.707401 0
vt 0.543312 0.708397 0
vt 0.540385 0.715273 0
vt 0.539044 0.715398 0
vt 0.538017 0.714676 0
vt 0.537905 0.713529 0
vt 0.538775 0.71263 0
vt 0.540118 0.712505 0
vt 0.541146 0.713228 0
vt 0.541256 0.714375 0
vt 0.542413 0.718784 0
vt 0.541205 0.719153 0
vt 0.540229 0.718511 0
vt 0.540057 0.717232 0
vt 0.54079 0.716067 0
vt 0.541998 0.715699 0
vt 0.542973 0.716343 0
vt 0.543144 0.71762 0
vt 0.547898 0.71951 0
vt 0.546962 0.719914 0
vt 0.546084 0.719275 0
vt 0.54578 0.717966 0
vt 0.546229 0.716758 0
vt 0.547167 0.716357 0
vt 0.548042 0.716997 0
vt 0.548345 0.718302 0
vt 0.61103 0.606345 0
vt 0.612089 0.606748 0
vt 0.612606 0.607987 0
vt 0.612277 0.609334 0
vt 0.611296 0.609998 0
vt 0.610239 0.609592 0
vt 0.609724 0.608355 0
vt 0.610051 0.607011 0
vt 0.520709 0.626238 0
vt 0.519938 0.626994 0
vt 0.519773 0.628276 0
vt 0.52031 0.629334 0
vt 0.522175 0.627509 0
vt 0.579434 0.715388 0
vt 0.578619 0.715783 0
vt 0.577778 0.715117 0
vt 0.577407 0.713779 0
vt 0.577722 0.712555 0
vt 0.579377 0.712831 0
vt 0.579747 0.714165 0
vt 0.544152 0.65726 0
vt 0.639133 0.63945 0
vt 0.545525 0.653307 0
vt 0.637258 0.635799 0
vt 0.547314 0.654752 0
vt 0.639059 0.63739 0
vt 0.54809 0.657504 0
vt 0.639916 0.640367 0
vt 0.547401 0.659961 0
vt 0.639332 0.642998 0
vt 0.545644 0.660685 0
vt 0.637641 0.643743 0
vt 0.543845 0.659242 0
vt 0.63583 0.642154 0
vt 0.543066 0.656476 0
vt 0.634969 0.639161 0
vt 0.543764 0.654016 0
vt 0.635563 0.636528 0
vt 0.544121 0.655219 0
vt 0.545113 0.656019 0
vt 0.545543 0.657543 0
vt 0.545159 0.658904 0
vt 0.544184 0.659303 0
vt 0.543189 0.658504 0
vt 0.542758 0.656975 0
vt 0.543145 0.655614 0
vt 0.639026 0.637248 0
vt 0.640024 0.638131 0
vt 0.640501 0.639785 0
vt 0.640177 0.641244 0
vt 0.63924 0.641655 0
vt 0.638239 0.640773 0
vt 0.637761 0.639114 0
vt 0.638088 0.637654 0
vt 0.612506 0.38995 0
vt 0.676805 0.337862 0
vt 0.670453 0.329824 0
vt 0.669766 0.326918 0
vt 0.6692 0.320509 0
vt 0.669487 0.318902 0
vt 0.676911 0.329221 0
vt 0.610158 0.388475 0
vt 0.677454 0.340653 0
vt 0.677563 0.332059 0
vt 0.680672 0.36711 0
vt 0.611414 0.380413 0
vt 0.610654 0.379782 0
vt 0.680577 0.376351 0
vt 0.68323 0.378757 0
vt 0.683055 0.380621 0
vt 0.681212 0.378977 0
vt 0.681315 0.369847 0
vt 0.681917 0.370542 0
vt 0.682613 0.373299 0
vt 0.606495 0.341334 0
vt 0.597212 0.331978 0
vt 0.596775 0.333526 0
vt 0.597263 0.339587 0
vt 0.598045 0.342308 0
vt 0.606017 0.349574 0
vt 0.606755 0.352195 0
vt 0.609432 0.386008 0
vt 0.609921 0.37721 0
vt 0.607236 0.343999 0
vt 0.612809 0.388168 0
vt 0.612216 0.383003 0
vt 0.538807 0.360087 0
vt 0.528916 0.353082 0
vt 0.528003 0.350367 0
vt 0.527559 0.34427 0
vt 0.528157 0.342691 0
vt 0.539649 0.351753 0
vt 0.539667 0.362701 0
vt 0.54051 0.354412 0
vt 0.542962 0.387812 0
vt 0.542091 0.39671 0
vt 0.546307 0.398749 0
vt 0.545873 0.40056 0
vt 0.542941 0.39917 0
vt 0.543817 0.390377 0
vt 0.544762 0.390982 0
vt 0.545704 0.393562 0
vt 0.641243 0.335637 0
vt 0.632972 0.325971 0
vt 0.632612 0.327525 0
vt 0.63313 0.333663 0
vt 0.633856 0.336432 0
vt 0.640947 0.343952 0
vt 0.641633 0.346617 0
vt 0.644483 0.380844 0
vt 0.645156 0.383353 0
vt 0.647233 0.384891 0
vt 0.647471 0.383095 0
vt 0.646875 0.377864 0
vt 0.646134 0.37523 0
vt 0.645459 0.374578 0
vt 0.644779 0.371963 0
vt 0.641931 0.338346 0
vt 0.562375 0.33783 0
vt 0.572617 0.346889 0
vt 0.573406 0.34951 0
vt 0.575936 0.382326 0
vt 0.576719 0.384857 0
vt 0.57756 0.385466 0
vt 0.57842 0.388014 0
vt 0.57901 0.393113 0
vt 0.578645 0.394884 0
vt 0.576041 0.393469 0
vt 0.575263 0.391041 0
vt 0.572753 0.357633 0
vt 0.571964 0.355054 0
vt 0.563158 0.348033 0
vt 0.562324 0.345358 0
vt 0.561865 0.339371 0
vt 0.640104 0.335263 0
vt 0.377895 0.288443 0
vt 0.343816 0.305751 0
vt 0.607687 0.340584 0
vt 0.336504 0.272589 0
vt 0.631543 0.325289 0
vt 0.598152 0.330909 0
vt 0.302341 0.291117 0
vt 0.334064 0.274867 0
vt 0.631168 0.326889 0
vt 0.597703 0.332503 0
vt 0.299866 0.293384 0
vt 0.631701 0.333215 0
vt 0.334947 0.284224 0
vt 0.300656 0.302475 0
vt 0.598207 0.338755 0
vt 0.632451 0.336068 0
vt 0.338019 0.288526 0
vt 0.303697 0.306604 0
vt 0.599011 0.341563 0
vt 0.373852 0.300882 0
vt 0.639793 0.343823 0
vt 0.6072 0.349072 0
vt 0.339608 0.317953 0
vt 0.37671 0.304983 0
vt 0.640501 0.346566 0
vt 0.607959 0.351774 0
vt 0.342442 0.321895 0
vt 0.643431 0.381812 0
vt 0.381733 0.35729 0
vt 0.346933 0.372754 0
vt 0.610722 0.38662 0
vt 0.644126 0.384393 0
vt 0.384588 0.361171 0
vt 0.349766 0.376485 0
vt 0.611468 0.389162 0
vt 0.646273 0.385967 0
vt 0.395209 0.363606 0
vt 0.360441 0.378677 0
vt 0.613876 0.390676 0
vt 0.646521 0.384117 0
vt 0.397001 0.360863 0
vt 0.362277 0.375976 0
vt 0.614186 0.388838 0
vt 0.645907 0.378732 0
vt 0.39536 0.352839 0
vt 0.360711 0.368187 0
vt 0.613575 0.383517 0
vt 0.645142 0.376022 0
vt 0.392197 0.348778 0
vt 0.357568 0.364286 0
vt 0.612751 0.38085 0
vt 0.644445 0.375353 0
vt 0.388801 0.347743 0
vt 0.354157 0.363336 0
vt 0.611972 0.380201 0
vt 0.643743 0.372662 0
vt 0.38595 0.343711 0
vt 0.351328 0.359458 0
vt 0.611219 0.377551 0
vt 0.640814 0.338052 0
vt 0.380741 0.292599 0
vt 0.346638 0.309748 0
vt 0.608447 0.343331 0
vt 0.336593 0.273498 0
vt 0.63359 0.326483 0
vt 0.667956 0.320718 0
vt 0.373309 0.253618 0
vt 0.33903 0.271218 0
vt 0.633959 0.324882 0
vt 0.668247 0.319111 0
vt 0.3757 0.25133 0
vt 0.380412 0.287165 0
vt 0.642449 0.334878 0
vt 0.675708 0.329418 0
vt 0.416886 0.26864 0
vt 0.38326 0.291333 0
vt 0.643156 0.33767 0
vt 0.676362 0.332255 0
vt 0.419754 0.272981 0
vt 0.388508 0.342547 0
vt 0.646095 0.372308 0
vt 0.679465 0.367292 0
vt 0.425584 0.325683 0
vt 0.391361 0.346591 0
vt 0.646794 0.375002 0
vt 0.68011 0.370027 0
vt 0.428456 0.329895 0
vt 0.394755 0.347633 0
vt 0.647485 0.375673 0
vt 0.680715 0.370721 0
vt 0.431825 0.331032 0
vt 0.397919 0.351705 0
vt 0.648246 0.378386 0
vt 0.681413 0.373477 0
vt 0.435005 0.335277 0
vt 0.399565 0.359747 0
vt 0.64886 0.383775 0
vt 0.682031 0.378932 0
vt 0.436734 0.34357 0
vt 0.397777 0.362493 0
vt 0.648617 0.385626 0
vt 0.681853 0.380795 0
vt 0.435001 0.346357 0
vt 0.387161 0.36004 0
vt 0.646489 0.384048 0
vt 0.68 0.379154 0
vt 0.424471 0.343632 0
vt 0.384304 0.356147 0
vt 0.645798 0.381464 0
vt 0.679363 0.376529 0
vt 0.421596 0.339575 0
vt 0.379241 0.303734 0
vt 0.642856 0.34619 0
vt 0.676246 0.340847 0
vt 0.415934 0.285625 0
vt 0.376381 0.299621 0
vt 0.642151 0.343443 0
vt 0.675595 0.338056 0
vt 0.413053 0.28134 0
vt 0.340558 0.287189 0
vt 0.634872 0.335671 0
vt 0.669211 0.330028 0
vt 0.377407 0.26778 0
vt 0.337483 0.282874 0
vt 0.634125 0.332814 0
vt 0.668522 0.327124 0
vt 0.374305 0.263275 0
vt 0.268079 0.309699 0
vt 0.563269 0.336781 0
vt 0.595798 0.331306 0
vt 0.299984 0.292395 0
vt 0.573793 0.346148 0
vt 0.309549 0.323155 0
vt 0.341462 0.306947 0
vt 0.6054 0.34096 0
vt 0.574605 0.348851 0
vt 0.312343 0.326993 0
vt 0.344282 0.310933 0
vt 0.606164 0.343704 0
vt 0.577216 0.382663 0
vt 0.316535 0.375284 0
vt 0.348937 0.360546 0
vt 0.608925 0.377896 0
vt 0.57802 0.38527 0
vt 0.319337 0.379009 0
vt 0.351764 0.364413 0
vt 0.609682 0.380543 0
vt 0.578883 0.385897 0
vt 0.322755 0.379876 0
vt 0.355175 0.365357 0
vt 0.610467 0.38119 0
vt 0.579766 0.388521 0
vt 0.325873 0.383618 0
vt 0.358317 0.369247 0
vt 0.611294 0.383855 0
vt 0.580374 0.393775 0
vt 0.327365 0.39117 0
vt 0.359878 0.37702 0
vt 0.611905 0.389171 0
vt 0.580001 0.3956 0
vt 0.32549 0.393828 0
vt 0.358039 0.379718 0
vt 0.611591 0.391008 0
vt 0.577329 0.394148 0
vt 0.314786 0.391868 0
vt 0.347361 0.377543 0
vt 0.609165 0.389499 0
vt 0.57653 0.391647 0
vt 0.311979 0.388287 0
vt 0.34453 0.373822 0
vt 0.608415 0.386959 0
vt 0.308 0.338893 0
vt 0.573937 0.357218 0
vt 0.605664 0.352141 0
vt 0.340075 0.323063 0
vt 0.305194 0.335108 0
vt 0.573127 0.35456 0
vt 0.604901 0.349442 0
vt 0.337243 0.319132 0
vt 0.564078 0.347304 0
vt 0.269283 0.32473 0
vt 0.301329 0.307851 0
vt 0.596654 0.341951 0
vt 0.563218 0.344543 0
vt 0.266277 0.320774 0
vt 0.29829 0.303734 0
vt 0.595846 0.339146 0
vt 0.265577 0.311951 0
vt 0.562744 0.338368 0
vt 0.595344 0.332899 0
vt 0.297507 0.294662 0
vt 0.265876 0.310894 0
vt 0.560975 0.337167 0
vt 0.529275 0.342503 0
vt 0.236013 0.327091 0
vt 0.263372 0.313145 0
vt 0.560446 0.338753 0
vt 0.528679 0.344082 0
vt 0.233491 0.329324 0
vt 0.264067 0.32195 0
vt 0.560918 0.344923 0
vt 0.529125 0.350182 0
vt 0.234112 0.337894 0
vt 0.26707 0.325896 0
vt 0.561781 0.347681 0
vt 0.530035 0.352898 0
vt 0.23708 0.341692 0
vt 0.302978 0.336213 0
vt 0.570886 0.354921 0
vt 0.5399 0.359911 0
vt 0.27292 0.351197 0
vt 0.305782 0.339988 0
vt 0.5717 0.357576 0
vt 0.540759 0.362527 0
vt 0.275695 0.354836 0
vt 0.309729 0.389287 0
vt 0.574281 0.391978 0
vt 0.543188 0.396549 0
vt 0.279218 0.402846 0
vt 0.312534 0.392859 0
vt 0.575083 0.394476 0
vt 0.544037 0.39901 0
vt 0.281995 0.406289 0
vt 0.323239 0.394803 0
vt 0.577773 0.395924 0
vt 0.54696 0.400402 0
vt 0.292705 0.408039 0
vt 0.325116 0.392148 0
vt 0.578149 0.3941 0
vt 0.547393 0.39859 0
vt 0.294609 0.405426 0
vt 0.32363 0.384612 0
vt 0.577542 0.38885 0
vt 0.546789 0.393402 0
vt 0.293186 0.398098 0
vt 0.320513 0.38088 0
vt 0.576655 0.386229 0
vt 0.545849 0.39082 0
vt 0.290095 0.394501 0
vt 0.317095 0.380018 0
vt 0.575787 0.385604 0
vt 0.544907 0.390215 0
vt 0.286677 0.393709 0
vt 0.314294 0.376303 0
vt 0.574979 0.382999 0
vt 0.544054 0.387648 0
vt 0.283904 0.390126 0
vt 0.310134 0.328104 0
vt 0.572378 0.349214 0
vt 0.541596 0.354235 0
vt 0.28016 0.343177 0
vt 0.307342 0.324276 0
vt 0.571564 0.346514 0
vt 0.540736 0.351575 0
vt 0.277395 0.339486 0

f 10/10 1/1 9/9 
f 11/11 1/1 10/10 
f 13/13 1/1 12/12 
f 14/14 1/1 11/11 
f 9/9 1/1 13/13 
f 12/12 1/1 14/14 
f 2/2 8/8 3/3 
f 3/3 8/8 4/4 
f 5/5 8/8 6/6 
f 4/4 8/8 7/7 
f 6/6 8/8 2/2 
f 7/7 8/8 5/5 
f 3/3 10/10 9/9 2/2 
f 4/4 11/11 10/10 3/3 
f 6/6 13/13 12/12 5/5 
f 40/40 42/42 41/41 39/39 
f 2/2 9/9 13/13 6/6 
f 5/5 12/12 14/14 7/7 
f 7/7 16/16 15/15 4/4 
f 14/14 18/18 16/16 7/7 
f 11/11 17/17 18/18 14/14 
f 4/4 15/15 17/17 11/11 
f 42/42 43/43 44/44 41/41 
f 59/59 45/45 46/46 60/60 
f 55/55 47/47 48/48 56/56 
f 51/51 49/49 50/50 52/52 
f 47/47 53/53 54/54 48/48 
f 53/53 51/51 52/52 54/54 
f 45/45 57/57 58/58 46/46 
f 57/57 55/55 56/56 58/58 
f 43/43 61/61 62/62 44/44 
f 61/61 59/59 60/60 62/62 
f 38/38 62/62 60/60 36/36 
f 17/17 20/20 19/19 18/18 
f 36/36 22/22 21/21 35/35 
f 32/32 24/24 23/23 31/31 
f 28/28 26/26 25/25 27/27 
f 24/24 30/30 29/29 23/23 
f 30/30 28/28 27/27 29/29 
f 22/22 34/34 33/33 21/21 
f 34/34 32/32 31/31 33/33 
f 20/20 38/38 37/37 19/19 
f 38/38 36/36 35/35 37/37 
f 16/16 40/40 39/39 15/15 
f 18/18 42/42 40/40 16/16 
f 15/15 39/39 41/41 17/17 
f 19/19 43/43 42/42 18/18 
f 17/17 41/41 44/44 20/20 
f 21/21 45/45 59/59 35/35 
f 36/36 60/60 46/46 22/22 
f 23/23 47/47 55/55 31/31 
f 32/32 56/56 48/48 24/24 
f 25/25 49/49 51/51 27/27 
f 26/26 50/50 49/49 25/25 
f 28/28 52/52 50/50 26/26 
f 29/29 53/53 47/47 23/23 
f 24/24 48/48 54/54 30/30 
f 27/27 51/51 53/53 29/29 
f 30/30 54/54 52/52 28/28 
f 33/33 57/57 45/45 21/21 
f 22/22 46/46 58/58 34/34 
f 31/31 55/55 57/57 33/33 
f 34/34 58/58 56/56 32/32 
f 37/37 61/61 43/43 19/19 
f 20/20 44/44 62/62 38/38 
f 35/35 59/59 61/61 37/37 
f 73/73 72/72 71/71 70/70 
f 70/70 69/69 74/74 73/73 
f 64/64 65/65 66/66 67/67 
f 67/67 68/68 63/63 64/64 
f 66/66 72/72 73/73 67/67 
f 65/65 71/71 72/72 66/66 
f 64/64 70/70 71/71 65/65 
f 63/63 69/69 70/70 64/64 
f 68/68 74/74 69/69 63/63 
f 67/67 73/73 74/74 68/68 
f 83/83 84/84 85/85 82/82 
f 86/86 81/81 82/82 85/85 
f 78/78 77/77 76/76 79/79 
f 75/75 80/80 79/79 76/76 
f 85/85 84/84 78/78 79/79 
f 84/84 83/83 77/77 78/78 
f 83/83 82/82 76/76 77/77 
f 82/82 81/81 75/75 76/76 
f 81/81 86/86 80/80 75/75 
f 86/86 85/85 79/79 80/80 
f 106/106 105/105 87/87 
f 123/126 124/128 122/124 121/122 
f 114/114 88/88 113/113 
f 107/107 106/106 87/87 
f 125/130 126/132 124/128 123/126 
f 115/115 88/88 114/114 
f 108/108 107/107 87/87 
f 127/134 128/136 126/132 125/130 
f 116/116 88/88 115/115 
f 109/109 108/108 87/87 
f 129/138 130/140 128/136 127/134 
f 117/117 88/88 116/116 
f 110/110 109/109 87/87 
f 131/142 132/144 130/140 129/138 
f 118/118 88/88 117/117 
f 111/111 110/110 87/87 
f 133/146 134/148 132/144 131/142 
f 119/119 88/88 118/118 
f 112/112 111/111 87/87 
f 135/150 136/152 134/148 133/146 
f 120/120 88/88 119/119 
f 105/105 112/112 87/87 
f 121/122 122/124 136/152 135/150 
f 113/113 88/88 120/120 
f 89/89 105/105 106/106 91/91 
f 91/91 106/106 107/107 93/93 
f 93/93 107/107 108/108 95/95 
f 95/95 108/108 109/109 97/97 
f 97/97 109/109 110/110 99/99 
f 99/99 110/110 111/111 101/101 
f 101/101 111/111 112/112 103/103 
f 103/103 112/112 105/105 89/89 
f 92/92 114/114 113/113 90/90 
f 94/94 115/115 114/114 92/92 
f 96/96 116/116 115/115 94/94 
f 98/98 117/117 116/116 96/96 
f 100/100 118/118 117/117 98/98 
f 102/102 119/119 118/118 100/100 
f 104/104 120/120 119/119 102/102 
f 90/90 113/113 120/120 104/104 
f 91/91 123/125 121/121 89/89 
f 90/90 122/123 124/127 92/92 
f 93/93 125/129 123/125 91/91 
f 92/92 124/127 126/131 94/94 
f 95/95 127/133 125/129 93/93 
f 94/94 126/131 128/135 96/96 
f 97/97 129/137 127/133 95/95 
f 96/96 128/135 130/139 98/98 
f 99/99 131/141 129/137 97/97 
f 98/98 130/139 132/143 100/100 
f 101/101 133/145 131/141 99/99 
f 100/100 132/143 134/147 102/102 
f 103/103 135/149 133/145 101/101 
f 102/102 134/147 136/151 104/104 
f 89/89 121/121 135/149 103/103 
f 104/104 136/151 122/123 90/90 
f 155/171 156/172 137/153 
f 172/190 174/194 173/192 171/188 
f 138/154 164/180 163/179 
f 156/172 157/173 137/153 
f 174/194 176/198 175/196 173/192 
f 138/154 165/181 164/180 
f 157/173 158/174 137/153 
f 176/198 178/202 177/200 175/196 
f 138/154 166/182 165/181 
f 158/174 159/175 137/153 
f 178/202 180/206 179/204 177/200 
f 138/154 167/183 166/182 
f 159/175 160/176 137/153 
f 180/206 182/210 181/208 179/204 
f 138/154 168/184 167/183 
f 160/176 161/177 137/153 
f 182/210 184/214 183/212 181/208 
f 138/154 169/185 168/184 
f 161/177 162/178 137/153 
f 184/214 186/218 185/216 183/212 
f 138/154 170/186 169/185 
f 162/178 155/171 137/153 
f 186/218 172/190 171/188 185/216 
f 138/154 163/179 170/186 
f 156/172 155/171 139/155 141/157 
f 157/173 156/172 141/157 143/159 
f 158/174 157/173 143/159 145/161 
f 159/175 158/174 145/161 147/163 
f 160/176 159/175 147/163 149/165 
f 161/177 160/176 149/165 151/167 
f 162/178 161/177 151/167 153/169 
f 155/171 162/178 153/169 139/155 
f 163/179 164/180 142/158 140/156 
f 164/180 165/181 144/160 142/158 
f 165/181 166/182 146/162 144/160 
f 166/182 167/183 148/164 146/162 
f 167/183 168/184 150/166 148/164 
f 168/184 169/185 152/168 150/166 
f 169/185 170/186 154/170 152/168 
f 170/186 163/179 140/156 154/170 
f 171/187 173/191 141/157 139/155 
f 174/193 172/189 140/156 142/158 
f 173/191 175/195 143/159 141/157 
f 176/197 174/193 142/158 144/160 
f 175/195 177/199 145/161 143/159 
f 178/201 176/197 144/160 146/162 
f 177/199 179/203 147/163 145/161 
f 180/205 178/201 146/162 148/164 
f 179/203 181/207 149/165 147/163 
f 182/209 180/205 148/164 150/166 
f 181/207 183/211 151/167 149/165 
f 184/213 182/209 150/166 152/168 
f 183/211 185/215 153/169 151/167 
f 186/217 184/213 152/168 154/170 
f 185/215 171/187 139/155 153/169 
f 172/189 186/217 154/170 140/156 
f 195/227 196/228 188/220 187/219 
f 196/228 197/229 189/221 188/220 
f 197/229 198/230 190/222 189/221 
f 198/230 199/231 191/223 190/222 
f 199/231 200/232 192/224 191/223 
f 200/232 201/233 193/225 192/224 
f 201/233 202/234 194/226 193/225 
f 202/234 195/227 187/219 194/226 
f 203/235 204/236 196/228 195/227 
f 204/236 205/237 197/229 196/228 
f 205/237 206/238 198/230 197/229 
f 206/238 207/239 199/231 198/230 
f 207/239 208/240 200/232 199/231 
f 208/240 209/241 201/233 200/232 
f 209/241 210/242 202/234 201/233 
f 210/242 203/235 195/227 202/234 
f 211/243 212/244 204/236 203/235 
f 212/244 213/245 205/237 204/236 
f 213/245 214/246 206/238 205/237 
f 214/246 215/247 207/239 206/238 
f 215/247 216/248 208/240 207/239 
f 216/248 217/249 209/241 208/240 
f 217/249 218/250 210/242 209/241 
f 218/250 211/243 203/235 210/242 
f 219/251 220/252 212/244 211/243 
f 220/252 221/253 213/245 212/244 
f 221/253 222/254 214/246 213/245 
f 222/254 223/255 215/247 214/246 
f 223/255 256/288 216/248 215/247 
f 256/288 257/289 217/249 216/248 
f 257/289 258/290 218/250 217/249 
f 258/290 219/251 211/243 218/250 
f 249/281 225/257 224/256 248/280 
f 250/282 226/258 225/257 249/281 
f 251/283 227/259 226/258 250/282 
f 252/284 228/260 227/259 251/283 
f 253/285 229/261 228/260 252/284 
f 254/286 230/262 229/261 253/285 
f 255/287 231/263 230/262 254/286 
f 248/280 224/256 231/263 255/287 
f 225/257 233/265 232/264 224/256 
f 226/258 234/266 233/265 225/257 
f 227/259 235/267 234/266 226/258 
f 228/260 236/268 235/267 227/259 
f 229/261 237/269 236/268 228/260 
f 230/262 238/270 237/269 229/261 
f 231/263 239/271 238/270 230/262 
f 224/256 232/264 239/271 231/263 
f 233/265 241/273 240/272 232/264 
f 234/266 242/274 241/273 233/265 
f 235/267 243/275 242/274 234/266 
f 236/268 244/276 243/275 235/267 
f 237/269 245/277 244/276 236/268 
f 238/270 246/278 245/277 237/269 
f 239/271 247/279 246/278 238/270 
f 232/264 240/272 247/279 239/271 
f 241/273 260/292 259/291 240/272 
f 242/274 261/293 260/292 241/273 
f 243/275 262/294 261/293 242/274 
f 244/276 263/295 262/294 243/275 
f 245/277 264/296 263/295 244/276 
f 246/278 265/297 264/296 245/277 
f 247/279 266/298 265/297 246/278 
f 240/272 259/291 266/298 247/279 
f 192/224 193/225 194/226 
f 187/219 192/224 194/226 
f 187/219 191/223 192/224 
f 187/219 190/222 191/223 
f 187/219 189/221 190/222 
f 187/219 188/220 189/221 
f 254/286 253/285 255/287 
f 253/285 248/280 255/287 
f 252/284 248/280 253/285 
f 251/283 248/280 252/284 
f 250/282 248/280 251/283 
f 249/281 248/280 250/282 
f 221/253 220/252 219/251 
f 258/290 221/253 219/251 
f 223/255 222/254 221/253 
f 256/288 223/255 221/253 
f 258/290 256/288 221/253 
f 258/290 257/289 256/288 
f 260/292 261/293 259/291 
f 261/293 266/298 259/291 
f 262/294 263/295 261/293 
f 263/295 264/296 261/293 
f 264/296 266/298 261/293 
f 265/297 266/298 264/296 
f 267/299 268/300 402/434 401/433 
f 268/300 269/301 403/435 402/434 
f 269/301 270/302 404/436 403/435 
f 270/302 271/303 405/437 404/436 
f 271/303 272/304 406/438 405/437 
f 272/304 273/305 407/439 406/438 
f 273/305 274/306 408/440 407/439 
f 274/306 267/299 401/433 408/440 
f 275/307 276/308 268/300 267/299 
f 276/308 277/309 269/301 268/300 
f 277/309 278/310 270/302 269/301 
f 278/310 279/311 271/303 270/302 
f 279/311 280/312 272/304 271/303 
f 280/312 281/313 273/305 272/304 
f 281/313 282/314 274/306 273/305 
f 282/314 275/307 267/299 274/306 
f 283/315 284/316 276/308 275/307 
f 284/316 285/317 277/309 276/308 
f 285/317 286/318 278/310 277/309 
f 286/318 287/319 279/311 278/310 
f 287/319 288/320 280/312 279/311 
f 288/320 289/321 281/313 280/312 
f 289/321 290/322 282/314 281/313 
f 290/322 283/315 275/307 282/314 
f 291/323 292/324 284/316 283/315 
f 292/324 293/325 285/317 284/316 
f 293/325 294/326 286/318 285/317 
f 294/326 295/327 287/319 286/318 
f 295/327 296/328 288/320 287/319 
f 296/328 297/329 289/321 288/320 
f 297/329 298/330 290/322 289/321 
f 298/330 291/323 283/315 290/322 
f 299/331 300/332 292/324 291/323 
f 300/332 301/333 293/325 292/324 
f 301/333 302/334 294/326 293/325 
f 302/334 303/335 295/327 294/326 
f 303/335 304/336 296/328 295/327 
f 304/336 305/337 297/329 296/328 
f 305/337 306/338 298/330 297/329 
f 306/338 299/331 291/323 298/330 
f 307/339 308/340 300/332 299/331 
f 308/340 309/341 301/333 300/332 
f 309/341 310/342 302/334 301/333 
f 310/342 311/343 303/335 302/334 
f 311/343 312/344 304/336 303/335 
f 312/344 313/345 305/337 304/336 
f 313/345 314/346 306/338 305/337 
f 314/346 307/339 299/331 306/338 
f 315/347 316/348 308/340 307/339 
f 316/348 317/349 309/341 308/340 
f 317/349 318/350 310/342 309/341 
f 318/350 319/351 311/343 310/342 
f 319/351 320/352 312/344 311/343 
f 320/352 321/353 313/345 312/344 
f 321/353 322/354 314/346 313/345 
f 322/354 315/347 307/339 314/346 
f 323/355 324/356 316/348 315/347 
f 324/356 325/357 317/349 316/348 
f 325/357 326/358 318/350 317/349 
f 326/358 327/359 319/351 318/350 
f 327/359 328/360 320/352 319/351 
f 328/360 329/361 321/353 320/352 
f 329/361 330/362 322/354 321/353 
f 330/362 323/355 315/347 322/354 
f 411/443 412/444 324/356 323/355 
f 412/444 413/445 325/357 324/356 
f 413/445 414/446 326/358 325/357 
f 414/446 415/447 327/359 326/358 
f 415/447 416/448 328/360 327/359 
f 416/448 417/449 329/361 328/360 
f 417/449 418/450 330/362 329/361 
f 418/450 411/443 323/355 330/362 
f 409/441 338/370 337/369 331/363 
f 332/364 339/371 338/370 409/441 
f 410/442 340/372 339/371 332/364 
f 333/365 341/373 340/372 410/442 
f 334/366 342/374 341/373 333/365 
f 335/367 343/375 342/374 334/366 
f 336/368 344/376 343/375 335/367 
f 331/363 337/369 344/376 336/368 
f 338/370 346/378 345/377 337/369 
f 339/371 347/379 346/378 338/370 
f 340/372 348/380 347/379 339/371 
f 341/373 349/381 348/380 340/372 
f 342/374 350/382 349/381 341/373 
f 343/375 351/383 350/382 342/374 
f 344/376 352/384 351/383 343/375 
f 337/369 345/377 352/384 344/376 
f 346/378 354/386 353/385 345/377 
f 347/379 355/387 354/386 346/378 
f 348/380 356/388 355/387 347/379 
f 349/381 357/389 356/388 348/380 
f 350/382 358/390 357/389 349/381 
f 351/383 359/391 358/390 350/382 
f 352/384 360/392 359/391 351/383 
f 345/377 353/385 360/392 352/384 
f 354/386 362/394 361/393 353/385 
f 355/387 363/395 362/394 354/386 
f 356/388 364/396 363/395 355/387 
f 357/389 365/397 364/396 356/388 
f 358/390 366/398 365/397 357/389 
f 359/391 367/399 366/398 358/390 
f 360/392 368/400 367/399 359/391 
f 353/385 361/393 368/400 360/392 
f 362/394 370/402 369/401 361/393 
f 363/395 371/403 370/402 362/394 
f 364/396 372/404 371/403 363/395 
f 365/397 373/405 372/404 364/396 
f 366/398 374/406 373/405 365/397 
f 367/399 375/407 374/406 366/398 
f 368/400 376/408 375/407 367/399 
f 361/393 369/401 376/408 368/400 
f 370/402 378/410 377/409 369/401 
f 371/403 379/411 378/410 370/402 
f 372/404 380/412 379/411 371/403 
f 373/405 381/413 380/412 372/404 
f 374/406 382/414 381/413 373/405 
f 375/407 383/415 382/414 374/406 
f 376/408 384/416 383/415 375/407 
f 369/401 377/409 384/416 376/408 
f 378/410 386/418 385/417 377/409 
f 379/411 387/419 386/418 378/410 
f 380/412 388/420 387/419 379/411 
f 381/413 389/421 388/420 380/412 
f 382/414 390/422 389/421 381/413 
f 383/415 391/423 390/422 382/414 
f 384/416 392/424 391/423 383/415 
f 377/409 385/417 392/424 384/416 
f 386/418 394/426 393/425 385/417 
f 387/419 395/427 394/426 386/418 
f 388/420 396/428 395/427 387/419 
f 389/421 397/429 396/428 388/420 
f 390/422 398/430 397/429 389/421 
f 391/423 399/431 398/430 390/422 
f 392/424 400/432 399/431 391/423 
f 385/417 393/425 400/432 392/424 
f 394/426 412/444 411/443 393/425 
f 395/427 413/445 412/444 394/426 
f 396/428 414/446 413/445 395/427 
f 397/429 415/447 414/446 396/428 
f 398/430 416/448 415/447 397/429 
f 399/431 417/449 416/448 398/430 
f 400/432 418/450 417/449 399/431 
f 393/425 411/443 418/450 400/432 
f 405/437 407/439 408/440 
f 404/436 405/437 408/440 
f 403/435 404/436 408/440 
f 402/434 403/435 408/440 
f 401/433 402/434 408/440 
f 405/437 406/438 407/439 
f 335/367 333/365 336/368 
f 333/365 410/442 336/368 
f 410/442 332/364 336/368 
f 332/364 409/441 336/368 
f 409/441 331/363 336/368 
f 334/366 333/365 335/367 
f 413/445 412/444 411/443 
f 411/443 413/445 418/450 
f 418/450 414/446 413/445 
f 414/446 417/449 418/450 
f 415/447 416/448 417/449 
f 415/447 417/449 414/446 
f 438/470 437/469 419/451 
f 423/455 424/456 422/454 421/453 
f 446/478 420/452 445/477 
f 439/471 438/470 419/451 
f 425/457 426/458 424/456 423/455 
f 447/479 420/452 446/478 
f 440/472 439/471 419/451 
f 427/459 428/460 426/458 425/457 
f 448/480 420/452 447/479 
f 441/473 440/472 419/451 
f 429/461 430/462 428/460 427/459 
f 449/481 420/452 448/480 
f 442/474 441/473 419/451 
f 431/463 432/464 430/462 429/461 
f 450/482 420/452 449/481 
f 443/475 442/474 419/451 
f 433/465 434/466 432/464 431/463 
f 451/483 420/452 450/482 
f 444/476 443/475 419/451 
f 435/467 436/468 434/466 433/465 
f 452/484 420/452 451/483 
f 437/469 444/476 419/451 
f 421/453 422/454 436/468 435/467 
f 445/477 420/452 452/484 
f 421/453 437/469 438/470 423/455 
f 423/455 438/470 439/471 425/457 
f 425/457 439/471 440/472 427/459 
f 427/459 440/472 441/473 429/461 
f 429/461 441/473 442/474 431/463 
f 431/463 442/474 443/475 433/465 
f 433/465 443/475 444/476 435/467 
f 435/467 444/476 437/469 421/453 
f 424/456 446/478 445/477 422/454 
f 426/458 447/479 446/478 424/456 
f 428/460 448/480 447/479 426/458 
f 430/462 449/481 448/480 428/460 
f 432/464 450/482 449/481 430/462 
f 434/466 451/483 450/482 432/464 
f 436/468 452/484 451/483 434/466 
f 422/454 445/477 452/484 436/468 
f 453/485 454/486 650/682 649/681 
f 454/486 455/487 651/683 650/682 
f 455/487 456/488 652/684 651/683 
f 456/488 457/489 653/685 652/684 
f 457/489 458/490 654/686 653/685 
f 458/490 459/491 655/687 654/686 
f 459/491 460/492 656/688 655/687 
f 460/492 453/485 649/681 656/688 
f 461/493 462/494 454/486 453/485 
f 462/494 463/495 455/487 454/486 
f 463/495 464/496 456/488 455/487 
f 464/496 465/497 457/489 456/488 
f 465/497 466/498 458/490 457/489 
f 466/498 467/499 459/491 458/490 
f 467/499 468/500 460/492 459/491 
f 468/500 461/493 453/485 460/492 
f 469/501 470/502 462/494 461/493 
f 470/502 471/503 463/495 462/494 
f 471/503 472/504 464/496 463/495 
f 472/504 473/505 465/497 464/496 
f 473/505 474/506 466/498 465/497 
f 474/506 475/507 467/499 466/498 
f 475/507 476/508 468/500 467/499 
f 476/508 469/501 461/493 468/500 
f 477/509 478/510 470/502 469/501 
f 478/510 479/511 471/503 470/502 
f 479/511 480/512 472/504 471/503 
f 480/512 481/513 473/505 472/504 
f 481/513 482/514 474/506 473/505 
f 482/514 483/515 475/507 474/506 
f 483/515 484/516 476/508 475/507 
f 484/516 477/509 469/501 476/508 
f 485/517 486/518 478/510 477/509 
f 486/518 487/519 479/511 478/510 
f 487/519 488/520 480/512 479/511 
f 488/520 489/521 481/513 480/512 
f 489/521 490/522 482/514 481/513 
f 490/522 491/523 483/515 482/514 
f 491/523 492/524 484/516 483/515 
f 492/524 485/517 477/509 484/516 
f 493/525 494/526 486/518 485/517 
f 494/526 495/527 487/519 486/518 
f 495/527 496/528 488/520 487/519 
f 496/528 497/529 489/521 488/520 
f 497/529 498/530 490/522 489/521 
f 498/530 499/531 491/523 490/522 
f 499/531 500/532 492/524 491/523 
f 500/532 493/525 485/517 492/524 
f 501/533 502/534 494/526 493/525 
f 502/534 503/535 495/527 494/526 
f 503/535 504/536 496/528 495/527 
f 504/536 505/537 497/529 496/528 
f 505/537 506/538 498/530 497/529 
f 506/538 507/539 499/531 498/530 
f 507/539 508/540 500/532 499/531 
f 508/540 501/533 493/525 500/532 
f 509/541 510/542 502/534 501/533 
f 510/542 511/543 503/535 502/534 
f 511/543 512/544 504/536 503/535 
f 512/544 513/545 505/537 504/536 
f 513/545 514/546 506/538 505/537 
f 514/546 515/547 507/539 506/538 
f 515/547 516/548 508/540 507/539 
f 516/548 509/541 501/533 508/540 
f 517/549 518/550 510/542 509/541 
f 518/550 519/551 511/543 510/542 
f 519/551 520/552 512/544 511/543 
f 520/552 521/553 513/545 512/544 
f 521/553 522/554 514/546 513/545 
f 522/554 523/555 515/547 514/546 
f 523/555 524/556 516/548 515/547 
f 524/556 517/549 509/541 516/548 
f 525/557 526/558 518/550 517/549 
f 526/558 527/559 519/551 518/550 
f 527/559 528/560 520/552 519/551 
f 528/560 529/561 521/553 520/552 
f 529/561 530/562 522/554 521/553 
f 530/562 531/563 523/555 522/554 
f 531/563 532/564 524/556 523/555 
f 532/564 525/557 517/549 524/556 
f 533/565 534/566 526/558 525/557 
f 534/566 535/567 527/559 526/558 
f 535/567 536/568 528/560 527/559 
f 536/568 537/569 529/561 528/560 
f 537/569 538/570 530/562 529/561 
f 538/570 539/571 531/563 530/562 
f 539/571 540/572 532/564 531/563 
f 540/572 533/565 525/557 532/564 
f 541/573 542/574 534/566 533/565 
f 542/574 543/575 535/567 534/566 
f 543/575 544/576 536/568 535/567 
f 544/576 545/577 537/569 536/568 
f 545/577 546/578 538/570 537/569 
f 546/578 547/579 539/571 538/570 
f 547/579 548/580 540/572 539/571 
f 548/580 541/573 533/565 540/572 
f 662/694 663/695 542/574 541/573 
f 663/695 664/696 543/575 542/574 
f 664/696 665/697 544/576 543/575 
f 665/697 666/698 545/577 544/576 
f 666/698 549/581 546/578 545/577 
f 549/581 667/699 547/579 546/578 
f 667/699 668/700 548/580 547/579 
f 668/700 662/694 541/573 548/580 
f 658/690 554/586 553/585 657/689 
f 659/691 555/587 554/586 658/690 
f 660/692 556/588 555/587 659/691 
f 550/582 557/589 556/588 660/692 
f 551/583 558/590 557/589 550/582 
f 661/693 559/591 558/590 551/583 
f 552/584 560/592 559/591 661/693 
f 657/689 553/585 560/592 552/584 
f 554/586 562/594 561/593 553/585 
f 555/587 563/595 562/594 554/586 
f 556/588 564/596 563/595 555/587 
f 557/589 565/597 564/596 556/588 
f 558/590 566/598 565/597 557/589 
f 559/591 567/599 566/598 558/590 
f 560/592 568/600 567/599 559/591 
f 553/585 561/593 568/600 560/592 
f 562/594 570/602 569/601 561/593 
f 563/595 571/603 570/602 562/594 
f 564/596 572/604 571/603 563/595 
f 565/597 573/605 572/604 564/596 
f 566/598 574/606 573/605 565/597 
f 567/599 575/607 574/606 566/598 
f 568/600 576/608 575/607 567/599 
f 561/593 569/601 576/608 568/600 
f 570/602 578/610 577/609 569/601 
f 571/603 579/611 578/610 570/602 
f 572/604 580/612 579/611 571/603 
f 573/605 581/613 580/612 572/604 
f 574/606 582/614 581/613 573/605 
f 575/607 583/615 582/614 574/606 
f 576/608 584/616 583/615 575/607 
f 569/601 577/609 584/616 576/608 
f 578/610 586/618 585/617 577/609 
f 579/611 587/619 586/618 578/610 
f 580/612 588/620 587/619 579/611 
f 581/613 589/621 588/620 580/612 
f 582/614 590/622 589/621 581/613 
f 583/615 591/623 590/622 582/614 
f 584/616 592/624 591/623 583/615 
f 577/609 585/617 592/624 584/616 
f 586/618 594/626 593/625 585/617 
f 587/619 595/627 594/626 586/618 
f 588/620 596/628 595/627 587/619 
f 589/621 597/629 596/628 588/620 
f 590/622 598/630 597/629 589/621 
f 591/623 599/631 598/630 590/622 
f 592/624 600/632 599/631 591/623 
f 585/617 593/625 600/632 592/624 
f 594/626 602/634 601/633 593/625 
f 595/627 603/635 602/634 594/626 
f 596/628 604/636 603/635 595/627 
f 597/629 605/637 604/636 596/628 
f 598/630 606/638 605/637 597/629 
f 599/631 607/639 606/638 598/630 
f 600/632 608/640 607/639 599/631 
f 593/625 601/633 608/640 600/632 
f 602/634 610/642 609/641 601/633 
f 603/635 611/643 610/642 602/634 
f 604/636 612/644 611/643 603/635 
f 605/637 613/645 612/644 604/636 
f 606/638 614/646 613/645 605/637 
f 607/639 615/647 614/646 606/638 
f 608/640 616/648 615/647 607/639 
f 601/633 609/641 616/648 608/640 
f 610/642 618/650 617/649 609/641 
f 611/643 619/651 618/650 610/642 
f 612/644 620/652 619/651 611/643 
f 613/645 621/653 620/652 612/644 
f 614/646 622/654 621/653 613/645 
f 615/647 623/655 622/654 614/646 
f 616/648 624/656 623/655 615/647 
f 609/641 617/649 624/656 616/648 
f 618/650 626/658 625/657 617/649 
f 619/651 627/659 626/658 618/650 
f 620/652 628/660 627/659 619/651 
f 621/653 629/661 628/660 620/652 
f 622/654 630/662 629/661 621/653 
f 623/655 631/663 630/662 622/654 
f 624/656 632/664 631/663 623/655 
f 617/649 625/657 632/664 624/656 
f 626/658 634/666 633/665 625/657 
f 627/659 635/667 634/666 626/658 
f 628/660 636/668 635/667 627/659 
f 629/661 637/669 636/668 628/660 
f 630/662 638/670 637/669 629/661 
f 631/663 639/671 638/670 630/662 
f 632/664 640/672 639/671 631/663 
f 625/657 633/665 640/672 632/664 
f 634/666 642/674 641/673 633/665 
f 635/667 643/675 642/674 634/666 
f 636/668 644/676 643/675 635/667 
f 637/669 645/677 644/676 636/668 
f 638/670 646/678 645/677 637/669 
f 639/671 647/679 646/678 638/670 
f 640/672 648/680 647/679 639/671 
f 633/665 641/673 648/680 640/672 
f 642/674 663/695 662/694 641/673 
f 643/675 664/696 663/695 642/674 
f 644/676 665/697 664/696 643/675 
f 645/677 666/698 665/697 644/676 
f 646/678 549/581 666/698 645/677 
f 647/679 667/699 549/581 646/678 
f 648/680 668/700 667/699 647/679 
f 641/673 662/694 668/700 648/680 
f 651/683 653/685 656/688 
f 650/682 651/683 656/688 
f 649/681 650/682 656/688 
f 654/686 655/687 656/688 
f 653/685 654/686 656/688 
f 651/683 652/684 653/685 
f 550/582 659/691 552/584 
f 659/691 658/690 552/584 
f 658/690 657/689 552/584 
f 661/693 551/583 552/584 
f 551/583 550/582 552/584 
f 660/692 659/691 550/582 
f 664/696 663/695 662/694 
f 662/694 664/696 665/697 
f 666/698 665/697 662/694 
f 662/694 666/698 668/700 
f 668/700 667/699 666/698 
f 666/698 549/581 667/699 
f 688/720 687/719 669/701 
f 673/705 674/706 672/704 671/703 
f 696/728 670/702 695/727 
f 689/721 688/720 669/701 
f 675/707 676/708 674/706 673/705 
f 697/729 670/702 696/728 
f 690/722 689/721 669/701 
f 677/709 678/710 676/708 675/707 
f 698/730 670/702 697/729 
f 691/723 690/722 669/701 
f 679/711 680/712 678/710 677/709 
f 699/731 670/702 698/730 
f 692/724 691/723 669/701 
f 681/713 682/714 680/712 679/711 
f 700/732 670/702 699/731 
f 693/725 692/724 669/701 
f 683/715 684/716 682/714 681/713 
f 701/733 670/702 700/732 
f 694/726 693/725 669/701 
f 685/717 686/718 684/716 683/715 
f 702/734 670/702 701/733 
f 687/719 694/726 669/701 
f 671/703 672/704 686/718 685/717 
f 695/727 670/702 702/734 
f 671/703 687/719 688/720 673/705 
f 673/705 688/720 689/721 675/707 
f 675/707 689/721 690/722 677/709 
f 677/709 690/722 691/723 679/711 
f 679/711 691/723 692/724 681/713 
f 681/713 692/724 693/725 683/715 
f 683/715 693/725 694/726 685/717 
f 685/717 694/726 687/719 671/703 
f 674/706 696/728 695/727 672/704 
f 676/708 697/729 696/728 674/706 
f 678/710 698/730 697/729 676/708 
f 680/712 699/731 698/730 678/710 
f 682/714 700/732 699/731 680/712 
f 684/716 701/733 700/732 682/714 
f 686/718 702/734 701/733 684/716 
f 672/704 695/727 702/734 686/718 
f 711/743 704/736 709/741 712/744 
f 713/745 716/748 711/743 712/744 
f 717/749 718/750 721/753 722/754 
f 723/755 784/818 786/821 724/756 
f 725/757 788/825 790/830 726/758 
f 727/759 792/834 794/837 728/760 
f 729/761 796/841 798/846 730/762 
f 731/763 812/874 814/878 732/764 
f 733/765 804/858 806/862 734/766 
f 714/746 808/866 810/870 715/747 
f 710/742 800/850 802/854 703/735 
f 704/736 705/737 708/740 709/741 
f 708/740 705/737 706/738 707/739 
f 720/752 721/753 718/750 719/751 
f 713/745 720/752 719/751 716/748 
f 707/739 816/881 818/885 708/740 
f 732/764 814/878 784/818 723/755 
f 715/747 810/870 812/874 731/763 
f 734/766 806/862 808/866 714/746 
f 703/735 802/854 804/858 733/765 
f 730/762 798/846 800/850 710/742 
f 711/743 840/929 842/933 704/736 
f 726/758 790/830 792/834 727/759 
f 741/773 742/774 740/772 735/767 
f 743/775 742/774 741/773 744/776 
f 745/777 750/782 749/781 746/778 
f 724/756 848/945 850/950 723/755 
f 726/758 876/1002 878/1005 725/757 
f 728/760 872/993 874/998 727/759 
f 730/762 868/986 870/989 729/761 
f 732/764 852/954 854/958 731/763 
f 734/766 860/970 862/974 733/765 
f 715/747 856/962 858/966 714/746 
f 703/735 864/978 866/982 710/742 
f 735/767 740/772 739/771 736/768 
f 739/771 738/770 737/769 736/768 
f 748/780 747/779 746/778 749/781 
f 743/775 744/776 747/779 748/780 
f 739/771 880/1009 882/1013 738/770 
f 723/755 850/950 852/954 732/764 
f 731/763 854/958 856/962 715/747 
f 714/746 858/966 860/970 734/766 
f 733/765 862/974 864/978 703/735 
f 710/742 866/982 868/986 730/762 
f 735/767 888/1025 890/1029 741/773 
f 727/759 874/998 876/1002 726/758 
f 751/783 819/888 817/884 752/784 
f 753/785 815/880 845/940 754/786 
f 755/787 843/936 841/932 756/788 
f 757/789 839/928 837/924 758/790 
f 765/797 823/896 821/892 766/798 
f 761/793 831/912 829/908 762/794 
f 763/795 827/904 825/900 764/796 
f 759/791 835/920 833/916 760/792 
f 753/785 787/824 785/820 752/784 
f 766/798 821/892 819/888 751/783 
f 764/796 825/900 823/896 765/797 
f 762/794 829/908 827/904 763/795 
f 760/792 833/916 831/912 761/793 
f 758/790 837/924 835/920 759/791 
f 757/789 795/840 793/836 756/788 
f 754/786 845/940 843/936 755/787 
f 767/799 879/1008 909/1068 768/800 
f 781/813 883/1016 881/1012 782/814 
f 779/811 887/1024 885/1020 780/812 
f 777/809 891/1032 889/1028 778/810 
f 769/801 907/1064 905/1060 770/802 
f 773/805 899/1048 897/1044 774/806 
f 771/803 903/1056 901/1052 772/804 
f 775/807 895/1040 893/1036 776/808 
f 767/799 847/944 877/1004 782/814 
f 768/800 909/1068 907/1064 769/801 
f 770/802 905/1060 903/1056 771/803 
f 772/804 901/1052 899/1048 773/805 
f 774/806 897/1044 895/1040 775/807 
f 776/808 893/1036 891/1032 777/809 
f 779/811 871/992 869/988 778/810 
f 780/812 885/1020 883/1016 781/813 
f 784/817 783/816 785/819 786/822 
f 783/815 751/783 752/784 785/820 
f 788/826 787/823 789/828 790/829 
f 787/824 753/785 754/786 789/827 
f 792/833 791/832 793/835 794/838 
f 791/831 755/787 756/788 793/836 
f 796/842 795/839 797/844 798/845 
f 795/840 757/789 758/790 797/843 
f 812/873 811/872 813/876 814/877 
f 811/871 765/797 766/798 813/875 
f 804/857 803/856 805/860 806/861 
f 803/855 761/793 762/794 805/859 
f 808/865 807/864 809/868 810/869 
f 807/863 763/795 764/796 809/867 
f 800/849 799/848 801/852 802/853 
f 799/847 759/791 760/792 801/851 
f 816/882 815/879 817/883 818/886 
f 815/880 753/785 752/784 817/884 
f 814/877 813/876 783/816 784/817 
f 813/875 766/798 751/783 783/815 
f 810/869 809/868 811/872 812/873 
f 809/867 764/796 765/797 811/871 
f 806/861 805/860 807/864 808/865 
f 805/859 762/794 763/795 807/863 
f 802/853 801/852 803/856 804/857 
f 801/851 760/792 761/793 803/855 
f 798/845 797/844 799/848 800/849 
f 797/843 758/790 759/791 799/847 
f 840/930 839/927 841/931 842/934 
f 839/928 757/789 756/788 841/932 
f 790/829 789/828 791/832 792/833 
f 789/827 754/786 755/787 791/831 
f 848/946 847/943 849/948 850/949 
f 847/944 767/799 768/800 849/947 
f 876/1001 875/1000 877/1003 878/1006 
f 875/999 781/813 782/814 877/1004 
f 872/994 871/991 873/996 874/997 
f 871/992 779/811 780/812 873/995 
f 868/985 867/984 869/987 870/990 
f 867/983 777/809 778/810 869/988 
f 852/953 851/952 853/956 854/957 
f 851/951 769/801 770/802 853/955 
f 860/969 859/968 861/972 862/973 
f 859/967 773/805 774/806 861/971 
f 856/961 855/960 857/964 858/965 
f 855/959 771/803 772/804 857/963 
f 864/977 863/976 865/980 866/981 
f 863/975 775/807 776/808 865/979 
f 880/1010 879/1007 881/1011 882/1014 
f 879/1008 767/799 782/814 881/1012 
f 850/949 849/948 851/952 852/953 
f 849/947 768/800 769/801 851/951 
f 854/957 853/956 855/960 856/961 
f 853/955 770/802 771/803 855/959 
f 858/965 857/964 859/968 860/969 
f 857/963 772/804 773/805 859/967 
f 862/973 861/972 863/976 864/977 
f 861/971 774/806 775/807 863/975 
f 866/981 865/980 867/984 868/985 
f 865/979 776/808 777/809 867/983 
f 888/1026 887/1023 889/1027 890/1030 
f 887/1024 779/811 778/810 889/1028 
f 874/997 873/996 875/1000 876/1001 
f 873/995 780/812 781/813 875/999 
f 819/887 820/890 818/886 817/883 
f 820/889 709/741 708/740 818/885 
f 815/879 816/882 846/942 845/939 
f 816/881 707/739 706/738 846/941 
f 843/935 844/938 842/934 841/931 
f 844/937 705/737 704/736 842/933 
f 839/927 840/930 838/926 837/923 
f 840/929 711/743 716/748 838/925 
f 823/895 824/898 822/894 821/891 
f 824/897 713/745 712/744 822/893 
f 831/911 832/914 830/910 829/907 
f 832/913 717/749 722/754 830/909 
f 827/903 828/906 826/902 825/899 
f 828/905 721/753 720/752 826/901 
f 835/919 836/922 834/918 833/915 
f 836/921 719/751 718/750 834/917 
f 787/823 788/826 786/822 785/819 
f 788/825 725/757 724/756 786/821 
f 821/891 822/894 820/890 819/887 
f 822/893 712/744 709/741 820/889 
f 825/899 826/902 824/898 823/895 
f 826/901 720/752 713/745 824/897 
f 829/907 830/910 828/906 827/903 
f 830/909 722/754 721/753 828/905 
f 833/915 834/918 832/914 831/911 
f 834/917 718/750 717/749 832/913 
f 837/923 838/926 836/922 835/919 
f 838/925 716/748 719/751 836/921 
f 795/839 796/842 794/838 793/835 
f 796/841 729/761 728/760 794/837 
f 845/939 846/942 844/938 843/935 
f 846/941 706/738 705/737 844/937 
f 879/1007 880/1010 910/1070 909/1067 
f 880/1009 739/771 740/772 910/1069 
f 883/1015 884/1018 882/1014 881/1011 
f 884/1017 737/769 738/770 882/1013 
f 887/1023 888/1026 886/1022 885/1019 
f 888/1025 735/767 736/768 886/1021 
f 891/1031 892/1034 890/1030 889/1027 
f 892/1033 744/776 741/773 890/1029 
f 907/1063 908/1066 906/1062 905/1059 
f 908/1065 742/774 743/775 906/1061 
f 899/1047 900/1050 898/1046 897/1043 
f 900/1049 750/782 745/777 898/1045 
f 903/1055 904/1058 902/1054 901/1051 
f 904/1057 748/780 749/781 902/1053 
f 895/1039 896/1042 894/1038 893/1035 
f 896/1041 746/778 747/779 894/1037 
f 847/943 848/946 878/1006 877/1003 
f 848/945 724/756 725/757 878/1005 
f 909/1067 910/1070 908/1066 907/1063 
f 910/1069 740/772 742/774 908/1065 
f 905/1059 906/1062 904/1058 903/1055 
f 906/1061 743/775 748/780 904/1057 
f 901/1051 902/1054 900/1050 899/1047 
f 902/1053 749/781 750/782 900/1049 
f 897/1043 898/1046 896/1042 895/1039 
f 898/1045 745/777 746/778 896/1041 
f 893/1035 894/1038 892/1034 891/1031 
f 894/1037 747/779 744/776 892/1033 
f 871/991 872/994 870/990 869/987 
f 872/993 728/760 729/761 870/989 
f 885/1019 886/1022 884/1018 883/1015 
f 886/1021 736/768 737/769 884/1017 

