# This file uses meters as units for non-parametric coordinates.

mtllib Pillar up.mtl
g default
v 152.000000 324.894631 185.881553
v 158.000000 324.894631 185.881553
v 152.000000 330.894631 185.881553
v 158.000000 330.894631 185.881553
v 152.000000 280.894632 -212.832847
v 158.000000 280.894632 -212.832847
v 152.000000 274.894632 -212.832847
v 158.000000 274.894632 -212.832847
v 158.000000 280.894632 -13.475647
v 152.000000 280.894632 -13.475647
v 152.000000 274.894632 -13.475647
v 158.000000 274.894632 -13.475647
vt 0.824979 0.721396
vt 0.824979 0.542279
vt 0.830371 0.542279
vt 0.830371 0.721396
vt 0.824979 0.363162
vt 0.830371 0.363162
vt 0.832692 0.542279
vt 0.832692 0.363162
vt 0.838084 0.363162
vt 0.838084 0.542279
vt 0.832692 0.721396
vt 0.838084 0.721396
vt 0.809489 0.363162
vt 0.814881 0.363162
vt 0.814881 0.542279
vt 0.809489 0.542279
vt 0.814881 0.721396
vt 0.809489 0.721396
vt 0.817266 0.542279
vt 0.822658 0.542279
vt 0.822658 0.721396
vt 0.817266 0.721396
vt 0.817266 0.363162
vt 0.822658 0.363162
vt 0.848117 0.363162
vt 0.853509 0.363162
vt 0.853509 0.368554
vt 0.848117 0.368554
vt 0.840405 0.363162
vt 0.845796 0.363162
vt 0.845796 0.368554
vt 0.840405 0.368554
vn 0.000000 0.000000 1.000000
vn 0.000000 0.000000 1.000000
vn 0.000000 0.000000 1.000000
vn 0.000000 0.000000 1.000000
vn 0.000000 0.969958 -0.243271
vn 0.000000 0.969958 -0.243271
vn 0.000000 0.992229 -0.124428
vn 0.000000 0.992229 -0.124428
vn 0.000000 0.000000 -1.000000
vn 0.000000 0.000000 -1.000000
vn 0.000000 0.000000 -1.000000
vn 0.000000 0.000000 -1.000000
vn 0.000000 -0.992229 0.124428
vn 0.000000 -0.992229 0.124428
vn 0.000000 -0.969958 0.243271
vn 0.000000 -0.969958 0.243271
vn 1.000000 0.000000 0.000000
vn 1.000000 0.000000 0.000000
vn 1.000000 0.000000 0.000000
vn 1.000000 0.000000 0.000000
vn -1.000000 0.000000 0.000000
vn -1.000000 0.000000 0.000000
vn -1.000000 0.000000 0.000000
vn -1.000000 0.000000 0.000000
vn 0.000000 1.000000 0.000000
vn 0.000000 1.000000 0.000000
vn -1.000000 0.000000 0.000000
vn -1.000000 0.000000 0.000000
vn 0.000000 -1.000000 0.000000
vn 0.000000 -1.000000 0.000000
vn 1.000000 0.000000 0.000000
vn 1.000000 0.000000 0.000000
s off
g Cable13
usemtl lambert3SG
f 1/25/1 2/26/2 4/27/3 3/28/4
s 1
f 3/13/5 4/14/6 9/15/7 10/16/8
s off
f 5/29/9 6/30/10 8/31/11 7/32/12
s 2
f 11/19/13 12/20/14 2/21/15 1/22/16
s 3
f 2/1/17 12/2/18 9/3/19 4/4/20
s 4
f 11/7/21 1/8/22 3/9/23 10/10/24
s 1
f 10/16/8 9/15/7 6/17/25 5/18/26
s 4
f 7/11/27 11/7/21 10/10/24 5/12/28
s 2
f 7/23/29 8/24/30 12/20/14 11/19/13
s 3
f 9/3/19 12/2/18 8/5/31 6/6/32
g default
v -158.000000 324.894631 185.881553
v -152.000000 324.894631 185.881553
v -158.000000 330.894631 185.881553
v -152.000000 330.894631 185.881553
v -158.000000 280.894632 -212.832847
v -152.000000 280.894632 -212.832847
v -158.000000 274.894632 -212.832847
v -152.000000 274.894632 -212.832847
v -152.000000 280.894632 -13.475647
v -158.000000 280.894632 -13.475647
v -158.000000 274.894632 -13.475647
v -152.000000 274.894632 -13.475647
vt 0.824979 0.721396
vt 0.824979 0.542279
vt 0.830371 0.542279
vt 0.830371 0.721396
vt 0.824979 0.363162
vt 0.830371 0.363162
vt 0.832692 0.542279
vt 0.832692 0.363162
vt 0.838084 0.363162
vt 0.838084 0.542279
vt 0.832692 0.721396
vt 0.838084 0.721396
vt 0.809489 0.363162
vt 0.814881 0.363162
vt 0.814881 0.542279
vt 0.809489 0.542279
vt 0.814881 0.721396
vt 0.809489 0.721396
vt 0.817266 0.542279
vt 0.822658 0.542279
vt 0.822658 0.721396
vt 0.817266 0.721396
vt 0.817266 0.363162
vt 0.822658 0.363162
vt 0.848117 0.363162
vt 0.853509 0.363162
vt 0.853509 0.368554
vt 0.848117 0.368554
vt 0.840405 0.363162
vt 0.845796 0.363162
vt 0.845796 0.368554
vt 0.840405 0.368554
vn 0.000000 0.000000 1.000000
vn 0.000000 0.000000 1.000000
vn 0.000000 0.000000 1.000000
vn 0.000000 0.000000 1.000000
vn 0.000000 0.969958 -0.243271
vn 0.000000 0.969958 -0.243271
vn 0.000000 0.992229 -0.124428
vn 0.000000 0.992229 -0.124428
vn 0.000000 0.000000 -1.000000
vn 0.000000 0.000000 -1.000000
vn 0.000000 0.000000 -1.000000
vn 0.000000 0.000000 -1.000000
vn 0.000000 -0.992229 0.124428
vn 0.000000 -0.992229 0.124428
vn 0.000000 -0.969958 0.243271
vn 0.000000 -0.969958 0.243271
vn 1.000000 0.000000 0.000000
vn 1.000000 0.000000 0.000000
vn 1.000000 0.000000 0.000000
vn 1.000000 0.000000 0.000000
vn -1.000000 0.000000 0.000000
vn -1.000000 0.000000 0.000000
vn -1.000000 0.000000 0.000000
vn -1.000000 0.000000 0.000000
vn 0.000000 1.000000 0.000000
vn 0.000000 1.000000 0.000000
vn -1.000000 0.000000 0.000000
vn -1.000000 0.000000 0.000000
vn 0.000000 -1.000000 0.000000
vn 0.000000 -1.000000 0.000000
vn 1.000000 0.000000 0.000000
vn 1.000000 0.000000 0.000000
s off
g Cable12
usemtl lambert3SG
f 13/57/33 14/58/34 16/59/35 15/60/36
s 1
f 15/45/37 16/46/38 21/47/39 22/48/40
s off
f 17/61/41 18/62/42 20/63/43 19/64/44
s 2
f 23/51/45 24/52/46 14/53/47 13/54/48
s 3
f 14/33/49 24/34/50 21/35/51 16/36/52
s 4
f 23/39/53 13/40/54 15/41/55 22/42/56
s 1
f 22/48/40 21/47/39 18/49/57 17/50/58
s 4
f 19/43/59 23/39/53 22/42/56 17/44/60
s 2
f 19/55/61 20/56/62 24/52/46 23/51/45
s 3
f 21/35/51 24/34/50 20/37/63 18/38/64
g default
v 148.255452 292.456939 77.104490
v 148.255452 283.456937 83.643374
v 148.255452 272.332323 83.643371
v 148.255452 263.332323 77.104487
v 148.255452 259.894629 66.524352
v 148.255452 263.332325 55.944216
v 148.255452 272.332327 49.405334
v 148.255452 283.456939 49.405335
v 148.255452 292.456939 55.944218
v 148.255452 295.894632 66.524353
v 160.855452 292.456939 77.104490
v 160.855452 283.456937 83.643374
v 160.855452 272.332323 83.643371
v 160.855452 263.332323 77.104487
v 160.855452 259.894629 66.524352
v 160.855452 263.332325 55.944216
v 160.855452 272.332327 49.405334
v 160.855452 283.456939 49.405335
v 160.855452 292.456939 55.944218
v 160.855452 295.894632 66.524353
v 148.255452 277.894632 66.524353
v 160.855452 277.894632 66.524353
vt 0.020061 0.191999
vt 0.061206 0.221893
vt 0.112065 0.221893
vt 0.153210 0.191999
vt 0.168926 0.143630
vt 0.153210 0.095261
vt 0.112064 0.065367
vt 0.061206 0.065367
vt 0.020061 0.095261
vt 0.004345 0.143630
vt 0.334322 0.059068
vt 0.301818 0.059067
vt 0.269315 0.059067
vt 0.236812 0.059067
vt 0.204309 0.059067
vt 0.171805 0.059067
vt 0.139302 0.059067
vt 0.106799 0.059067
vt 0.074295 0.059067
vt 0.041792 0.059067
vt 0.009288 0.059067
vt 0.334322 0.006902
vt 0.301819 0.006901
vt 0.269315 0.006901
vt 0.236812 0.006901
vt 0.204309 0.006901
vt 0.171805 0.006901
vt 0.139302 0.006901
vt 0.106799 0.006901
vt 0.074295 0.006901
vt 0.041792 0.006901
vt 0.009288 0.006901
vt 0.020061 0.191999
vt 0.061206 0.221893
vt 0.112065 0.221893
vt 0.153210 0.191999
vt 0.168926 0.143630
vt 0.153210 0.095261
vt 0.112064 0.065367
vt 0.061206 0.065367
vt 0.020061 0.095261
vt 0.004345 0.143630
vt 0.086635 0.146922
vt 0.086635 0.146922
vn -0.000000 0.587785 0.809017
vn -0.000000 0.587785 0.809017
vn -0.000000 0.587785 0.809017
vn -0.000000 0.587785 0.809017
vn -0.000000 -0.000000 1.000000
vn -0.000000 -0.000000 1.000000
vn -0.000000 -0.000000 1.000000
vn -0.000000 -0.000000 1.000000
vn -0.000000 -0.587785 0.809017
vn -0.000000 -0.587785 0.809017
vn -0.000000 -0.587785 0.809017
vn -0.000000 -0.587785 0.809017
vn -0.000000 -0.951057 0.309017
vn -0.000000 -0.951057 0.309017
vn -0.000000 -0.951057 0.309017
vn -0.000000 -0.951057 0.309017
vn 0.000000 -0.951056 -0.309017
vn 0.000000 -0.951056 -0.309017
vn 0.000000 -0.951056 -0.309017
vn 0.000000 -0.951056 -0.309017
vn 0.000000 -0.587785 -0.809017
vn 0.000000 -0.587785 -0.809017
vn 0.000000 -0.587785 -0.809017
vn 0.000000 -0.587785 -0.809017
vn 0.000000 0.000000 -1.000000
vn 0.000000 0.000000 -1.000000
vn 0.000000 0.000000 -1.000000
vn 0.000000 0.000000 -1.000000
vn 0.000000 0.587785 -0.809017
vn 0.000000 0.587785 -0.809017
vn 0.000000 0.587785 -0.809017
vn 0.000000 0.587785 -0.809017
vn 0.000000 0.951056 -0.309017
vn 0.000000 0.951056 -0.309017
vn 0.000000 0.951056 -0.309017
vn 0.000000 0.951056 -0.309017
vn -0.000000 0.951057 0.309017
vn -0.000000 0.951057 0.309017
vn -0.000000 0.951057 0.309017
vn -0.000000 0.951057 0.309017
vn -1.000000 -0.000000 -0.000000
vn -1.000000 -0.000000 -0.000000
vn -1.000000 -0.000000 -0.000000
vn -1.000000 -0.000000 -0.000000
vn -1.000000 -0.000000 -0.000000
vn -1.000000 -0.000000 -0.000000
vn -1.000000 -0.000000 -0.000000
vn -1.000000 -0.000000 -0.000000
vn -1.000000 -0.000000 -0.000000
vn -1.000000 -0.000000 -0.000000
vn -1.000000 -0.000000 -0.000000
vn 1.000000 0.000000 0.000000
vn 1.000000 0.000000 0.000000
vn 1.000000 0.000000 0.000000
vn 1.000000 0.000000 0.000000
vn 1.000000 0.000000 0.000000
vn 1.000000 0.000000 0.000000
vn 1.000000 0.000000 0.000000
vn 1.000000 0.000000 0.000000
vn 1.000000 0.000000 -0.000000
vn 1.000000 0.000000 0.000000
vn 1.000000 0.000000 0.000000
s off
g Roller49
usemtl lambert3SG
f 25/75/65 26/76/66 36/87/67 35/86/68
f 26/76/69 27/77/70 37/88/71 36/87/72
f 27/77/73 28/78/74 38/89/75 37/88/76
f 28/78/77 29/79/78 39/90/79 38/89/80
f 29/79/81 30/80/82 40/91/83 39/90/84
f 30/80/85 31/81/86 41/92/87 40/91/88
f 31/81/89 32/82/90 42/93/91 41/92/92
f 32/82/93 33/83/94 43/94/95 42/93/96
f 33/83/97 34/84/98 44/95/99 43/94/100
f 34/84/101 25/85/102 35/96/103 44/95/104
s 1
f 26/66/105 25/65/106 45/107/107
f 27/67/108 26/66/105 45/107/107
f 28/68/109 27/67/108 45/107/107
f 29/69/110 28/68/109 45/107/107
f 30/70/111 29/69/110 45/107/107
f 31/71/112 30/70/111 45/107/107
f 32/72/113 31/71/112 45/107/107
f 33/73/114 32/72/113 45/107/107
f 34/74/115 33/73/114 45/107/107
f 25/65/106 34/74/115 45/107/107
s 2
f 35/105/116 36/104/117 46/108/118
f 36/104/117 37/103/119 46/108/118
f 37/103/119 38/102/120 46/108/118
f 38/102/120 39/101/121 46/108/118
f 39/101/121 40/100/122 46/108/118
f 40/100/122 41/99/123 46/108/118
f 41/99/123 42/98/124 46/108/118
f 42/98/124 43/97/125 46/108/118
f 43/97/125 44/106/126 46/108/118
f 44/106/126 35/105/116 46/108/118
g default
v 148.255452 282.456939 37.104490
v 148.255452 273.456937 43.643374
v 148.255452 262.332323 43.643371
v 148.255452 253.332323 37.104487
v 148.255452 249.894629 26.524352
v 148.255452 253.332325 15.944216
v 148.255452 262.332327 9.405334
v 148.255452 273.456939 9.405335
v 148.255452 282.456939 15.944218
v 148.255452 285.894632 26.524353
v 160.855452 282.456939 37.104490
v 160.855452 273.456937 43.643374
v 160.855452 262.332323 43.643371
v 160.855452 253.332323 37.104487
v 160.855452 249.894629 26.524352
v 160.855452 253.332325 15.944216
v 160.855452 262.332327 9.405334
v 160.855452 273.456939 9.405335
v 160.855452 282.456939 15.944218
v 160.855452 285.894632 26.524353
v 148.255452 267.894632 26.524353
v 160.855452 267.894632 26.524353
vt 0.020061 0.191999
vt 0.061206 0.221893
vt 0.112065 0.221893
vt 0.153210 0.191999
vt 0.168926 0.143630
vt 0.153210 0.095261
vt 0.112064 0.065367
vt 0.061206 0.065367
vt 0.020061 0.095261
vt 0.004345 0.143630
vt 0.334322 0.059068
vt 0.301818 0.059067
vt 0.269315 0.059067
vt 0.236812 0.059067
vt 0.204309 0.059067
vt 0.171805 0.059067
vt 0.139302 0.059067
vt 0.106799 0.059067
vt 0.074295 0.059067
vt 0.041792 0.059067
vt 0.009288 0.059067
vt 0.334322 0.006902
vt 0.301819 0.006901
vt 0.269315 0.006901
vt 0.236812 0.006901
vt 0.204309 0.006901
vt 0.171805 0.006901
vt 0.139302 0.006901
vt 0.106799 0.006901
vt 0.074295 0.006901
vt 0.041792 0.006901
vt 0.009288 0.006901
vt 0.020061 0.191999
vt 0.061206 0.221893
vt 0.112065 0.221893
vt 0.153210 0.191999
vt 0.168926 0.143630
vt 0.153210 0.095261
vt 0.112064 0.065367
vt 0.061206 0.065367
vt 0.020061 0.095261
vt 0.004345 0.143630
vt 0.086635 0.146922
vt 0.086635 0.146922
vn -0.000000 0.587785 0.809017
vn -0.000000 0.587785 0.809017
vn -0.000000 0.587785 0.809017
vn -0.000000 0.587785 0.809017
vn -0.000000 -0.000000 1.000000
vn -0.000000 -0.000000 1.000000
vn -0.000000 -0.000000 1.000000
vn -0.000000 -0.000000 1.000000
vn -0.000000 -0.587785 0.809017
vn -0.000000 -0.587785 0.809017
vn -0.000000 -0.587785 0.809017
vn -0.000000 -0.587785 0.809017
vn -0.000000 -0.951057 0.309017
vn -0.000000 -0.951057 0.309017
vn -0.000000 -0.951057 0.309017
vn -0.000000 -0.951057 0.309017
vn 0.000000 -0.951056 -0.309017
vn 0.000000 -0.951056 -0.309017
vn 0.000000 -0.951056 -0.309017
vn 0.000000 -0.951056 -0.309017
vn 0.000000 -0.587785 -0.809017
vn 0.000000 -0.587785 -0.809017
vn 0.000000 -0.587785 -0.809017
vn 0.000000 -0.587785 -0.809017
vn 0.000000 0.000000 -1.000000
vn 0.000000 0.000000 -1.000000
vn 0.000000 0.000000 -1.000000
vn 0.000000 0.000000 -1.000000
vn 0.000000 0.587785 -0.809017
vn 0.000000 0.587785 -0.809017
vn 0.000000 0.587785 -0.809017
vn 0.000000 0.587785 -0.809017
vn 0.000000 0.951056 -0.309017
vn 0.000000 0.951056 -0.309017
vn 0.000000 0.951056 -0.309017
vn 0.000000 0.951056 -0.309017
vn -0.000000 0.951057 0.309017
vn -0.000000 0.951057 0.309017
vn -0.000000 0.951057 0.309017
vn -0.000000 0.951057 0.309017
vn -1.000000 -0.000000 -0.000000
vn -1.000000 -0.000000 -0.000000
vn -1.000000 -0.000000 -0.000000
vn -1.000000 -0.000000 -0.000000
vn -1.000000 -0.000000 -0.000000
vn -1.000000 -0.000000 -0.000000
vn -1.000000 -0.000000 -0.000000
vn -1.000000 -0.000000 -0.000000
vn -1.000000 -0.000000 -0.000000
vn -1.000000 -0.000000 -0.000000
vn -1.000000 -0.000000 -0.000000
vn 1.000000 0.000000 0.000000
vn 1.000000 0.000000 0.000000
vn 1.000000 0.000000 0.000000
vn 1.000000 0.000000 0.000000
vn 1.000000 0.000000 0.000000
vn 1.000000 0.000000 0.000000
vn 1.000000 0.000000 0.000000
vn 1.000000 0.000000 0.000000
vn 1.000000 0.000000 -0.000000
vn 1.000000 0.000000 0.000000
vn 1.000000 0.000000 0.000000
s off
g Roller48
usemtl lambert3SG
f 47/119/127 48/120/128 58/131/129 57/130/130
f 48/120/131 49/121/132 59/132/133 58/131/134
f 49/121/135 50/122/136 60/133/137 59/132/138
f 50/122/139 51/123/140 61/134/141 60/133/142
f 51/123/143 52/124/144 62/135/145 61/134/146
f 52/124/147 53/125/148 63/136/149 62/135/150
f 53/125/151 54/126/152 64/137/153 63/136/154
f 54/126/155 55/127/156 65/138/157 64/137/158
f 55/127/159 56/128/160 66/139/161 65/138/162
f 56/128/163 47/129/164 57/140/165 66/139/166
s 1
f 48/110/167 47/109/168 67/151/169
f 49/111/170 48/110/167 67/151/169
f 50/112/171 49/111/170 67/151/169
f 51/113/172 50/112/171 67/151/169
f 52/114/173 51/113/172 67/151/169
f 53/115/174 52/114/173 67/151/169
f 54/116/175 53/115/174 67/151/169
f 55/117/176 54/116/175 67/151/169
f 56/118/177 55/117/176 67/151/169
f 47/109/168 56/118/177 67/151/169
s 2
f 57/149/178 58/148/179 68/152/180
f 58/148/179 59/147/181 68/152/180
f 59/147/181 60/146/182 68/152/180
f 60/146/182 61/145/183 68/152/180
f 61/145/183 62/144/184 68/152/180
f 62/144/184 63/143/185 68/152/180
f 63/143/185 64/142/186 68/152/180
f 64/142/186 65/141/187 68/152/180
f 65/141/187 66/150/188 68/152/180
f 66/150/188 57/149/178 68/152/180
g default
v 148.255452 272.456939 -2.895510
v 148.255452 263.456937 3.643374
v 148.255452 252.332323 3.643371
v 148.255452 243.332323 -2.895513
v 148.255452 239.894629 -13.475648
v 148.255452 243.332325 -24.055784
v 148.255452 252.332327 -30.594666
v 148.255452 263.456939 -30.594665
v 148.255452 272.456939 -24.055782
v 148.255452 275.894632 -13.475647
v 160.855452 272.456939 -2.895510
v 160.855452 263.456937 3.643374
v 160.855452 252.332323 3.643371
v 160.855452 243.332323 -2.895513
v 160.855452 239.894629 -13.475648
v 160.855452 243.332325 -24.055784
v 160.855452 252.332327 -30.594666
v 160.855452 263.456939 -30.594665
v 160.855452 272.456939 -24.055782
v 160.855452 275.894632 -13.475647
v 148.255452 257.894632 -13.475647
v 160.855452 257.894632 -13.475647
vt 0.020061 0.191999
vt 0.061206 0.221893
vt 0.112065 0.221893
vt 0.153210 0.191999
vt 0.168926 0.143630
vt 0.153210 0.095261
vt 0.112064 0.065367
vt 0.061206 0.065367
vt 0.020061 0.095261
vt 0.004345 0.143630
vt 0.334322 0.059068
vt 0.301818 0.059067
vt 0.269315 0.059067
vt 0.236812 0.059067
vt 0.204309 0.059067
vt 0.171805 0.059067
vt 0.139302 0.059067
vt 0.106799 0.059067
vt 0.074295 0.059067
vt 0.041792 0.059067
vt 0.009288 0.059067
vt 0.334322 0.006902
vt 0.301819 0.006901
vt 0.269315 0.006901
vt 0.236812 0.006901
vt 0.204309 0.006901
vt 0.171805 0.006901
vt 0.139302 0.006901
vt 0.106799 0.006901
vt 0.074295 0.006901
vt 0.041792 0.006901
vt 0.009288 0.006901
vt 0.020061 0.191999
vt 0.061206 0.221893
vt 0.112065 0.221893
vt 0.153210 0.191999
vt 0.168926 0.143630
vt 0.153210 0.095261
vt 0.112064 0.065367
vt 0.061206 0.065367
vt 0.020061 0.095261
vt 0.004345 0.143630
vt 0.086635 0.146922
vt 0.086635 0.146922
vn -0.000000 0.587785 0.809017
vn -0.000000 0.587785 0.809017
vn -0.000000 0.587785 0.809017
vn -0.000000 0.587785 0.809017
vn -0.000000 -0.000000 1.000000
vn -0.000000 -0.000000 1.000000
vn -0.000000 -0.000000 1.000000
vn -0.000000 -0.000000 1.000000
vn -0.000000 -0.587785 0.809017
vn -0.000000 -0.587785 0.809017
vn -0.000000 -0.587785 0.809017
vn -0.000000 -0.587785 0.809017
vn -0.000000 -0.951057 0.309017
vn -0.000000 -0.951057 0.309017
vn -0.000000 -0.951057 0.309017
vn -0.000000 -0.951057 0.309017
vn 0.000000 -0.951056 -0.309017
vn 0.000000 -0.951056 -0.309017
vn 0.000000 -0.951056 -0.309017
vn 0.000000 -0.951056 -0.309017
vn 0.000000 -0.587785 -0.809017
vn 0.000000 -0.587785 -0.809017
vn 0.000000 -0.587785 -0.809017
vn 0.000000 -0.587785 -0.809017
vn 0.000000 0.000000 -1.000000
vn 0.000000 0.000000 -1.000000
vn 0.000000 0.000000 -1.000000
vn 0.000000 0.000000 -1.000000
vn 0.000000 0.587785 -0.809017
vn 0.000000 0.587785 -0.809017
vn 0.000000 0.587785 -0.809017
vn 0.000000 0.587785 -0.809017
vn 0.000000 0.951056 -0.309017
vn 0.000000 0.951056 -0.309017
vn 0.000000 0.951056 -0.309017
vn 0.000000 0.951056 -0.309017
vn -0.000000 0.951057 0.309017
vn -0.000000 0.951057 0.309017
vn -0.000000 0.951057 0.309017
vn -0.000000 0.951057 0.309017
vn -1.000000 -0.000000 -0.000000
vn -1.000000 -0.000000 -0.000000
vn -1.000000 -0.000000 -0.000000
vn -1.000000 -0.000000 -0.000000
vn -1.000000 -0.000000 -0.000000
vn -1.000000 -0.000000 -0.000000
vn -1.000000 -0.000000 -0.000000
vn -1.000000 -0.000000 -0.000000
vn -1.000000 -0.000000 -0.000000
vn -1.000000 -0.000000 -0.000000
vn -1.000000 -0.000000 -0.000000
vn 1.000000 0.000000 0.000000
vn 1.000000 0.000000 0.000000
vn 1.000000 0.000000 0.000000
vn 1.000000 0.000000 0.000000
vn 1.000000 0.000000 0.000000
vn 1.000000 0.000000 0.000000
vn 1.000000 0.000000 0.000000
vn 1.000000 0.000000 0.000000
vn 1.000000 0.000000 -0.000000
vn 1.000000 0.000000 0.000000
vn 1.000000 0.000000 0.000000
s off
g Roller47
usemtl lambert3SG
f 69/163/189 70/164/190 80/175/191 79/174/192
f 70/164/193 71/165/194 81/176/195 80/175/196
f 71/165/197 72/166/198 82/177/199 81/176/200
f 72/166/201 73/167/202 83/178/203 82/177/204
f 73/167/205 74/168/206 84/179/207 83/178/208
f 74/168/209 75/169/210 85/180/211 84/179/212
f 75/169/213 76/170/214 86/181/215 85/180/216
f 76/170/217 77/171/218 87/182/219 86/181/220
f 77/171/221 78/172/222 88/183/223 87/182/224
f 78/172/225 69/173/226 79/184/227 88/183/228
s 1
f 70/154/229 69/153/230 89/195/231
f 71/155/232 70/154/229 89/195/231
f 72/156/233 71/155/232 89/195/231
f 73/157/234 72/156/233 89/195/231
f 74/158/235 73/157/234 89/195/231
f 75/159/236 74/158/235 89/195/231
f 76/160/237 75/159/236 89/195/231
f 77/161/238 76/160/237 89/195/231
f 78/162/239 77/161/238 89/195/231
f 69/153/230 78/162/239 89/195/231
s 2
f 79/193/240 80/192/241 90/196/242
f 80/192/241 81/191/243 90/196/242
f 81/191/243 82/190/244 90/196/242
f 82/190/244 83/189/245 90/196/242
f 83/189/245 84/188/246 90/196/242
f 84/188/246 85/187/247 90/196/242
f 85/187/247 86/186/248 90/196/242
f 86/186/248 87/185/249 90/196/242
f 87/185/249 88/194/250 90/196/242
f 88/194/250 79/193/240 90/196/242
g default
v 148.255452 272.456939 -42.895510
v 148.255452 263.456937 -36.356626
v 148.255452 252.332323 -36.356629
v 148.255452 243.332323 -42.895513
v 148.255452 239.894629 -53.475648
v 148.255452 243.332325 -64.055784
v 148.255452 252.332327 -70.594666
v 148.255452 263.456939 -70.594665
v 148.255452 272.456939 -64.055782
v 148.255452 275.894632 -53.475647
v 160.855452 272.456939 -42.895510
v 160.855452 263.456937 -36.356626
v 160.855452 252.332323 -36.356629
v 160.855452 243.332323 -42.895513
v 160.855452 239.894629 -53.475648
v 160.855452 243.332325 -64.055784
v 160.855452 252.332327 -70.594666
v 160.855452 263.456939 -70.594665
v 160.855452 272.456939 -64.055782
v 160.855452 275.894632 -53.475647
v 148.255452 257.894632 -53.475647
v 160.855452 257.894632 -53.475647
vt 0.020061 0.191999
vt 0.061206 0.221893
vt 0.112065 0.221893
vt 0.153210 0.191999
vt 0.168926 0.143630
vt 0.153210 0.095261
vt 0.112064 0.065367
vt 0.061206 0.065367
vt 0.020061 0.095261
vt 0.004345 0.143630
vt 0.334322 0.059068
vt 0.301818 0.059067
vt 0.269315 0.059067
vt 0.236812 0.059067
vt 0.204309 0.059067
vt 0.171805 0.059067
vt 0.139302 0.059067
vt 0.106799 0.059067
vt 0.074295 0.059067
vt 0.041792 0.059067
vt 0.009288 0.059067
vt 0.334322 0.006902
vt 0.301819 0.006901
vt 0.269315 0.006901
vt 0.236812 0.006901
vt 0.204309 0.006901
vt 0.171805 0.006901
vt 0.139302 0.006901
vt 0.106799 0.006901
vt 0.074295 0.006901
vt 0.041792 0.006901
vt 0.009288 0.006901
vt 0.020061 0.191999
vt 0.061206 0.221893
vt 0.112065 0.221893
vt 0.153210 0.191999
vt 0.168926 0.143630
vt 0.153210 0.095261
vt 0.112064 0.065367
vt 0.061206 0.065367
vt 0.020061 0.095261
vt 0.004345 0.143630
vt 0.086635 0.146922
vt 0.086635 0.146922
vn -0.000000 0.587785 0.809017
vn -0.000000 0.587785 0.809017
vn -0.000000 0.587785 0.809017
vn -0.000000 0.587785 0.809017
vn -0.000000 -0.000000 1.000000
vn -0.000000 -0.000000 1.000000
vn -0.000000 -0.000000 1.000000
vn -0.000000 -0.000000 1.000000
vn -0.000000 -0.587785 0.809017
vn -0.000000 -0.587785 0.809017
vn -0.000000 -0.587785 0.809017
vn -0.000000 -0.587785 0.809017
vn -0.000000 -0.951057 0.309017
vn -0.000000 -0.951057 0.309017
vn -0.000000 -0.951057 0.309017
vn -0.000000 -0.951057 0.309017
vn 0.000000 -0.951056 -0.309017
vn 0.000000 -0.951056 -0.309017
vn 0.000000 -0.951056 -0.309017
vn 0.000000 -0.951056 -0.309017
vn 0.000000 -0.587785 -0.809017
vn 0.000000 -0.587785 -0.809017
vn 0.000000 -0.587785 -0.809017
vn 0.000000 -0.587785 -0.809017
vn 0.000000 0.000000 -1.000000
vn 0.000000 0.000000 -1.000000
vn 0.000000 0.000000 -1.000000
vn 0.000000 0.000000 -1.000000
vn 0.000000 0.587785 -0.809017
vn 0.000000 0.587785 -0.809017
vn 0.000000 0.587785 -0.809017
vn 0.000000 0.587785 -0.809017
vn 0.000000 0.951056 -0.309017
vn 0.000000 0.951056 -0.309017
vn 0.000000 0.951056 -0.309017
vn 0.000000 0.951056 -0.309017
vn -0.000000 0.951057 0.309017
vn -0.000000 0.951057 0.309017
vn -0.000000 0.951057 0.309017
vn -0.000000 0.951057 0.309017
vn -1.000000 -0.000000 -0.000000
vn -1.000000 -0.000000 -0.000000
vn -1.000000 -0.000000 -0.000000
vn -1.000000 -0.000000 -0.000000
vn -1.000000 -0.000000 -0.000000
vn -1.000000 -0.000000 -0.000000
vn -1.000000 -0.000000 -0.000000
vn -1.000000 -0.000000 -0.000000
vn -1.000000 -0.000000 -0.000000
vn -1.000000 -0.000000 -0.000000
vn -1.000000 -0.000000 -0.000000
vn 1.000000 0.000000 0.000000
vn 1.000000 0.000000 0.000000
vn 1.000000 0.000000 0.000000
vn 1.000000 0.000000 0.000000
vn 1.000000 0.000000 0.000000
vn 1.000000 0.000000 0.000000
vn 1.000000 0.000000 0.000000
vn 1.000000 0.000000 0.000000
vn 1.000000 0.000000 -0.000000
vn 1.000000 0.000000 0.000000
vn 1.000000 0.000000 0.000000
s off
g Roller46
usemtl lambert3SG
f 91/207/251 92/208/252 102/219/253 101/218/254
f 92/208/255 93/209/256 103/220/257 102/219/258
f 93/209/259 94/210/260 104/221/261 103/220/262
f 94/210/263 95/211/264 105/222/265 104/221/266
f 95/211/267 96/212/268 106/223/269 105/222/270
f 96/212/271 97/213/272 107/224/273 106/223/274
f 97/213/275 98/214/276 108/225/277 107/224/278
f 98/214/279 99/215/280 109/226/281 108/225/282
f 99/215/283 100/216/284 110/227/285 109/226/286
f 100/216/287 91/217/288 101/228/289 110/227/290
s 1
f 92/198/291 91/197/292 111/239/293
f 93/199/294 92/198/291 111/239/293
f 94/200/295 93/199/294 111/239/293
f 95/201/296 94/200/295 111/239/293
f 96/202/297 95/201/296 111/239/293
f 97/203/298 96/202/297 111/239/293
f 98/204/299 97/203/298 111/239/293
f 99/205/300 98/204/299 111/239/293
f 100/206/301 99/205/300 111/239/293
f 91/197/292 100/206/301 111/239/293
s 2
f 101/237/302 102/236/303 112/240/304
f 102/236/303 103/235/305 112/240/304
f 103/235/305 104/234/306 112/240/304
f 104/234/306 105/233/307 112/240/304
f 105/233/307 106/232/308 112/240/304
f 106/232/308 107/231/309 112/240/304
f 107/231/309 108/230/310 112/240/304
f 108/230/310 109/229/311 112/240/304
f 109/229/311 110/238/312 112/240/304
f 110/238/312 101/237/302 112/240/304
g default
v 148.255452 272.456939 -82.895510
v 148.255452 263.456937 -76.356626
v 148.255452 252.332323 -76.356629
v 148.255452 243.332323 -82.895513
v 148.255452 239.894629 -93.475648
v 148.255452 243.332325 -104.055784
v 148.255452 252.332327 -110.594666
v 148.255452 263.456939 -110.594665
v 148.255452 272.456939 -104.055782
v 148.255452 275.894632 -93.475647
v 160.855452 272.456939 -82.895510
v 160.855452 263.456937 -76.356626
v 160.855452 252.332323 -76.356629
v 160.855452 243.332323 -82.895513
v 160.855452 239.894629 -93.475648
v 160.855452 243.332325 -104.055784
v 160.855452 252.332327 -110.594666
v 160.855452 263.456939 -110.594665
v 160.855452 272.456939 -104.055782
v 160.855452 275.894632 -93.475647
v 148.255452 257.894632 -93.475647
v 160.855452 257.894632 -93.475647
vt 0.020061 0.191999
vt 0.061206 0.221893
vt 0.112065 0.221893
vt 0.153210 0.191999
vt 0.168926 0.143630
vt 0.153210 0.095261
vt 0.112064 0.065367
vt 0.061206 0.065367
vt 0.020061 0.095261
vt 0.004345 0.143630
vt 0.334322 0.059068
vt 0.301818 0.059067
vt 0.269315 0.059067
vt 0.236812 0.059067
vt 0.204309 0.059067
vt 0.171805 0.059067
vt 0.139302 0.059067
vt 0.106799 0.059067
vt 0.074295 0.059067
vt 0.041792 0.059067
vt 0.009288 0.059067
vt 0.334322 0.006902
vt 0.301819 0.006901
vt 0.269315 0.006901
vt 0.236812 0.006901
vt 0.204309 0.006901
vt 0.171805 0.006901
vt 0.139302 0.006901
vt 0.106799 0.006901
vt 0.074295 0.006901
vt 0.041792 0.006901
vt 0.009288 0.006901
vt 0.020061 0.191999
vt 0.061206 0.221893
vt 0.112065 0.221893
vt 0.153210 0.191999
vt 0.168926 0.143630
vt 0.153210 0.095261
vt 0.112064 0.065367
vt 0.061206 0.065367
vt 0.020061 0.095261
vt 0.004345 0.143630
vt 0.086635 0.146922
vt 0.086635 0.146922
vn -0.000000 0.587785 0.809017
vn -0.000000 0.587785 0.809017
vn -0.000000 0.587785 0.809017
vn -0.000000 0.587785 0.809017
vn -0.000000 -0.000000 1.000000
vn -0.000000 -0.000000 1.000000
vn -0.000000 -0.000000 1.000000
vn -0.000000 -0.000000 1.000000
vn -0.000000 -0.587785 0.809017
vn -0.000000 -0.587785 0.809017
vn -0.000000 -0.587785 0.809017
vn -0.000000 -0.587785 0.809017
vn -0.000000 -0.951057 0.309017
vn -0.000000 -0.951057 0.309017
vn -0.000000 -0.951057 0.309017
vn -0.000000 -0.951057 0.309017
vn 0.000000 -0.951056 -0.309017
vn 0.000000 -0.951056 -0.309017
vn 0.000000 -0.951056 -0.309017
vn 0.000000 -0.951056 -0.309017
vn 0.000000 -0.587785 -0.809017
vn 0.000000 -0.587785 -0.809017
vn 0.000000 -0.587785 -0.809017
vn 0.000000 -0.587785 -0.809017
vn 0.000000 0.000000 -1.000000
vn 0.000000 0.000000 -1.000000
vn 0.000000 0.000000 -1.000000
vn 0.000000 0.000000 -1.000000
vn 0.000000 0.587785 -0.809017
vn 0.000000 0.587785 -0.809017
vn 0.000000 0.587785 -0.809017
vn 0.000000 0.587785 -0.809017
vn 0.000000 0.951056 -0.309017
vn 0.000000 0.951056 -0.309017
vn 0.000000 0.951056 -0.309017
vn 0.000000 0.951056 -0.309017
vn -0.000000 0.951057 0.309017
vn -0.000000 0.951057 0.309017
vn -0.000000 0.951057 0.309017
vn -0.000000 0.951057 0.309017
vn -1.000000 -0.000000 -0.000000
vn -1.000000 -0.000000 -0.000000
vn -1.000000 -0.000000 -0.000000
vn -1.000000 -0.000000 -0.000000
vn -1.000000 -0.000000 -0.000000
vn -1.000000 -0.000000 -0.000000
vn -1.000000 -0.000000 -0.000000
vn -1.000000 -0.000000 -0.000000
vn -1.000000 -0.000000 -0.000000
vn -1.000000 -0.000000 -0.000000
vn -1.000000 -0.000000 -0.000000
vn 1.000000 0.000000 0.000000
vn 1.000000 0.000000 0.000000
vn 1.000000 0.000000 0.000000
vn 1.000000 0.000000 0.000000
vn 1.000000 0.000000 0.000000
vn 1.000000 0.000000 0.000000
vn 1.000000 0.000000 0.000000
vn 1.000000 0.000000 0.000000
vn 1.000000 0.000000 -0.000000
vn 1.000000 0.000000 0.000000
vn 1.000000 0.000000 0.000000
s off
g Roller45
usemtl lambert3SG
f 113/251/313 114/252/314 124/263/315 123/262/316
f 114/252/317 115/253/318 125/264/319 124/263/320
f 115/253/321 116/254/322 126/265/323 125/264/324
f 116/254/325 117/255/326 127/266/327 126/265/328
f 117/255/329 118/256/330 128/267/331 127/266/332
f 118/256/333 119/257/334 129/268/335 128/267/336
f 119/257/337 120/258/338 130/269/339 129/268/340
f 120/258/341 121/259/342 131/270/343 130/269/344
f 121/259/345 122/260/346 132/271/347 131/270/348
f 122/260/349 113/261/350 123/272/351 132/271/352
s 1
f 114/242/353 113/241/354 133/283/355
f 115/243/356 114/242/353 133/283/355
f 116/244/357 115/243/356 133/283/355
f 117/245/358 116/244/357 133/283/355
f 118/246/359 117/245/358 133/283/355
f 119/247/360 118/246/359 133/283/355
f 120/248/361 119/247/360 133/283/355
f 121/249/362 120/248/361 133/283/355
f 122/250/363 121/249/362 133/283/355
f 113/241/354 122/250/363 133/283/355
s 2
f 123/281/364 124/280/365 134/284/366
f 124/280/365 125/279/367 134/284/366
f 125/279/367 126/278/368 134/284/366
f 126/278/368 127/277/369 134/284/366
f 127/277/369 128/276/370 134/284/366
f 128/276/370 129/275/371 134/284/366
f 129/275/371 130/274/372 134/284/366
f 130/274/372 131/273/373 134/284/366
f 131/273/373 132/282/374 134/284/366
f 132/282/374 123/281/364 134/284/366
g default
v -148.700000 272.456939 -104.055785
v -148.700000 263.456937 -110.594669
v -148.700000 252.332323 -110.594666
v -148.700000 243.332323 -104.055782
v -148.700000 239.894629 -93.475646
v -148.700000 243.332325 -82.895511
v -148.700000 252.332327 -76.356629
v -148.700000 263.456939 -76.356630
v -148.700000 272.456939 -82.895513
v -148.700000 275.894632 -93.475647
v -161.300000 272.456939 -104.055785
v -161.300000 263.456937 -110.594669
v -161.300000 252.332323 -110.594666
v -161.300000 243.332323 -104.055782
v -161.300000 239.894629 -93.475646
v -161.300000 243.332325 -82.895511
v -161.300000 252.332327 -76.356629
v -161.300000 263.456939 -76.356630
v -161.300000 272.456939 -82.895513
v -161.300000 275.894632 -93.475647
v -148.700000 257.894632 -93.475647
v -161.300000 257.894632 -93.475647
vt 0.020061 0.191999
vt 0.061206 0.221893
vt 0.112065 0.221893
vt 0.153210 0.191999
vt 0.168926 0.143630
vt 0.153210 0.095261
vt 0.112064 0.065367
vt 0.061206 0.065367
vt 0.020061 0.095261
vt 0.004345 0.143630
vt 0.334322 0.059068
vt 0.301818 0.059067
vt 0.269315 0.059067
vt 0.236812 0.059067
vt 0.204309 0.059067
vt 0.171805 0.059067
vt 0.139302 0.059067
vt 0.106799 0.059067
vt 0.074295 0.059067
vt 0.041792 0.059067
vt 0.009288 0.059067
vt 0.334322 0.006902
vt 0.301819 0.006901
vt 0.269315 0.006901
vt 0.236812 0.006901
vt 0.204309 0.006901
vt 0.171805 0.006901
vt 0.139302 0.006901
vt 0.106799 0.006901
vt 0.074295 0.006901
vt 0.041792 0.006901
vt 0.009288 0.006901
vt 0.020061 0.191999
vt 0.061206 0.221893
vt 0.112065 0.221893
vt 0.153210 0.191999
vt 0.168926 0.143630
vt 0.153210 0.095261
vt 0.112064 0.065367
vt 0.061206 0.065367
vt 0.020061 0.095261
vt 0.004345 0.143630
vt 0.086635 0.146922
vt 0.086635 0.146922
vn 0.000000 0.587785 -0.809017
vn 0.000000 0.587785 -0.809017
vn 0.000000 0.587785 -0.809017
vn 0.000000 0.587785 -0.809017
vn -0.000000 -0.000000 -1.000000
vn -0.000000 -0.000000 -1.000000
vn -0.000000 -0.000000 -1.000000
vn -0.000000 -0.000000 -1.000000
vn -0.000000 -0.587785 -0.809017
vn -0.000000 -0.587785 -0.809017
vn -0.000000 -0.587785 -0.809017
vn -0.000000 -0.587785 -0.809017
vn -0.000000 -0.951057 -0.309017
vn -0.000000 -0.951057 -0.309017
vn -0.000000 -0.951057 -0.309017
vn -0.000000 -0.951057 -0.309017
vn -0.000000 -0.951056 0.309017
vn -0.000000 -0.951056 0.309017
vn -0.000000 -0.951056 0.309017
vn -0.000000 -0.951056 0.309017
vn -0.000000 -0.587785 0.809017
vn -0.000000 -0.587785 0.809017
vn -0.000000 -0.587785 0.809017
vn -0.000000 -0.587785 0.809017
vn 0.000000 0.000000 1.000000
vn 0.000000 0.000000 1.000000
vn 0.000000 0.000000 1.000000
vn 0.000000 0.000000 1.000000
vn 0.000000 0.587785 0.809017
vn 0.000000 0.587785 0.809017
vn 0.000000 0.587785 0.809017
vn 0.000000 0.587785 0.809017
vn 0.000000 0.951056 0.309017
vn 0.000000 0.951056 0.309017
vn 0.000000 0.951056 0.309017
vn 0.000000 0.951056 0.309017
vn 0.000000 0.951057 -0.309017
vn 0.000000 0.951057 -0.309017
vn 0.000000 0.951057 -0.309017
vn 0.000000 0.951057 -0.309017
vn 1.000000 -0.000000 0.000000
vn 1.000000 -0.000000 0.000000
vn 1.000000 -0.000000 0.000000
vn 1.000000 -0.000000 0.000000
vn 1.000000 -0.000000 0.000000
vn 1.000000 -0.000000 0.000000
vn 1.000000 -0.000000 0.000000
vn 1.000000 -0.000000 -0.000000
vn 1.000000 -0.000000 0.000000
vn 1.000000 -0.000000 0.000000
vn 1.000000 -0.000000 0.000000
vn -1.000000 0.000000 0.000000
vn -1.000000 0.000000 0.000000
vn -1.000000 0.000000 -0.000000
vn -1.000000 0.000000 0.000000
vn -1.000000 0.000000 -0.000000
vn -1.000000 0.000000 -0.000000
vn -1.000000 0.000000 -0.000000
vn -1.000000 0.000000 -0.000000
vn -1.000000 0.000000 0.000000
vn -1.000000 0.000000 0.000000
vn -1.000000 0.000000 0.000000
s off
g Roller44
usemtl lambert3SG
f 135/295/375 136/296/376 146/307/377 145/306/378
f 136/296/379 137/297/380 147/308/381 146/307/382
f 137/297/383 138/298/384 148/309/385 147/308/386
f 138/298/387 139/299/388 149/310/389 148/309/390
f 139/299/391 140/300/392 150/311/393 149/310/394
f 140/300/395 141/301/396 151/312/397 150/311/398
f 141/301/399 142/302/400 152/313/401 151/312/402
f 142/302/403 143/303/404 153/314/405 152/313/406
f 143/303/407 144/304/408 154/315/409 153/314/410
f 144/304/411 135/305/412 145/316/413 154/315/414
s 1
f 136/286/415 135/285/416 155/327/417
f 137/287/418 136/286/415 155/327/417
f 138/288/419 137/287/418 155/327/417
f 139/289/420 138/288/419 155/327/417
f 140/290/421 139/289/420 155/327/417
f 141/291/422 140/290/421 155/327/417
f 142/292/423 141/291/422 155/327/417
f 143/293/424 142/292/423 155/327/417
f 144/294/425 143/293/424 155/327/417
f 135/285/416 144/294/425 155/327/417
s 2
f 145/325/426 146/324/427 156/328/428
f 146/324/427 147/323/429 156/328/428
f 147/323/429 148/322/430 156/328/428
f 148/322/430 149/321/431 156/328/428
f 149/321/431 150/320/432 156/328/428
f 150/320/432 151/319/433 156/328/428
f 151/319/433 152/318/434 156/328/428
f 152/318/434 153/317/435 156/328/428
f 153/317/435 154/326/436 156/328/428
f 154/326/436 145/325/426 156/328/428
g default
v -148.700000 272.456939 -64.055785
v -148.700000 263.456937 -70.594669
v -148.700000 252.332323 -70.594666
v -148.700000 243.332323 -64.055782
v -148.700000 239.894629 -53.475646
v -148.700000 243.332325 -42.895511
v -148.700000 252.332327 -36.356629
v -148.700000 263.456939 -36.356630
v -148.700000 272.456939 -42.895513
v -148.700000 275.894632 -53.475647
v -161.300000 272.456939 -64.055785
v -161.300000 263.456937 -70.594669
v -161.300000 252.332323 -70.594666
v -161.300000 243.332323 -64.055782
v -161.300000 239.894629 -53.475646
v -161.300000 243.332325 -42.895511
v -161.300000 252.332327 -36.356629
v -161.300000 263.456939 -36.356630
v -161.300000 272.456939 -42.895513
v -161.300000 275.894632 -53.475647
v -148.700000 257.894632 -53.475647
v -161.300000 257.894632 -53.475647
vt 0.020061 0.191999
vt 0.061206 0.221893
vt 0.112065 0.221893
vt 0.153210 0.191999
vt 0.168926 0.143630
vt 0.153210 0.095261
vt 0.112064 0.065367
vt 0.061206 0.065367
vt 0.020061 0.095261
vt 0.004345 0.143630
vt 0.334322 0.059068
vt 0.301818 0.059067
vt 0.269315 0.059067
vt 0.236812 0.059067
vt 0.204309 0.059067
vt 0.171805 0.059067
vt 0.139302 0.059067
vt 0.106799 0.059067
vt 0.074295 0.059067
vt 0.041792 0.059067
vt 0.009288 0.059067
vt 0.334322 0.006902
vt 0.301819 0.006901
vt 0.269315 0.006901
vt 0.236812 0.006901
vt 0.204309 0.006901
vt 0.171805 0.006901
vt 0.139302 0.006901
vt 0.106799 0.006901
vt 0.074295 0.006901
vt 0.041792 0.006901
vt 0.009288 0.006901
vt 0.020061 0.191999
vt 0.061206 0.221893
vt 0.112065 0.221893
vt 0.153210 0.191999
vt 0.168926 0.143630
vt 0.153210 0.095261
vt 0.112064 0.065367
vt 0.061206 0.065367
vt 0.020061 0.095261
vt 0.004345 0.143630
vt 0.086635 0.146922
vt 0.086635 0.146922
vn 0.000000 0.587785 -0.809017
vn 0.000000 0.587785 -0.809017
vn 0.000000 0.587785 -0.809017
vn 0.000000 0.587785 -0.809017
vn -0.000000 -0.000000 -1.000000
vn -0.000000 -0.000000 -1.000000
vn -0.000000 -0.000000 -1.000000
vn -0.000000 -0.000000 -1.000000
vn -0.000000 -0.587785 -0.809017
vn -0.000000 -0.587785 -0.809017
vn -0.000000 -0.587785 -0.809017
vn -0.000000 -0.587785 -0.809017
vn -0.000000 -0.951057 -0.309017
vn -0.000000 -0.951057 -0.309017
vn -0.000000 -0.951057 -0.309017
vn -0.000000 -0.951057 -0.309017
vn -0.000000 -0.951056 0.309017
vn -0.000000 -0.951056 0.309017
vn -0.000000 -0.951056 0.309017
vn -0.000000 -0.951056 0.309017
vn -0.000000 -0.587785 0.809017
vn -0.000000 -0.587785 0.809017
vn -0.000000 -0.587785 0.809017
vn -0.000000 -0.587785 0.809017
vn 0.000000 0.000000 1.000000
vn 0.000000 0.000000 1.000000
vn 0.000000 0.000000 1.000000
vn 0.000000 0.000000 1.000000
vn 0.000000 0.587785 0.809017
vn 0.000000 0.587785 0.809017
vn 0.000000 0.587785 0.809017
vn 0.000000 0.587785 0.809017
vn 0.000000 0.951056 0.309017
vn 0.000000 0.951056 0.309017
vn 0.000000 0.951056 0.309017
vn 0.000000 0.951056 0.309017
vn 0.000000 0.951057 -0.309017
vn 0.000000 0.951057 -0.309017
vn 0.000000 0.951057 -0.309017
vn 0.000000 0.951057 -0.309017
vn 1.000000 -0.000000 0.000000
vn 1.000000 -0.000000 0.000000
vn 1.000000 -0.000000 0.000000
vn 1.000000 -0.000000 0.000000
vn 1.000000 -0.000000 0.000000
vn 1.000000 -0.000000 0.000000
vn 1.000000 -0.000000 0.000000
vn 1.000000 -0.000000 -0.000000
vn 1.000000 -0.000000 0.000000
vn 1.000000 -0.000000 0.000000
vn 1.000000 -0.000000 0.000000
vn -1.000000 0.000000 0.000000
vn -1.000000 0.000000 0.000000
vn -1.000000 0.000000 -0.000000
vn -1.000000 0.000000 0.000000
vn -1.000000 0.000000 -0.000000
vn -1.000000 0.000000 -0.000000
vn -1.000000 0.000000 -0.000000
vn -1.000000 0.000000 -0.000000
vn -1.000000 0.000000 0.000000
vn -1.000000 0.000000 0.000000
vn -1.000000 0.000000 0.000000
s off
g Roller43
usemtl lambert3SG
f 157/339/437 158/340/438 168/351/439 167/350/440
f 158/340/441 159/341/442 169/352/443 168/351/444
f 159/341/445 160/342/446 170/353/447 169/352/448
f 160/342/449 161/343/450 171/354/451 170/353/452
f 161/343/453 162/344/454 172/355/455 171/354/456
f 162/344/457 163/345/458 173/356/459 172/355/460
f 163/345/461 164/346/462 174/357/463 173/356/464
f 164/346/465 165/347/466 175/358/467 174/357/468
f 165/347/469 166/348/470 176/359/471 175/358/472
f 166/348/473 157/349/474 167/360/475 176/359/476
s 1
f 158/330/477 157/329/478 177/371/479
f 159/331/480 158/330/477 177/371/479
f 160/332/481 159/331/480 177/371/479
f 161/333/482 160/332/481 177/371/479
f 162/334/483 161/333/482 177/371/479
f 163/335/484 162/334/483 177/371/479
f 164/336/485 163/335/484 177/371/479
f 165/337/486 164/336/485 177/371/479
f 166/338/487 165/337/486 177/371/479
f 157/329/478 166/338/487 177/371/479
s 2
f 167/369/488 168/368/489 178/372/490
f 168/368/489 169/367/491 178/372/490
f 169/367/491 170/366/492 178/372/490
f 170/366/492 171/365/493 178/372/490
f 171/365/493 172/364/494 178/372/490
f 172/364/494 173/363/495 178/372/490
f 173/363/495 174/362/496 178/372/490
f 174/362/496 175/361/497 178/372/490
f 175/361/497 176/370/498 178/372/490
f 176/370/498 167/369/488 178/372/490
g default
v -148.700000 272.456939 -24.055785
v -148.700000 263.456937 -30.594669
v -148.700000 252.332323 -30.594666
v -148.700000 243.332323 -24.055782
v -148.700000 239.894629 -13.475646
v -148.700000 243.332325 -2.895511
v -148.700000 252.332327 3.643371
v -148.700000 263.456939 3.643370
v -148.700000 272.456939 -2.895513
v -148.700000 275.894632 -13.475647
v -161.300000 272.456939 -24.055785
v -161.300000 263.456937 -30.594669
v -161.300000 252.332323 -30.594666
v -161.300000 243.332323 -24.055782
v -161.300000 239.894629 -13.475646
v -161.300000 243.332325 -2.895511
v -161.300000 252.332327 3.643371
v -161.300000 263.456939 3.643370
v -161.300000 272.456939 -2.895513
v -161.300000 275.894632 -13.475647
v -148.700000 257.894632 -13.475647
v -161.300000 257.894632 -13.475647
vt 0.020061 0.191999
vt 0.061206 0.221893
vt 0.112065 0.221893
vt 0.153210 0.191999
vt 0.168926 0.143630
vt 0.153210 0.095261
vt 0.112064 0.065367
vt 0.061206 0.065367
vt 0.020061 0.095261
vt 0.004345 0.143630
vt 0.334322 0.059068
vt 0.301818 0.059067
vt 0.269315 0.059067
vt 0.236812 0.059067
vt 0.204309 0.059067
vt 0.171805 0.059067
vt 0.139302 0.059067
vt 0.106799 0.059067
vt 0.074295 0.059067
vt 0.041792 0.059067
vt 0.009288 0.059067
vt 0.334322 0.006902
vt 0.301819 0.006901
vt 0.269315 0.006901
vt 0.236812 0.006901
vt 0.204309 0.006901
vt 0.171805 0.006901
vt 0.139302 0.006901
vt 0.106799 0.006901
vt 0.074295 0.006901
vt 0.041792 0.006901
vt 0.009288 0.006901
vt 0.020061 0.191999
vt 0.061206 0.221893
vt 0.112065 0.221893
vt 0.153210 0.191999
vt 0.168926 0.143630
vt 0.153210 0.095261
vt 0.112064 0.065367
vt 0.061206 0.065367
vt 0.020061 0.095261
vt 0.004345 0.143630
vt 0.086635 0.146922
vt 0.086635 0.146922
vn 0.000000 0.587785 -0.809017
vn 0.000000 0.587785 -0.809017
vn 0.000000 0.587785 -0.809017
vn 0.000000 0.587785 -0.809017
vn -0.000000 -0.000000 -1.000000
vn -0.000000 -0.000000 -1.000000
vn -0.000000 -0.000000 -1.000000
vn -0.000000 -0.000000 -1.000000
vn -0.000000 -0.587785 -0.809017
vn -0.000000 -0.587785 -0.809017
vn -0.000000 -0.587785 -0.809017
vn -0.000000 -0.587785 -0.809017
vn -0.000000 -0.951057 -0.309017
vn -0.000000 -0.951057 -0.309017
vn -0.000000 -0.951057 -0.309017
vn -0.000000 -0.951057 -0.309017
vn -0.000000 -0.951056 0.309017
vn -0.000000 -0.951056 0.309017
vn -0.000000 -0.951056 0.309017
vn -0.000000 -0.951056 0.309017
vn -0.000000 -0.587785 0.809017
vn -0.000000 -0.587785 0.809017
vn -0.000000 -0.587785 0.809017
vn -0.000000 -0.587785 0.809017
vn 0.000000 0.000000 1.000000
vn 0.000000 0.000000 1.000000
vn 0.000000 0.000000 1.000000
vn 0.000000 0.000000 1.000000
vn 0.000000 0.587785 0.809017
vn 0.000000 0.587785 0.809017
vn 0.000000 0.587785 0.809017
vn 0.000000 0.587785 0.809017
vn 0.000000 0.951056 0.309017
vn 0.000000 0.951056 0.309017
vn 0.000000 0.951056 0.309017
vn 0.000000 0.951056 0.309017
vn 0.000000 0.951057 -0.309017
vn 0.000000 0.951057 -0.309017
vn 0.000000 0.951057 -0.309017
vn 0.000000 0.951057 -0.309017
vn 1.000000 -0.000000 0.000000
vn 1.000000 -0.000000 0.000000
vn 1.000000 -0.000000 0.000000
vn 1.000000 -0.000000 0.000000
vn 1.000000 -0.000000 0.000000
vn 1.000000 -0.000000 0.000000
vn 1.000000 -0.000000 0.000000
vn 1.000000 -0.000000 -0.000000
vn 1.000000 -0.000000 0.000000
vn 1.000000 -0.000000 0.000000
vn 1.000000 -0.000000 0.000000
vn -1.000000 0.000000 0.000000
vn -1.000000 0.000000 0.000000
vn -1.000000 0.000000 -0.000000
vn -1.000000 0.000000 0.000000
vn -1.000000 0.000000 -0.000000
vn -1.000000 0.000000 -0.000000
vn -1.000000 0.000000 -0.000000
vn -1.000000 0.000000 -0.000000
vn -1.000000 0.000000 0.000000
vn -1.000000 0.000000 0.000000
vn -1.000000 0.000000 0.000000
s off
g Roller42
usemtl lambert3SG
f 179/383/499 180/384/500 190/395/501 189/394/502
f 180/384/503 181/385/504 191/396/505 190/395/506
f 181/385/507 182/386/508 192/397/509 191/396/510
f 182/386/511 183/387/512 193/398/513 192/397/514
f 183/387/515 184/388/516 194/399/517 193/398/518
f 184/388/519 185/389/520 195/400/521 194/399/522
f 185/389/523 186/390/524 196/401/525 195/400/526
f 186/390/527 187/391/528 197/402/529 196/401/530
f 187/391/531 188/392/532 198/403/533 197/402/534
f 188/392/535 179/393/536 189/404/537 198/403/538
s 1
f 180/374/539 179/373/540 199/415/541
f 181/375/542 180/374/539 199/415/541
f 182/376/543 181/375/542 199/415/541
f 183/377/544 182/376/543 199/415/541
f 184/378/545 183/377/544 199/415/541
f 185/379/546 184/378/545 199/415/541
f 186/380/547 185/379/546 199/415/541
f 187/381/548 186/380/547 199/415/541
f 188/382/549 187/381/548 199/415/541
f 179/373/540 188/382/549 199/415/541
s 2
f 189/413/550 190/412/551 200/416/552
f 190/412/551 191/411/553 200/416/552
f 191/411/553 192/410/554 200/416/552
f 192/410/554 193/409/555 200/416/552
f 193/409/555 194/408/556 200/416/552
f 194/408/556 195/407/557 200/416/552
f 195/407/557 196/406/558 200/416/552
f 196/406/558 197/405/559 200/416/552
f 197/405/559 198/414/560 200/416/552
f 198/414/560 189/413/550 200/416/552
g default
v -148.700000 282.456939 15.944215
v -148.700000 273.456937 9.405331
v -148.700000 262.332323 9.405334
v -148.700000 253.332323 15.944218
v -148.700000 249.894629 26.524354
v -148.700000 253.332325 37.104489
v -148.700000 262.332327 43.643371
v -148.700000 273.456939 43.643370
v -148.700000 282.456939 37.104487
v -148.700000 285.894632 26.524353
v -161.300000 282.456939 15.944215
v -161.300000 273.456937 9.405331
v -161.300000 262.332323 9.405334
v -161.300000 253.332323 15.944218
v -161.300000 249.894629 26.524354
v -161.300000 253.332325 37.104489
v -161.300000 262.332327 43.643371
v -161.300000 273.456939 43.643370
v -161.300000 282.456939 37.104487
v -161.300000 285.894632 26.524353
v -148.700000 267.894632 26.524353
v -161.300000 267.894632 26.524353
vt 0.020061 0.191999
vt 0.061206 0.221893
vt 0.112065 0.221893
vt 0.153210 0.191999
vt 0.168926 0.143630
vt 0.153210 0.095261
vt 0.112064 0.065367
vt 0.061206 0.065367
vt 0.020061 0.095261
vt 0.004345 0.143630
vt 0.334322 0.059068
vt 0.301818 0.059067
vt 0.269315 0.059067
vt 0.236812 0.059067
vt 0.204309 0.059067
vt 0.171805 0.059067
vt 0.139302 0.059067
vt 0.106799 0.059067
vt 0.074295 0.059067
vt 0.041792 0.059067
vt 0.009288 0.059067
vt 0.334322 0.006902
vt 0.301819 0.006901
vt 0.269315 0.006901
vt 0.236812 0.006901
vt 0.204309 0.006901
vt 0.171805 0.006901
vt 0.139302 0.006901
vt 0.106799 0.006901
vt 0.074295 0.006901
vt 0.041792 0.006901
vt 0.009288 0.006901
vt 0.020061 0.191999
vt 0.061206 0.221893
vt 0.112065 0.221893
vt 0.153210 0.191999
vt 0.168926 0.143630
vt 0.153210 0.095261
vt 0.112064 0.065367
vt 0.061206 0.065367
vt 0.020061 0.095261
vt 0.004345 0.143630
vt 0.086635 0.146922
vt 0.086635 0.146922
vn 0.000000 0.587785 -0.809017
vn 0.000000 0.587785 -0.809017
vn 0.000000 0.587785 -0.809017
vn 0.000000 0.587785 -0.809017
vn -0.000000 -0.000000 -1.000000
vn -0.000000 -0.000000 -1.000000
vn -0.000000 -0.000000 -1.000000
vn -0.000000 -0.000000 -1.000000
vn -0.000000 -0.587785 -0.809017
vn -0.000000 -0.587785 -0.809017
vn -0.000000 -0.587785 -0.809017
vn -0.000000 -0.587785 -0.809017
vn -0.000000 -0.951057 -0.309017
vn -0.000000 -0.951057 -0.309017
vn -0.000000 -0.951057 -0.309017
vn -0.000000 -0.951057 -0.309017
vn -0.000000 -0.951056 0.309017
vn -0.000000 -0.951056 0.309017
vn -0.000000 -0.951056 0.309017
vn -0.000000 -0.951056 0.309017
vn -0.000000 -0.587785 0.809017
vn -0.000000 -0.587785 0.809017
vn -0.000000 -0.587785 0.809017
vn -0.000000 -0.587785 0.809017
vn 0.000000 0.000000 1.000000
vn 0.000000 0.000000 1.000000
vn 0.000000 0.000000 1.000000
vn 0.000000 0.000000 1.000000
vn 0.000000 0.587785 0.809017
vn 0.000000 0.587785 0.809017
vn 0.000000 0.587785 0.809017
vn 0.000000 0.587785 0.809017
vn 0.000000 0.951056 0.309017
vn 0.000000 0.951056 0.309017
vn 0.000000 0.951056 0.309017
vn 0.000000 0.951056 0.309017
vn 0.000000 0.951057 -0.309017
vn 0.000000 0.951057 -0.309017
vn 0.000000 0.951057 -0.309017
vn 0.000000 0.951057 -0.309017
vn 1.000000 -0.000000 0.000000
vn 1.000000 -0.000000 0.000000
vn 1.000000 -0.000000 0.000000
vn 1.000000 -0.000000 0.000000
vn 1.000000 -0.000000 0.000000
vn 1.000000 -0.000000 0.000000
vn 1.000000 -0.000000 0.000000
vn 1.000000 -0.000000 -0.000000
vn 1.000000 -0.000000 0.000000
vn 1.000000 -0.000000 0.000000
vn 1.000000 -0.000000 0.000000
vn -1.000000 0.000000 0.000000
vn -1.000000 0.000000 0.000000
vn -1.000000 0.000000 -0.000000
vn -1.000000 0.000000 0.000000
vn -1.000000 0.000000 -0.000000
vn -1.000000 0.000000 -0.000000
vn -1.000000 0.000000 -0.000000
vn -1.000000 0.000000 -0.000000
vn -1.000000 0.000000 0.000000
vn -1.000000 0.000000 0.000000
vn -1.000000 0.000000 0.000000
s off
g Roller41
usemtl lambert3SG
f 201/427/561 202/428/562 212/439/563 211/438/564
f 202/428/565 203/429/566 213/440/567 212/439/568
f 203/429/569 204/430/570 214/441/571 213/440/572
f 204/430/573 205/431/574 215/442/575 214/441/576
f 205/431/577 206/432/578 216/443/579 215/442/580
f 206/432/581 207/433/582 217/444/583 216/443/584
f 207/433/585 208/434/586 218/445/587 217/444/588
f 208/434/589 209/435/590 219/446/591 218/445/592
f 209/435/593 210/436/594 220/447/595 219/446/596
f 210/436/597 201/437/598 211/448/599 220/447/600
s 1
f 202/418/601 201/417/602 221/459/603
f 203/419/604 202/418/601 221/459/603
f 204/420/605 203/419/604 221/459/603
f 205/421/606 204/420/605 221/459/603
f 206/422/607 205/421/606 221/459/603
f 207/423/608 206/422/607 221/459/603
f 208/424/609 207/423/608 221/459/603
f 209/425/610 208/424/609 221/459/603
f 210/426/611 209/425/610 221/459/603
f 201/417/602 210/426/611 221/459/603
s 2
f 211/457/612 212/456/613 222/460/614
f 212/456/613 213/455/615 222/460/614
f 213/455/615 214/454/616 222/460/614
f 214/454/616 215/453/617 222/460/614
f 215/453/617 216/452/618 222/460/614
f 216/452/618 217/451/619 222/460/614
f 217/451/619 218/450/620 222/460/614
f 218/450/620 219/449/621 222/460/614
f 219/449/621 220/458/622 222/460/614
f 220/458/622 211/457/612 222/460/614
g default
v -148.700000 292.456939 55.944215
v -148.700000 283.456937 49.405331
v -148.700000 272.332323 49.405334
v -148.700000 263.332323 55.944218
v -148.700000 259.894629 66.524354
v -148.700000 263.332325 77.104489
v -148.700000 272.332327 83.643371
v -148.700000 283.456939 83.643370
v -148.700000 292.456939 77.104487
v -148.700000 295.894632 66.524353
v -161.300000 292.456939 55.944215
v -161.300000 283.456937 49.405331
v -161.300000 272.332323 49.405334
v -161.300000 263.332323 55.944218
v -161.300000 259.894629 66.524354
v -161.300000 263.332325 77.104489
v -161.300000 272.332327 83.643371
v -161.300000 283.456939 83.643370
v -161.300000 292.456939 77.104487
v -161.300000 295.894632 66.524353
v -148.700000 277.894632 66.524353
v -161.300000 277.894632 66.524353
vt 0.020061 0.191999
vt 0.061206 0.221893
vt 0.112065 0.221893
vt 0.153210 0.191999
vt 0.168926 0.143630
vt 0.153210 0.095261
vt 0.112064 0.065367
vt 0.061206 0.065367
vt 0.020061 0.095261
vt 0.004345 0.143630
vt 0.334322 0.059068
vt 0.301818 0.059067
vt 0.269315 0.059067
vt 0.236812 0.059067
vt 0.204309 0.059067
vt 0.171805 0.059067
vt 0.139302 0.059067
vt 0.106799 0.059067
vt 0.074295 0.059067
vt 0.041792 0.059067
vt 0.009288 0.059067
vt 0.334322 0.006902
vt 0.301819 0.006901
vt 0.269315 0.006901
vt 0.236812 0.006901
vt 0.204309 0.006901
vt 0.171805 0.006901
vt 0.139302 0.006901
vt 0.106799 0.006901
vt 0.074295 0.006901
vt 0.041792 0.006901
vt 0.009288 0.006901
vt 0.020061 0.191999
vt 0.061206 0.221893
vt 0.112065 0.221893
vt 0.153210 0.191999
vt 0.168926 0.143630
vt 0.153210 0.095261
vt 0.112064 0.065367
vt 0.061206 0.065367
vt 0.020061 0.095261
vt 0.004345 0.143630
vt 0.086635 0.146922
vt 0.086635 0.146922
vn 0.000000 0.587785 -0.809017
vn 0.000000 0.587785 -0.809017
vn 0.000000 0.587785 -0.809017
vn 0.000000 0.587785 -0.809017
vn -0.000000 -0.000000 -1.000000
vn -0.000000 -0.000000 -1.000000
vn -0.000000 -0.000000 -1.000000
vn -0.000000 -0.000000 -1.000000
vn -0.000000 -0.587785 -0.809017
vn -0.000000 -0.587785 -0.809017
vn -0.000000 -0.587785 -0.809017
vn -0.000000 -0.587785 -0.809017
vn -0.000000 -0.951057 -0.309017
vn -0.000000 -0.951057 -0.309017
vn -0.000000 -0.951057 -0.309017
vn -0.000000 -0.951057 -0.309017
vn -0.000000 -0.951056 0.309017
vn -0.000000 -0.951056 0.309017
vn -0.000000 -0.951056 0.309017
vn -0.000000 -0.951056 0.309017
vn -0.000000 -0.587785 0.809017
vn -0.000000 -0.587785 0.809017
vn -0.000000 -0.587785 0.809017
vn -0.000000 -0.587785 0.809017
vn 0.000000 0.000000 1.000000
vn 0.000000 0.000000 1.000000
vn 0.000000 0.000000 1.000000
vn 0.000000 0.000000 1.000000
vn 0.000000 0.587785 0.809017
vn 0.000000 0.587785 0.809017
vn 0.000000 0.587785 0.809017
vn 0.000000 0.587785 0.809017
vn 0.000000 0.951056 0.309017
vn 0.000000 0.951056 0.309017
vn 0.000000 0.951056 0.309017
vn 0.000000 0.951056 0.309017
vn 0.000000 0.951057 -0.309017
vn 0.000000 0.951057 -0.309017
vn 0.000000 0.951057 -0.309017
vn 0.000000 0.951057 -0.309017
vn 1.000000 -0.000000 0.000000
vn 1.000000 -0.000000 0.000000
vn 1.000000 -0.000000 0.000000
vn 1.000000 -0.000000 0.000000
vn 1.000000 -0.000000 0.000000
vn 1.000000 -0.000000 0.000000
vn 1.000000 -0.000000 0.000000
vn 1.000000 -0.000000 -0.000000
vn 1.000000 -0.000000 0.000000
vn 1.000000 -0.000000 0.000000
vn 1.000000 -0.000000 0.000000
vn -1.000000 0.000000 0.000000
vn -1.000000 0.000000 0.000000
vn -1.000000 0.000000 -0.000000
vn -1.000000 0.000000 0.000000
vn -1.000000 0.000000 -0.000000
vn -1.000000 0.000000 -0.000000
vn -1.000000 0.000000 -0.000000
vn -1.000000 0.000000 -0.000000
vn -1.000000 0.000000 0.000000
vn -1.000000 0.000000 0.000000
vn -1.000000 0.000000 0.000000
s off
g Roller40
usemtl lambert3SG
f 223/471/623 224/472/624 234/483/625 233/482/626
f 224/472/627 225/473/628 235/484/629 234/483/630
f 225/473/631 226/474/632 236/485/633 235/484/634
f 226/474/635 227/475/636 237/486/637 236/485/638
f 227/475/639 228/476/640 238/487/641 237/486/642
f 228/476/643 229/477/644 239/488/645 238/487/646
f 229/477/647 230/478/648 240/489/649 239/488/650
f 230/478/651 231/479/652 241/490/653 240/489/654
f 231/479/655 232/480/656 242/491/657 241/490/658
f 232/480/659 223/481/660 233/492/661 242/491/662
s 1
f 224/462/663 223/461/664 243/503/665
f 225/463/666 224/462/663 243/503/665
f 226/464/667 225/463/666 243/503/665
f 227/465/668 226/464/667 243/503/665
f 228/466/669 227/465/668 243/503/665
f 229/467/670 228/466/669 243/503/665
f 230/468/671 229/467/670 243/503/665
f 231/469/672 230/468/671 243/503/665
f 232/470/673 231/469/672 243/503/665
f 223/461/664 232/470/673 243/503/665
s 2
f 233/501/674 234/500/675 244/504/676
f 234/500/675 235/499/677 244/504/676
f 235/499/677 236/498/678 244/504/676
f 236/498/678 237/497/679 244/504/676
f 237/497/679 238/496/680 244/504/676
f 238/496/680 239/495/681 244/504/676
f 239/495/681 240/494/682 244/504/676
f 240/494/682 241/493/683 244/504/676
f 241/493/683 242/502/684 244/504/676
f 242/502/684 233/501/674 244/504/676
g default
v 125.495689 330.490509 -9.650647
v 160.037964 425.394623 -9.650647
v 160.037964 425.394623 -17.300648
v 125.495689 330.490509 -17.300648
v 168.178909 425.394623 -17.300648
v 133.636658 330.490509 -17.300648
v 168.178909 425.394623 -9.650647
v 133.636658 330.490509 -9.650647
v -168.178925 425.394623 -9.650647
v -168.178894 425.394623 -17.300648
v -133.636658 330.490509 -17.300648
v -133.636658 330.490509 -9.650647
v -160.037964 425.394623 -17.300648
v -125.495697 330.490509 -17.300648
v -160.037964 425.394623 -9.650647
v -125.495697 330.490509 -9.650647
v 118.699997 295.298706 -6.325648
v 118.699997 265.394623 -6.325648
v 132.055450 265.394623 -6.325648
v 132.055450 295.298706 -6.325648
v 118.699997 295.298706 -8.475647
v 118.699997 295.298706 -18.475647
v 118.699997 295.298706 -20.625647
v 118.699997 265.394623 -20.625647
v 132.055450 295.298706 -20.625647
v 132.055450 265.394623 -20.625647
v 132.055450 295.298706 -18.475647
v 132.055450 295.298706 -8.475647
v 132.055450 250.394623 -20.625647
v 118.699997 250.394623 -20.625647
v 132.055450 250.394623 -6.325648
v 118.699997 250.394623 -6.325648
v 147.055450 250.394623 -20.625647
v 147.055450 250.394623 -110.975647
v 147.055450 265.394623 -110.975647
v 147.055450 265.394623 -20.625647
v 147.055450 250.394623 -6.325648
v 147.055450 265.394623 -6.325648
v 147.055450 275.394623 84.024353
v 147.055450 290.394623 84.024353
v 132.055450 250.394623 -110.975647
v 132.055450 265.394623 -110.975647
v 132.055450 275.394623 84.024353
v 132.055450 290.394623 84.024353
v 28.660263 295.298706 -8.475647
v 30.000000 295.298706 -13.475647
v 28.660263 295.298706 -18.475647
v 25.980759 -431.591827 -28.475647
v 15.000000 -431.591827 -39.456409
v 15.000000 -67.105377 -39.456409
v 25.980759 -67.105377 -28.475647
v 0.000000 -431.591827 -43.475647
v 0.000000 -67.105377 -43.475647
v -15.000000 -431.591827 -39.456409
v -15.000000 -67.105377 -39.456409
v -25.980759 -431.591827 -28.475647
v -25.980759 -67.105377 -28.475647
v -30.000000 -431.591827 -13.475647
v -30.000000 -67.105377 -13.475647
v -25.980759 -431.591827 1.524354
v -25.980759 -67.105377 1.524354
v -15.000000 -431.591827 12.505116
v -15.000000 -67.105377 12.505116
v 0.000000 -431.591827 16.524353
v 0.000000 -67.105377 16.524353
v 15.000000 -431.591827 12.505116
v 15.000000 -67.105377 12.505116
v 25.980759 -431.591827 1.524354
v 25.980759 -67.105377 1.524354
v 30.000000 -431.591827 -13.475647
v 30.000000 -67.105377 -13.475647
v 15.000000 297.381134 -39.456409
v 25.980759 297.381134 -28.475647
v 0.000000 297.381134 -43.475647
v -15.000000 297.381134 -39.456409
v -25.980759 297.381134 -28.475647
v -26.512177 295.298706 -26.492426
v -26.512161 297.381134 -26.492426
v -30.000000 295.298706 -13.475647
v -28.660233 295.298706 -18.475647
v -26.512146 295.298706 -0.458865
v -28.660248 295.298706 -8.475647
v -25.980759 297.381134 1.524354
v -26.512161 297.381134 -0.458865
v -15.000000 297.381134 12.505116
v 0.000000 297.381134 16.524353
v 15.000000 297.381134 12.505116
v 25.980759 297.381134 1.524354
v 26.512177 295.298706 -0.458865
v 26.512161 297.381134 -0.458865
v 26.512177 295.298706 -26.492426
v 26.512161 297.381134 -26.492426
v 0.000000 -431.591827 -13.475647
v 7.515244 297.381134 -26.492424
v 22.545715 297.381134 -26.492426
v 0.000000 297.381134 -26.492426
v -7.515244 297.381134 -26.492424
v -22.545715 297.381134 -26.492426
v -22.545731 297.381134 -0.458865
v -7.515244 297.381134 -0.458865
v 0.000000 297.381134 -0.458865
v 7.515244 297.381134 -0.458865
v 22.545731 297.381134 -0.458865
v -152.812500 302.894623 -18.475647
v -152.812500 302.894623 -8.475647
v -152.812500 322.894623 -8.475647
v -152.812500 322.894623 -18.475647
v -152.812500 330.490509 -18.475647
v -152.812500 330.490509 -8.475647
v 152.812469 330.490509 -8.475647
v 152.812469 330.490509 -18.475647
v 152.812469 322.894623 -18.475647
v 152.812469 322.894623 -8.475647
v 152.812469 302.894623 -8.475647
v 152.812469 302.894623 -18.475647
v -119.144531 295.298706 -8.475647
v -119.144531 295.298706 -18.475647
v -152.812500 322.894623 -0.458865
v 152.812469 322.894623 -0.458865
v 152.812469 330.490509 -0.458865
v -152.812500 330.490509 -0.458865
v 152.812469 322.894623 -26.492426
v -152.812500 322.894623 -26.492426
v -152.812500 330.490509 -26.492426
v 152.812469 330.490509 -26.492426
v 152.812469 295.298706 -8.475647
v 152.812469 295.298706 -18.475647
v 152.812469 295.298706 -0.458865
v 152.812469 302.894623 -0.458865
v -152.812500 302.894623 -0.458865
v -152.812500 295.298706 -0.458865
v -152.812500 295.298706 -18.475647
v -152.812500 295.298706 -8.475647
v -152.812500 295.298706 -26.492426
v -152.812500 302.894623 -26.492426
v 152.812469 302.894623 -26.492426
v 152.812469 295.298706 -26.492426
v -132.500000 295.298706 -6.325648
v -119.144531 295.298706 -6.325648
v -132.500000 295.298706 -8.475647
v -119.144531 295.298706 -20.625647
v -132.500000 295.298706 -20.625647
v -132.500000 295.298706 -18.475647
v -147.500000 275.394623 84.024353
v -132.500000 275.394623 84.024353
v -132.500000 290.394623 84.024353
v -147.500000 290.394623 84.024353
v -132.500000 265.394623 -6.325648
v -147.500000 265.394623 -6.325648
v -132.500000 265.394623 -20.625647
v -147.500000 265.394623 -20.625647
v -132.500000 265.394623 -110.975647
v -147.500000 265.394623 -110.975647
v -132.500000 250.394623 -110.975647
v -147.500000 250.394623 -110.975647
v -132.500000 250.394623 -20.625647
v -147.500000 250.394623 -20.625647
v -132.500000 250.394623 -6.325648
v -147.500000 250.394623 -6.325648
v -119.144531 250.394623 -6.325648
v -119.144531 250.394623 -20.625647
v -119.144531 265.394623 -20.625647
v -119.144531 265.394623 -6.325648
v -178.562469 425.394623 -5.975646
v 178.562469 425.394623 -5.975646
v 178.562469 440.394623 -5.975646
v -178.562469 440.394623 -5.975646
v 178.562469 440.394623 -20.975647
v -178.562469 440.394623 -20.975647
v 178.562469 425.394623 -20.975647
v -178.562469 425.394623 -20.975647
vt 0.870588 0.010562
vt 0.888785 0.010562
vt 0.888785 0.500529
vt 0.870588 0.500529
vt 0.906982 0.010562
vt 0.906982 0.500529
vt 0.870588 0.990497
vt 0.906982 0.990497
vt 0.870588 0.010562
vt 0.888785 0.010562
vt 0.888785 0.500530
vt 0.870588 0.500530
vt 0.906982 0.010562
vt 0.906982 0.500530
vt 0.870588 0.990497
vt 0.906982 0.990497
vt 0.772151 0.919627
vt 0.789046 0.902731
vt 0.812125 0.942706
vt 0.812125 0.896547
vt 0.765967 0.942706
vt 0.835205 0.902731
vt 0.772151 0.965785
vt 0.852100 0.919627
vt 0.789046 0.982681
vt 0.858284 0.942706
vt 0.812125 0.988865
vt 0.852100 0.965785
vt 0.835205 0.982681
vt 0.835205 0.902731
vt 0.852100 0.919627
vt 0.858284 0.942706
vt 0.852100 0.965785
vt 0.789046 0.902731
vt 0.835205 0.982681
vt 0.772151 0.919627
vt 0.765967 0.942706
vt 0.789046 0.982681
vt 0.772151 0.965785
vt 0.925178 0.010562
vt 0.925178 0.500530
vt 0.943375 0.010562
vt 0.943375 0.500530
vt 0.925178 0.990497
vt 0.961572 0.010562
vt 0.961572 0.500530
vt 0.943375 0.990497
vt 0.979768 0.010562
vt 0.979768 0.500530
vt 0.961572 0.990497
vt 0.979768 0.990497
vt 0.925178 0.010562
vt 0.925178 0.500529
vt 0.943375 0.010562
vt 0.943375 0.500529
vt 0.925178 0.990497
vt 0.961572 0.010562
vt 0.961572 0.500529
vt 0.943375 0.990497
vt 0.979768 0.010562
vt 0.979768 0.500529
vt 0.961572 0.990497
vt 0.979768 0.990497
vt 0.010460 0.994519
vt 0.010460 0.404615
vt 0.039411 0.404615
vt 0.039411 0.994519
vt 0.010460 0.994519
vt 0.010460 0.404615
vt 0.039411 0.404615
vt 0.039411 0.994519
vt 0.044416 0.994519
vt 0.044416 0.404615
vt 0.055412 0.404615
vt 0.055412 0.994519
vt 0.044416 0.994519
vt 0.044416 0.404615
vt 0.055412 0.404615
vt 0.055412 0.994519
vt 0.055412 0.404615
vt 0.055412 0.994519
vt 0.044416 0.994519
vt 0.044416 0.404615
vt 0.055412 0.404615
vt 0.055412 0.994519
vt 0.044416 0.994519
vt 0.044416 0.404615
vt 0.074115 0.404615
vt 0.088591 0.404615
vt 0.088591 0.994519
vt 0.074115 0.994519
vt 0.100196 0.404615
vt 0.100196 0.994519
vt 0.062510 0.994519
vt 0.062510 0.404615
vt 0.074115 0.404615
vt 0.088591 0.404615
vt 0.088591 0.994519
vt 0.074115 0.994519
vt 0.100196 0.404615
vt 0.100196 0.994519
vt 0.062510 0.994519
vt 0.062510 0.404615
vt 0.044112 0.994519
vt 0.044112 0.404615
vt 0.055717 0.404615
vt 0.055717 0.994519
vt 0.055717 0.404615
vt 0.055717 0.994519
vt 0.044112 0.994519
vt 0.044112 0.404615
vt 0.044112 0.994519
vt 0.044112 0.404615
vt 0.055717 0.404615
vt 0.055717 0.994519
vt 0.055717 0.404615
vt 0.055717 0.994519
vt 0.044112 0.994519
vt 0.044112 0.404615
vt 0.117939 0.952498
vt 0.132415 0.952498
vt 0.132415 0.981449
vt 0.117939 0.981449
vt 0.117939 0.941502
vt 0.132415 0.941502
vt 0.132415 0.992445
vt 0.117939 0.992445
vt 0.106334 0.952498
vt 0.106334 0.941502
vt 0.144020 0.941502
vt 0.144020 0.952498
vt 0.144020 0.981449
vt 0.144020 0.992445
vt 0.106334 0.992445
vt 0.106334 0.981449
vt 0.117939 0.952498
vt 0.132415 0.952498
vt 0.132415 0.981449
vt 0.117939 0.981449
vt 0.117939 0.941502
vt 0.132415 0.941502
vt 0.132415 0.992445
vt 0.117939 0.992445
vt 0.106334 0.952498
vt 0.106334 0.941502
vt 0.144020 0.941502
vt 0.144020 0.952498
vt 0.144020 0.981449
vt 0.144020 0.992445
vt 0.106334 0.992445
vt 0.106334 0.981449
vt 0.074115 0.644248
vt 0.062510 0.648394
vt 0.088591 0.644248
vt 0.074115 0.644248
vt 0.081353 0.641662
vt 0.100196 0.648394
vt 0.088591 0.644248
vt 0.062510 0.750739
vt 0.074115 0.754885
vt 0.088591 0.754885
vt 0.100196 0.750739
vt 0.047431 0.699567
vt 0.047431 0.714072
vt 0.047431 0.743083
vt 0.047431 0.750739
vt 0.044416 0.750739
vt 0.044416 0.648394
vt 0.047431 0.648394
vt 0.047431 0.656050
vt 0.047431 0.685061
vt 0.047431 0.750739
vt 0.044416 0.750739
vt 0.044416 0.648394
vt 0.047431 0.648394
vt 0.047431 0.656050
vt 0.047431 0.685061
vt 0.047431 0.699567
vt 0.047431 0.714072
vt 0.047431 0.743083
vt 0.074115 0.754885
vt 0.088591 0.754885
vt 0.081353 0.757471
vt 0.832153 0.901914
vt 0.832153 0.908017
vt 0.792097 0.908017
vt 0.792098 0.901914
vt 0.792097 0.931143
vt 0.792097 0.908017
vt 0.792097 0.942706
vt 0.792097 0.931143
vt 0.792097 0.954269
vt 0.792097 0.942706
vt 0.792097 0.977395
vt 0.792097 0.954269
vt 0.792097 0.983498
vt 0.792097 0.977395
vt 0.832153 0.977395
vt 0.832153 0.983498
vt 0.832153 0.954269
vt 0.832153 0.977395
vt 0.832153 0.942706
vt 0.832153 0.954269
vt 0.832153 0.931143
vt 0.832153 0.942706
vt 0.832153 0.908017
vt 0.832153 0.931143
vt 0.904576 0.990497
vt 0.888785 0.987697
vt 0.894851 0.987697
vt 0.904576 0.987697
vt 0.872994 0.990497
vt 0.872994 0.987697
vt 0.882719 0.987697
vt 0.888785 0.987697
vt 0.904576 0.990497
vt 0.888785 0.987697
vt 0.894851 0.987697
vt 0.904576 0.987697
vt 0.882719 0.987697
vt 0.888785 0.987697
vt 0.872994 0.990497
vt 0.872994 0.987697
vt 0.041805 0.399724
vt 0.009818 0.399724
vt 0.009818 0.366170
vt 0.041805 0.366170
vt 0.056051 0.329066
vt 0.089605 0.329066
vt 0.056051 0.297078
vt 0.089605 0.297078
vt 0.009818 0.298901
vt 0.041805 0.298901
vt 0.095817 0.362854
vt 0.129369 0.362854
vt 0.129369 0.396408
vt 0.095817 0.396408
vt 0.095817 0.362854
vt 0.129369 0.362854
vt 0.129369 0.396408
vt 0.095817 0.396408
vt 0.010874 0.399724
vt 0.010874 0.366170
vt 0.040748 0.366170
vt 0.040748 0.399724
vt 0.040748 0.366170
vt 0.040748 0.399724
vt 0.010874 0.399724
vt 0.010874 0.366170
vt 0.142796 0.395626
vt 0.142796 0.245333
vt 0.167747 0.245333
vt 0.167747 0.395626
vt 0.142796 0.395626
vt 0.142796 0.245333
vt 0.167747 0.245333
vt 0.167747 0.395626
vt 0.142796 0.395626
vt 0.142796 0.245333
vt 0.167747 0.245333
vt 0.167747 0.395626
vt 0.142796 0.395626
vt 0.142796 0.245333
vt 0.167747 0.245333
vt 0.167747 0.395626
vt 0.176344 0.071918
vt 0.201294 0.071918
vt 0.201294 0.222211
vt 0.176344 0.222211
vt 0.201294 0.245998
vt 0.176344 0.245998
vt 0.201294 0.396291
vt 0.176344 0.396291
vt 0.176788 0.071918
vt 0.201738 0.071918
vt 0.201738 0.222211
vt 0.176788 0.222211
vt 0.201738 0.245998
vt 0.176788 0.245998
vt 0.223953 0.222211
vt 0.223953 0.245998
vt 0.201738 0.396291
vt 0.176788 0.396291
vt 0.010874 0.299277
vt 0.040748 0.299277
vt 0.009818 0.299277
vt 0.041805 0.299277
vt 0.036996 0.299277
vt 0.014627 0.299277
vt 0.010874 0.299277
vt 0.040748 0.299277
vt 0.014627 0.365794
vt 0.036996 0.365794
vt 0.041805 0.365794
vt 0.009818 0.365794
vt 0.088591 0.470457
vt 0.074115 0.470457
vt 0.088591 0.444679
vt 0.091703 0.444679
vt 0.091703 0.470457
vt 0.088591 0.470457
vt 0.074115 0.444679
vt 0.088591 0.444679
vt 0.071003 0.444679
vt 0.074115 0.444679
vt 0.074115 0.470457
vt 0.071003 0.470457
vt 0.041805 0.399724
vt 0.009818 0.399724
vt 0.009818 0.366170
vt 0.041805 0.366170
vt 0.056051 0.329066
vt 0.089605 0.329066
vt 0.056051 0.297078
vt 0.089605 0.297078
vt 0.009818 0.298901
vt 0.041805 0.298901
vt 0.095817 0.362854
vt 0.129369 0.362854
vt 0.129369 0.396408
vt 0.095817 0.396408
vt 0.095817 0.362854
vt 0.129369 0.362854
vt 0.129369 0.396408
vt 0.095817 0.396408
vt 0.010874 0.399724
vt 0.010874 0.366170
vt 0.040748 0.366170
vt 0.040748 0.399724
vt 0.040748 0.366170
vt 0.040748 0.399724
vt 0.010874 0.399724
vt 0.010874 0.366170
vt 0.142796 0.395626
vt 0.142796 0.245333
vt 0.167747 0.245333
vt 0.167747 0.395626
vt 0.142796 0.395626
vt 0.142796 0.245333
vt 0.167747 0.245333
vt 0.167747 0.395626
vt 0.142796 0.395626
vt 0.142796 0.245333
vt 0.167747 0.245333
vt 0.167747 0.395626
vt 0.142796 0.395626
vt 0.142796 0.245333
vt 0.167747 0.245333
vt 0.167747 0.395626
vt 0.176344 0.071918
vt 0.201294 0.071918
vt 0.201294 0.222211
vt 0.176344 0.222211
vt 0.201294 0.245998
vt 0.176344 0.245998
vt 0.201294 0.396291
vt 0.176344 0.396291
vt 0.176788 0.071918
vt 0.201738 0.071918
vt 0.201738 0.222211
vt 0.176788 0.222211
vt 0.201738 0.245998
vt 0.176788 0.245998
vt 0.223953 0.222211
vt 0.223953 0.245998
vt 0.201738 0.396291
vt 0.176788 0.396291
vt 0.010874 0.299277
vt 0.040748 0.299277
vt 0.036996 0.299277
vt 0.014627 0.299277
vt 0.009818 0.299277
vt 0.041805 0.299277
vt 0.010874 0.299277
vt 0.040748 0.299277
vt 0.036996 0.365794
vt 0.041805 0.365794
vt 0.009818 0.365794
vt 0.014627 0.365794
vt 0.088591 0.955312
vt 0.074115 0.955312
vt 0.074115 0.929534
vt 0.074115 0.955312
vt 0.071003 0.955312
vt 0.071003 0.929534
vt 0.088591 0.955312
vt 0.088591 0.929534
vt 0.091703 0.929534
vt 0.091703 0.955312
vt 0.074115 0.929534
vt 0.088591 0.929534
vt 0.161674 0.859313
vt 0.165200 0.892895
vt 0.144073 0.928496
vt 0.144705 0.900554
vt 0.165181 0.900554
vt 0.165181 0.928496
vt 0.171408 0.858618
vt 0.165932 0.893590
vt 0.075816 0.441627
vt 0.086890 0.441627
vt 0.086890 0.457341
vt 0.075816 0.457341
vt 0.146915 0.971659
vt 0.167098 0.971659
vt 0.167098 0.991842
vt 0.146915 0.991842
vt 0.146915 0.971659
vt 0.167098 0.971659
vt 0.167098 0.991842
vt 0.146915 0.991842
vt 0.110652 0.929012
vt 0.110652 0.408422
vt 0.132517 0.408422
vt 0.132517 0.929012
vt 0.110652 0.929012
vt 0.110652 0.408422
vt 0.132517 0.408422
vt 0.132517 0.929012
vt 0.110652 0.929012
vt 0.110652 0.408422
vt 0.132517 0.408422
vt 0.132517 0.929012
vt 0.110652 0.929012
vt 0.110652 0.408422
vt 0.132517 0.408422
vt 0.132517 0.929012
vt 0.127160 0.913876
vt 0.116009 0.913876
vt 0.116009 0.902009
vt 0.127160 0.902009
vt 0.147755 0.858618
vt 0.142278 0.893590
vt 0.142267 0.900554
vt 0.142267 0.928496
vt 0.166987 0.928496
vt 0.167619 0.900554
vt 0.146347 0.859313
vt 0.141731 0.892895
vt 0.162097 0.859313
vt 0.146770 0.859313
vt 0.142378 0.892895
vt 0.165847 0.892895
vt 0.144705 0.928496
vt 0.167619 0.928496
vt 0.166987 0.900554
vt 0.144073 0.900554
vt 0.164550 0.900554
vt 0.141635 0.900554
vt 0.141635 0.928496
vt 0.164550 0.928496
vt 0.161302 0.858618
vt 0.147700 0.858619
vt 0.141626 0.893590
vt 0.154798 0.893590
vt 0.075816 0.941793
vt 0.086890 0.941793
vt 0.086890 0.957506
vt 0.075816 0.957506
vt 0.116009 0.435426
vt 0.116009 0.423559
vt 0.127160 0.423559
vt 0.127160 0.435426
vn -0.939693 0.342020 0.000000
vn -0.939693 0.342020 0.000000
vn -0.939693 0.342020 0.000000
vn -0.939693 0.342020 0.000000
vn 0.000000 0.000000 -1.000000
vn 0.000000 0.000000 -1.000000
vn 0.000000 0.000000 -1.000000
vn 0.000000 0.000000 -1.000000
vn 0.939693 -0.342020 0.000000
vn 0.939693 -0.342020 0.000000
vn 0.939693 -0.342020 0.000000
vn 0.939693 -0.342020 0.000000
vn 0.000000 0.000000 1.000000
vn 0.000000 0.000000 1.000000
vn 0.000000 0.000000 1.000000
vn 0.000000 0.000000 1.000000
vn -0.939693 -0.342020 -0.000001
vn -0.939693 -0.342020 -0.000001
vn -0.939693 -0.342020 -0.000001
vn -0.939693 -0.342020 -0.000001
vn 0.000000 0.000000 -1.000000
vn 0.000000 0.000000 -1.000000
vn 0.000000 0.000000 -1.000000
vn 0.000000 0.000000 -1.000000
vn 0.939693 0.342020 0.000000
vn 0.939693 0.342020 0.000000
vn 0.939693 0.342020 0.000000
vn 0.939693 0.342020 0.000000
vn 0.000000 0.000000 1.000000
vn 0.000000 0.000000 1.000000
vn 0.000000 0.000000 1.000000
vn 0.000000 0.000000 1.000000
vn 0.000000 0.000000 1.000000
vn 0.000000 0.000000 1.000000
vn 0.000000 0.000000 1.000000
vn 0.000000 0.000000 1.000000
vn -1.000000 -0.000000 0.000000
vn -1.000000 -0.000000 0.000000
vn -1.000000 -0.000000 0.000000
vn -1.000000 -0.000000 0.000000
vn -1.000000 -0.000000 0.000000
vn -1.000000 -0.000000 0.000000
vn 0.000000 0.000000 -1.000000
vn 0.000000 0.000000 -1.000000
vn 0.000000 0.000000 -1.000000
vn 0.000000 0.000000 -1.000000
vn 1.000000 0.000000 0.000000
vn 1.000000 0.000000 0.000000
vn 1.000000 0.000000 0.000000
vn 1.000000 0.000000 0.000000
vn 1.000000 0.000000 0.000000
vn 1.000000 0.000000 0.000000
vn 0.000000 0.000000 -1.000000
vn 0.000000 0.000000 -1.000000
vn 0.000000 0.000000 -1.000000
vn 0.000000 0.000000 -1.000000
vn 0.000000 0.000000 1.000000
vn 0.000000 0.000000 1.000000
vn 0.000000 0.000000 1.000000
vn 0.000000 0.000000 1.000000
vn 0.000000 -1.000000 0.000000
vn 0.000000 -0.978063 0.208307
vn 0.000000 -1.000000 0.000000
vn 0.000000 -1.000000 0.000000
vn 1.000000 0.000000 0.000000
vn 1.000000 0.000000 0.000000
vn 1.000000 0.000000 0.000000
vn 1.000000 0.000000 0.000000
vn 1.000000 0.000000 0.000000
vn 1.000000 0.000000 0.000000
vn 1.000000 0.000000 0.000000
vn 1.000000 0.000000 0.000000
vn -1.000000 0.000000 0.000000
vn -1.000000 0.000000 0.000000
vn -1.000000 0.000000 0.000000
vn -1.000000 0.000000 0.000000
vn -1.000000 0.000000 0.000000
vn -1.000000 0.000000 0.000000
vn -1.000000 0.000000 0.000000
vn -1.000000 0.000000 0.000000
vn -1.000000 0.000000 0.000000
vn -1.000000 0.000000 0.000000
vn -1.000000 0.000000 0.000000
vn -1.000000 0.000000 0.000000
vn 0.000000 -1.000000 0.000000
vn 0.000000 -1.000000 0.000000
vn 0.000000 -1.000000 0.000000
vn 0.000000 -0.972631 0.232353
vn 0.000000 -0.963785 0.266681
vn 0.000000 -0.963785 0.266681
vn 0.000000 0.000000 1.000000
vn 0.000000 0.000000 1.000000
vn 0.000000 0.000000 1.000000
vn 0.000000 0.000000 1.000000
vn 0.000000 0.972631 -0.232353
vn 0.000000 0.972631 -0.232353
vn 0.000000 0.963785 -0.266681
vn 0.000000 0.963785 -0.266681
vn 0.000000 1.000000 0.000000
vn 0.000000 1.000000 0.000000
vn 0.000000 1.000000 0.000000
vn 0.000000 1.000000 0.000000
vn 0.000000 0.000000 -1.000000
vn 0.000000 0.000000 -1.000000
vn 0.000000 0.000000 -1.000000
vn 0.000000 0.000000 -1.000000
vn 0.000000 -1.000000 0.000001
vn 0.000000 -1.000000 0.000000
vn 0.000000 -1.000000 0.000000
vn 0.000000 -1.000000 0.000000
vn 0.000000 -1.000000 0.000001
vn 0.707107 0.000000 -0.707107
vn 0.707107 0.000000 -0.707107
vn 0.707107 0.000000 -0.707107
vn 0.707107 0.000000 -0.707107
vn 0.258819 0.000000 -0.965926
vn 0.258819 0.000000 -0.965926
vn 0.258819 0.000000 -0.965926
vn 0.258819 0.000000 -0.965926
vn -0.258819 0.000000 -0.965926
vn -0.258819 0.000000 -0.965926
vn -0.258819 0.000000 -0.965926
vn -0.258819 0.000000 -0.965926
vn -0.707107 0.000000 -0.707107
vn -0.707107 0.000000 -0.707107
vn -0.707107 0.000000 -0.707107
vn -0.707107 0.000000 -0.707107
vn -0.965926 0.000000 -0.258819
vn -0.965926 0.000000 -0.258819
vn -0.965926 0.000000 -0.258819
vn -0.965926 0.000000 -0.258819
vn -0.965926 0.000000 0.258819
vn -0.965926 0.000000 0.258819
vn -0.965926 0.000000 0.258819
vn -0.965926 0.000000 0.258819
vn -0.707107 0.000000 0.707107
vn -0.707107 0.000000 0.707107
vn -0.707107 0.000000 0.707107
vn -0.707107 0.000000 0.707107
vn -0.258819 0.000000 0.965926
vn -0.258819 0.000000 0.965926
vn -0.258819 0.000000 0.965926
vn -0.258819 0.000000 0.965926
vn 0.258819 0.000000 0.965926
vn 0.258819 0.000000 0.965926
vn 0.258819 0.000000 0.965926
vn 0.258819 0.000000 0.965926
vn 0.707107 0.000000 0.707107
vn 0.707107 0.000000 0.707107
vn 0.707107 0.000000 0.707107
vn 0.707107 0.000000 0.707107
vn 0.965926 0.000000 0.258819
vn 0.965926 0.000000 0.258819
vn 0.965926 -0.000000 0.258819
vn 0.965926 -0.000000 0.258819
vn 0.965926 0.000000 -0.258819
vn 0.965926 0.000000 -0.258819
vn 0.965926 -0.000000 -0.258819
vn 0.965926 -0.000000 -0.258819
vn 0.707107 0.000000 -0.707107
vn 0.707107 0.000000 -0.707107
vn 0.258819 0.000000 -0.965926
vn 0.258819 0.000000 -0.965926
vn -0.258819 0.000000 -0.965926
vn -0.258819 0.000000 -0.965926
vn -0.707107 0.000000 -0.707107
vn -0.707107 0.000000 -0.707107
vn -0.965926 0.000000 -0.258819
vn -0.965926 0.000000 -0.258819
vn -0.965926 0.000000 -0.258819
vn -0.965926 0.000000 -0.258819
vn -0.965926 0.000000 -0.258819
vn -0.965926 0.000000 0.258819
vn -0.965926 0.000000 0.258819
vn -0.965926 0.000000 0.258819
vn -0.965926 0.000000 0.258819
vn -0.965926 0.000000 0.258819
vn -0.707107 0.000000 0.707107
vn -0.707107 0.000000 0.707107
vn -0.258819 0.000000 0.965926
vn -0.258819 0.000000 0.965926
vn 0.258819 0.000000 0.965926
vn 0.258819 0.000000 0.965926
vn 0.707107 0.000000 0.707107
vn 0.707107 0.000000 0.707107
vn 0.965926 -0.000000 0.258819
vn 0.965926 -0.000000 0.258819
vn 0.965926 -0.000000 0.258819
vn 0.965926 -0.000000 0.258819
vn 0.965926 -0.000000 0.258819
vn 0.965926 -0.000000 -0.258819
vn 0.965926 -0.000000 -0.258819
vn 0.965926 -0.000000 -0.258819
vn 0.965926 -0.000000 -0.258819
vn 0.965926 -0.000000 -0.258819
vn 0.000000 -1.000000 0.000000
vn 0.000000 -1.000000 0.000000
vn 0.000000 -1.000000 0.000000
vn 0.000000 -1.000000 0.000000
vn 0.000000 -1.000000 0.000000
vn 0.000000 -1.000000 0.000000
vn 0.000000 -1.000000 0.000000
vn 0.000000 -1.000000 0.000000
vn 0.000000 -1.000000 0.000000
vn 0.000000 -1.000000 0.000000
vn 0.000000 -1.000000 0.000000
vn 0.000000 -1.000000 0.000000
vn 0.000000 -1.000000 0.000000
vn 0.000000 1.000000 0.000000
vn 0.000000 1.000000 0.000000
vn 0.000000 1.000000 0.000000
vn 0.000000 1.000000 0.000000
vn 0.000000 1.000000 -0.000001
vn 0.000000 1.000000 -0.000001
vn 0.000000 1.000000 -0.000001
vn 0.000000 1.000000 -0.000001
vn 0.000000 1.000000 0.000000
vn 0.000000 1.000000 0.000000
vn 0.000000 1.000000 0.000012
vn 0.000000 1.000000 -0.000000
vn 0.000000 1.000000 -0.000016
vn 0.000000 1.000000 -0.000000
vn 0.000000 1.000000 0.000000
vn 0.000000 1.000000 0.000000
vn 0.000000 1.000000 0.000001
vn 0.000000 1.000000 0.000001
vn 0.000000 1.000000 0.000001
vn 0.000000 1.000000 0.000000
vn 0.000000 1.000000 -0.000001
vn 0.000000 1.000000 -0.000001
vn 0.000000 1.000000 -0.000012
vn 0.000000 1.000000 0.000016
vn -1.000000 0.000000 0.000000
vn -1.000000 0.000000 0.000000
vn -1.000000 0.000000 0.000000
vn -1.000000 0.000000 0.000000
vn 0.000000 1.000000 0.000000
vn 0.000000 1.000000 0.000000
vn 0.000000 1.000000 0.000000
vn 0.000000 1.000000 0.000000
vn 0.000000 1.000000 0.000000
vn 0.000000 1.000000 0.000000
vn 0.000000 1.000000 0.000000
vn 0.000000 1.000000 0.000000
vn 0.000000 1.000000 0.000000
vn 0.000000 1.000000 0.000000
vn 0.000000 1.000000 0.000000
vn 0.000000 1.000000 0.000000
vn 1.000000 0.000000 0.000000
vn 1.000000 0.000000 0.000000
vn 1.000000 0.000000 0.000000
vn 1.000000 0.000000 0.000000
vn 0.000000 -1.000000 -0.000001
vn 0.000000 -1.000000 0.000001
vn 0.000000 -1.000000 0.000001
vn 0.000000 -1.000000 0.000000
vn 0.000000 -1.000000 -0.000001
vn 0.000000 0.000000 1.000000
vn 0.000000 0.000000 1.000000
vn 0.000000 0.000000 1.000000
vn 0.000000 0.000000 1.000000
vn 0.000000 0.000000 -1.000000
vn 0.000000 0.000000 -1.000000
vn 0.000000 0.000000 -1.000000
vn 0.000000 0.000000 -1.000000
vn -1.000000 0.000000 0.000000
vn -1.000000 0.000000 0.000000
vn 0.000000 0.000000 1.000000
vn 0.000000 0.000000 1.000000
vn 0.000000 0.000000 1.000000
vn 0.000000 0.000000 1.000000
vn 1.000000 0.000000 0.000000
vn 1.000000 0.000000 0.000000
vn 0.000000 0.000000 -1.000000
vn 0.000000 0.000000 -1.000000
vn 0.000000 0.000000 -1.000000
vn 0.000000 0.000000 -1.000000
vn 1.000000 0.000000 0.000000
vn 1.000000 0.000000 0.000000
vn -0.000000 0.000000 1.000000
vn -0.000000 0.000000 1.000000
vn -0.000000 0.000000 1.000000
vn -0.000000 0.000000 1.000000
vn -0.000000 0.000000 1.000000
vn -0.000000 0.000000 1.000000
vn -0.000000 0.000000 1.000000
vn -0.000000 0.000000 1.000000
vn -0.000000 0.000000 1.000000
vn -0.000000 0.000000 1.000000
vn -0.000000 0.000000 1.000000
vn -0.000000 0.000000 1.000000
vn -0.000000 0.000000 1.000000
vn -1.000000 0.000000 0.000000
vn -1.000000 0.000000 0.000000
vn 0.000000 -0.000000 -1.000000
vn 0.000000 -0.000000 -1.000000
vn 0.000000 -0.000000 -1.000000
vn 0.000000 -0.000000 -1.000000
vn 0.000000 -0.000000 -1.000000
vn 0.000000 -0.000000 -1.000000
vn 0.000000 -0.000000 -1.000000
vn 0.000000 -0.000000 -1.000000
vn 0.000000 -0.000000 -1.000000
vn 0.000000 -0.000000 -1.000000
vn 0.000000 -0.000000 -1.000000
vn 0.000000 -0.000000 -1.000000
vn 0.000000 -0.000000 -1.000000
vn 0.000000 -1.000000 0.000000
vn 0.000000 -1.000000 0.000000
vn 0.000000 -1.000000 0.000000
vn 0.000000 -1.000000 0.000000
vn 1.000000 0.000000 0.000000
vn 1.000000 0.000000 0.000000
vn 0.000000 1.000000 0.000000
vn 0.000000 1.000000 0.000000
vn -1.000000 0.000000 0.000000
vn -1.000000 0.000000 0.000000
vn 0.000000 -1.000000 0.000000
vn 0.000000 -1.000000 0.000000
vn 0.000000 -1.000000 0.000000
vn 0.000000 -1.000000 0.000000
vn -1.000000 0.000000 0.000000
vn -1.000000 0.000000 0.000000
vn 0.000000 1.000000 0.000000
vn 0.000000 1.000000 0.000000
vn 1.000000 0.000000 0.000000
vn 1.000000 0.000000 0.000000
vn 0.000000 1.000000 0.000000
vn 0.000000 1.000000 0.000000
vn 0.000000 1.000000 0.000000
vn 0.000000 1.000000 0.000000
vn -1.000000 0.000000 0.000000
vn -1.000000 0.000000 0.000000
vn 0.000000 -1.000000 -0.000001
vn 0.000000 -1.000000 -0.000001
vn 0.000000 -1.000000 -0.000001
vn 0.000000 -1.000000 -0.000001
vn 0.000000 -1.000000 -0.000001
vn 0.000000 -1.000000 -0.000001
vn 1.000000 0.000000 0.000000
vn 1.000000 0.000000 0.000000
vn 0.000000 1.000000 0.000000
vn 0.000000 1.000000 0.000000
vn 0.000000 1.000000 0.000000
vn 0.000000 1.000000 0.000000
vn 1.000000 0.000000 0.000000
vn 1.000000 0.000000 0.000000
vn 0.000000 -1.000000 0.000002
vn 0.000000 -1.000000 0.000002
vn 0.000000 -1.000000 0.000002
vn 0.000000 -1.000000 0.000002
vn 0.000000 -1.000000 0.000002
vn 0.000000 -1.000000 0.000002
vn -1.000000 0.000000 0.000000
vn -1.000000 0.000000 0.000000
vn 0.000000 -1.000000 0.000000
vn 0.000000 -1.000000 0.000000
vn 0.000000 -1.000000 0.000000
vn 0.000000 -1.000000 0.000000
vn 0.000000 -1.000000 0.000000
vn 0.000000 -1.000000 0.000000
vn 0.000000 -1.000000 0.000002
vn 0.000000 -1.000000 0.000002
vn 0.000000 -1.000000 0.000002
vn 0.000000 -1.000000 0.000002
vn 0.000000 -1.000000 0.000002
vn 0.000000 -1.000000 0.000002
vn 0.000000 0.000000 1.000000
vn 0.000000 0.000000 1.000000
vn 0.000000 0.000000 1.000000
vn 0.000000 0.000000 1.000000
vn 0.000000 0.963785 -0.266681
vn 0.000000 0.963785 -0.266681
vn 0.000000 0.972632 -0.232353
vn 0.000000 0.972632 -0.232353
vn 0.000000 1.000000 0.000000
vn 0.000000 1.000000 0.000000
vn 0.000000 1.000000 0.000000
vn 0.000000 1.000000 0.000000
vn 0.000000 0.000000 -1.000000
vn 0.000000 0.000000 -1.000000
vn 0.000000 0.000000 -1.000000
vn 0.000000 0.000000 -1.000000
vn 0.000000 -1.000000 0.000000
vn 0.000000 -1.000000 0.000000
vn 0.000000 -1.000000 0.000000
vn 0.000000 -1.000000 0.000000
vn 0.000000 -0.978063 0.208307
vn 0.000000 -0.972632 0.232353
vn 0.000000 -0.963785 0.266681
vn 0.000000 -0.963785 0.266681
vn 1.000000 0.000000 0.000000
vn 1.000000 0.000000 0.000000
vn 1.000000 0.000000 0.000000
vn 1.000000 0.000000 0.000000
vn 1.000000 0.000000 0.000000
vn 1.000000 0.000000 0.000000
vn 1.000000 0.000000 0.000000
vn 1.000000 0.000000 0.000000
vn 1.000000 0.000000 0.000000
vn 1.000000 0.000000 0.000000
vn 1.000000 0.000000 0.000000
vn 1.000000 0.000000 0.000000
vn -1.000000 0.000000 0.000000
vn -1.000000 0.000000 0.000000
vn -1.000000 0.000000 0.000000
vn -1.000000 0.000000 0.000000
vn -1.000000 0.000000 0.000000
vn -1.000000 0.000000 0.000000
vn -1.000000 0.000000 0.000000
vn -1.000000 0.000000 0.000000
vn 0.000000 -1.000000 0.000000
vn 0.000000 -1.000000 0.000000
vn 0.000000 0.000000 -1.000000
vn 0.000000 0.000000 -1.000000
vn 0.000000 0.000000 -1.000000
vn 0.000000 0.000000 -1.000000
vn 0.000000 0.000000 1.000000
vn 0.000000 0.000000 1.000000
vn 0.000000 0.000000 1.000000
vn 0.000000 0.000000 1.000000
vn -1.000000 0.000000 0.000000
vn -1.000000 0.000000 0.000000
vn -1.000000 0.000000 0.000000
vn -1.000000 0.000000 0.000000
vn -1.000000 0.000000 0.000000
vn -1.000000 0.000000 0.000000
vn 0.000000 0.000000 1.000000
vn 0.000000 0.000000 1.000000
vn 0.000000 0.000000 1.000000
vn 0.000000 0.000000 1.000000
vn 1.000000 0.000000 0.000000
vn 1.000000 0.000000 0.000000
vn 1.000000 0.000000 0.000000
vn 1.000000 0.000000 0.000000
vn 1.000000 0.000000 0.000000
vn 1.000000 0.000000 0.000000
vn 0.000000 0.000000 -1.000000
vn 0.000000 0.000000 -1.000000
vn 0.000000 0.000000 -1.000000
vn 0.000000 0.000000 -1.000000
vn 0.000000 0.000000 1.000000
vn 0.000000 0.000000 1.000000
vn 0.000000 0.000000 1.000000
vn 0.000000 0.000000 1.000000
vn 0.000000 1.000000 0.000000
vn 0.000000 1.000000 0.000000
vn 0.000000 1.000000 0.000000
vn 0.000000 1.000000 0.000000
vn 0.000000 0.000000 -1.000000
vn 0.000000 0.000000 -1.000000
vn 0.000000 0.000000 -1.000000
vn 0.000000 0.000000 -1.000000
vn 0.000000 -1.000000 0.000000
vn 0.000000 -1.000000 0.000000
vn 0.000000 -1.000000 0.000000
vn 0.000000 -1.000000 0.000000
vn 0.000000 -1.000000 0.000000
vn 0.000000 -1.000000 0.000000
vn 0.000000 -1.000000 0.000000
vn 0.000000 -1.000000 0.000000
vn 0.000000 -1.000000 0.000000
vn 0.000000 -1.000000 0.000000
vn 0.000000 -1.000000 0.000000
vn 0.000000 -1.000000 0.000000
vn 1.000000 0.000000 0.000000
vn 1.000000 0.000000 0.000000
vn 1.000000 0.000000 0.000000
vn 1.000000 0.000000 0.000000
vn -1.000000 0.000000 0.000000
vn -1.000000 0.000000 0.000000
vn -1.000000 0.000000 0.000000
vn -1.000000 0.000000 0.000000
s off
g Pillar_3
usemtl lambert3SG
f 245/947/685 246/946/686 247/945/687 248/944/688
f 248/951/689 247/950/690 249/949/691 250/948/692
f 250/955/693 249/954/694 251/953/695 252/952/696
f 252/959/697 251/958/698 246/957/699 245/956/700
f 253/943/701 254/942/702 255/896/703 256/897/704
f 254/941/705 257/940/706 258/898/707 255/899/708
f 257/939/709 259/938/710 260/900/711 258/901/712
f 259/937/713 253/936/714 256/902/715 260/903/716
f 261/789/717 262/748/718 263/747/719 264/788/720
f 265/793/721 266/792/722 267/791/723 268/731/724 262/730/725 261/790/726
f 269/795/727 270/750/728 268/753/729 267/794/730
f 264/799/731 263/736/732 270/737/733 269/798/734 271/797/735 272/796/736
f 270/750/737 273/751/738 274/752/739 268/753/740
f 275/746/741 263/747/742 262/748/743 276/749/744
s 1
f 273/782/745 275/780/746 276/784/747 274/785/748
s 2
f 277/766/749 278/767/750 279/768/751 280/769/752
f 281/732/753 277/734/749 280/735/752 282/733/754
f 283/762/755 281/763/753 282/764/754 284/765/756
s off
f 285/758/757 273/759/758 270/760/759 286/761/760
f 274/728/761 276/729/762 262/730/763 268/731/764
f 275/754/765 287/755/766 288/756/767 263/757/768
s 1
f 277/783/769 273/782/745 285/786/770 278/787/771
f 281/781/772 275/780/746 273/782/745 277/783/769
f 283/778/773 287/779/774 275/780/746 281/781/772
s off
f 284/742/775 288/743/776 287/744/777 283/745/778
s 3
f 282/775/779 263/774/780 288/776/781 284/777/782
f 280/773/783 270/772/784 263/774/780 282/775/779
f 279/770/785 286/771/786 270/772/784 280/773/783
s off
f 278/738/787 285/739/788 286/740/789 279/741/790
s 4
f 266/801/791 265/800/792 289/658/793 290/660/794 291/659/795
s 5
f 292/517/796 293/544/797 294/545/798 295/518/799
s 6
f 293/544/800 296/546/801 297/547/802 294/545/803
s 7
f 296/546/804 298/549/805 299/550/806 297/547/807
s 8
f 298/549/808 300/552/809 301/553/810 299/550/811
s 9
f 300/505/812 302/506/813 303/507/814 301/508/815
s 10
f 302/506/816 304/509/817 305/510/818 303/507/819
s 11
f 304/509/820 306/556/821 307/557/822 305/510/823
s 12
f 306/556/824 308/558/825 309/559/826 307/557/827
s 13
f 308/558/828 310/561/829 311/562/830 309/559/831
s 14
f 310/561/832 312/564/833 313/565/834 311/562/835
s 15
f 312/513/836 314/514/837 315/515/838 313/516/839
s 16
f 314/514/840 292/517/841 295/518/842 315/515/843
s 5
f 295/518/799 294/545/798 316/548/844 317/520/845
s 6
f 294/545/803 297/547/802 318/551/846 316/548/847
s 7
f 297/547/807 299/550/806 319/554/848 318/551/849
s 8
f 299/550/811 301/553/810 320/555/850 319/554/851
s 9
f 321/727/852 322/726/853 320/511/854 301/508/815 303/507/814 323/725/855 324/724/856
s 10
f 325/723/857 326/722/858 323/721/859 303/507/819 305/510/818 327/512/860 328/720/861
s 11
f 305/510/823 307/557/822 329/560/862 327/512/863
s 12
f 307/557/827 309/559/826 330/563/864 329/560/865
s 13
f 309/559/831 311/562/830 331/566/866 330/563/867
s 14
f 311/562/835 313/565/834 332/567/868 331/566/869
s 15
f 290/719/870 289/718/871 333/717/872 334/716/873 332/519/874 313/516/839 315/515/838
s 16
f 335/715/875 291/714/876 290/713/877 315/515/843 295/518/842 317/520/878 336/712/879
s 17
f 293/521/880 292/522/881 337/523/882
f 296/525/883 293/521/880 337/523/882
f 298/527/884 296/525/883 337/523/882
f 300/529/885 298/527/884 337/523/882
f 302/531/886 300/529/885 337/523/882
f 304/533/887 302/531/886 337/523/882
f 306/532/888 304/533/887 337/523/882
f 308/530/889 306/532/888 337/523/882
f 310/528/890 308/530/889 337/523/882
f 312/526/891 310/528/890 337/523/882
f 314/524/892 312/526/891 337/523/882
f 292/522/881 314/524/892 337/523/882
s 18
f 338/711/893 339/710/894 317/534/895 316/535/896
f 340/709/897 338/708/893 316/535/896 318/536/898
f 341/707/899 340/706/897 318/536/898 319/537/900
f 342/705/901 341/704/899 319/537/900 320/539/902
f 322/703/903 342/702/901 320/539/902
s 19
f 343/701/904 328/700/905 327/542/906
f 344/699/907 343/698/904 327/542/906 329/543/908
f 345/697/909 344/696/907 329/543/908 330/541/910
f 346/695/911 345/694/909 330/541/910 331/540/912
f 347/693/913 346/692/911 331/540/912 332/538/914
f 334/691/915 347/690/913 332/538/914
s 18
f 339/689/894 336/688/916 317/534/895
s 20
f 348/624/917 349/625/918 350/626/919 351/627/920
s 21
f 352/592/921 353/593/922 354/594/923 355/595/924 250/963/925 252/962/926 245/961/927 248/960/928 258/907/929 260/906/930 256/905/931 255/904/932
s 22
f 356/640/933 357/641/934 358/642/935 359/643/936
s 23
f 360/895/937 361/894/938 324/685/939 323/687/940 326/686/941
s off
f 349/568/942 358/569/943 357/570/944 350/571/945
f 359/572/946 348/573/947 351/574/948 356/575/949
s 20
f 351/627/920 350/626/919 353/630/950 352/631/951
s off
f 362/576/952 363/577/953 364/578/954 365/579/955
s 22
f 357/641/934 356/640/933 355/644/956 354/645/957
s off
f 366/580/958 367/581/959 368/582/960 369/583/961
s 22
f 359/643/936 358/642/935 370/646/962 371/647/963
s off
f 343/684/964 344/683/965 345/682/966 346/681/967 347/680/968 334/679/969 333/678/970 372/587/971 373/584/972 374/585/973 375/586/974 325/677/975 328/676/976
s 20
f 349/625/918 348/624/917 376/628/977 377/629/978
s off
f 341/675/979 342/674/980 322/673/981 321/672/982 378/591/983 379/588/984 380/589/985 381/590/986 335/671/987 336/670/988 339/669/989 338/668/990 340/667/991
f 350/608/992 357/609/993 363/610/994 362/611/995
s 22
f 357/641/934 354/645/957 364/650/996 363/651/997
s 21
f 354/594/923 353/593/922 365/596/998 364/597/999
s 20
f 353/630/950 350/626/919 362/636/1000 365/637/1001
s off
f 356/612/1002 351/613/1003 367/614/1004 366/615/1005
s 20
f 351/627/920 352/631/951 368/638/1006 367/639/1007
s off
f 352/592/921 355/595/924 369/598/1008 368/599/1009
s 22
f 355/644/956 356/640/933 366/648/1010 369/649/1011
s off
f 358/616/1012 349/617/1013 374/618/1014 373/619/1015
s 20
f 349/625/918 377/629/978 375/634/1016 374/635/1017
s 23
f 382/893/1018 383/892/1019 360/891/937 326/665/941 325/666/1020 375/605/1021 377/602/1022 384/890/1023
s 22
f 370/646/962 358/642/935 373/652/1024 372/653/1025
s off
f 348/620/1026 359/621/1027 380/622/1028 379/623/1029
s 22
f 359/643/936 371/647/963 381/654/1030 380/655/1031
s 23
f 385/889/1032 386/888/1033 387/887/1034 376/603/1035 378/606/1036 321/663/1037 324/664/939 361/886/938
s 20
f 376/628/977 348/624/917 379/632/1038 378/633/1039
s 4
f 265/805/792 261/804/1040 264/803/1041 272/802/1042 370/601/1043 372/604/1044 333/661/1045 289/662/793
f 272/807/1042 271/806/1046 371/600/1047 370/601/1043
f 267/811/1048 266/810/791 291/656/795 335/657/1049 381/607/1050 371/600/1047 271/809/1046 269/808/1051
s 23
f 387/885/1034 384/884/1023 377/602/1022 376/603/1035
s off
f 388/822/1052 389/823/1053 390/824/1054 391/825/1055
s 24
f 391/854/1056 390/855/1057 392/856/1058 393/857/1059
f 393/857/1059 392/856/1058 394/858/1060 395/859/1061
f 395/859/1061 394/858/1060 396/860/1062 397/861/1063
s off
f 397/826/1064 396/827/1065 398/828/1066 399/829/1067
s 25
f 399/862/1068 398/863/1069 400/864/1070 401/865/1071
f 401/865/1071 400/864/1070 402/866/1072 403/867/1073
f 403/867/1073 402/866/1072 389/870/1074 388/871/1075
s off
f 400/838/1076 398/839/1077 396/840/1078 394/841/1079
f 404/812/1080 405/813/1081 406/814/1082 407/815/1083
f 389/842/1084 402/843/1085 392/844/1086 390/845/1087
s 26
f 399/846/1088 401/847/1089 395/848/1090 397/849/1091
f 401/816/1089 403/818/1092 393/819/1093 395/817/1090
f 403/850/1092 388/851/1094 391/852/1095 393/853/1093
s 25
f 402/866/1072 400/864/1070 405/868/1096 404/869/1097
s off
f 400/830/1098 394/831/1099 406/832/1100 405/833/1101
f 392/834/1102 402/835/1103 404/836/1104 407/837/1105
f 387/883/1106 386/882/1107 394/820/1108 392/821/1109 382/881/1110 384/880/1111
f 382/879/1112 392/834/1113 407/837/1114 383/878/1115
f 383/877/1116 407/815/1117 406/814/1118 385/876/1119 361/875/1120 360/874/1121
f 385/873/1122 406/832/1123 394/831/1124 386/872/1125
f 408/924/1126 409/925/1127 410/926/1128 411/927/1129
f 411/916/1130 410/917/1131 412/918/1132 413/919/1133
f 413/928/1134 412/929/1135 414/930/1136 415/931/1137
f 415/920/1138 414/921/1139 409/922/1140 408/923/1141 246/967/1142 251/966/1143 249/965/1144 247/964/1145 259/935/1146 257/934/1147 254/933/1148 253/932/1149
f 409/908/1150 414/909/1151 412/910/1152 410/911/1153
f 415/912/1154 408/913/1155 411/914/1156 413/915/1157
